<svg width="66" height="77" viewBox="0 0 66 77" fill="none" xmlns="http://www.w3.org/2000/svg">
<path d="M43.7488 51.1002C43.1208 51.0432 42.5728 50.4942 42.5148 49.8662L40.9378 31.9922H25.0408L23.4758 49.8662C23.4178 50.4942 22.8588 51.0432 22.2288 51.1002C21.8068 51.1352 21.2808 51.1812 20.6758 51.2372C20.6758 51.2372 20.6758 51.2372 20.6868 51.2482C20.7438 51.3742 21.2238 52.3692 22.1268 53.6252C22.6068 54.3112 23.1908 55.0642 23.8638 55.8422C24.5148 56.6302 25.2588 57.4302 26.0238 58.1962C26.7898 58.9742 27.6008 59.7052 28.3898 60.3572C29.1668 61.0192 29.9208 61.6132 30.6068 62.0822C31.9438 63.0422 32.9728 63.5332 32.9848 63.5452H32.9968C32.9968 63.5452 32.9968 63.5452 33.0078 63.5332C33.1218 63.4652 34.1158 62.9852 35.3728 62.0822C36.0588 61.6132 36.8248 61.0192 37.6018 60.3572C38.3798 59.7052 39.1918 58.9742 39.9568 58.1962C40.7338 57.4302 41.4648 56.6302 42.1278 55.8422C42.7908 55.0642 43.3728 54.3112 43.8548 53.6252C44.7558 52.3682 45.2488 51.3742 45.3058 51.2482C45.3168 51.2372 45.3168 51.2372 45.3168 51.2372C44.6978 51.1812 44.1718 51.1352 43.7488 51.1002Z" fill="#FEE69F"/>
<path d="M50.3328 24.0862C49.0278 23.2862 47.1138 24.8292 46.0558 27.5332C44.9998 30.2382 45.2018 33.0802 46.5048 33.8802C47.8098 34.6802 49.7238 33.1372 50.7798 30.4322C51.8368 27.7292 51.6358 24.8872 50.3328 24.0862Z" fill="#FEE69F"/>
<path d="M15.6495 24.0862C16.9535 23.2862 18.8685 24.8292 19.9255 27.5332C20.9815 30.2382 20.7805 33.0802 19.4765 33.8802C18.1715 34.6802 16.2575 33.1372 15.2015 30.4322C14.1445 27.7292 14.3455 24.8872 15.6495 24.0862Z" fill="#FEE69F"/>
<path d="M50.7114 19.2593C50.7114 31.7833 42.7784 45.9263 32.9924 45.9263C23.2064 45.9263 15.2734 31.7833 15.2734 19.2593C15.2734 6.73431 23.2064 0.570312 32.9924 0.570312C42.7784 0.570312 50.7114 6.73431 50.7114 19.2593Z" fill="#FEE69F"/>
<path opacity="0.1" d="M32.9921 45.9292C29.7791 45.9292 26.7681 44.3972 24.1701 41.9062L24.0781 42.9502C26.6971 45.4972 29.7391 47.0732 32.9921 47.0732C36.2441 47.0732 39.2881 45.5082 41.9081 42.9642L41.8151 41.9072C39.2171 44.3972 36.2061 45.9292 32.9921 45.9292Z" fill="black"/>
<path d="M64.6655 56.7272C67.6365 60.5572 64.6655 76.0762 64.6655 76.0762H1.31556C1.31556 76.0762 -1.64444 60.5562 1.31556 56.7272C3.96756 53.2882 15.3965 51.7782 20.6765 51.2422C20.6765 51.2422 20.6765 51.2422 20.6875 51.2532C20.7445 51.3792 21.2246 52.3742 22.1276 53.6302C22.6076 54.3162 23.1916 55.0692 23.8646 55.8472C24.5156 56.6352 25.2596 57.4352 26.0246 58.2012C26.7906 58.9792 27.6016 59.7102 28.3906 60.3622C29.1676 61.0242 29.9215 61.6182 30.6075 62.0872C31.9445 63.0472 32.9736 63.5382 32.9856 63.5502H32.9975C32.9975 63.5502 32.9975 63.5502 33.0085 63.5382C33.1225 63.4702 34.1166 62.9902 35.3736 62.0872C36.0596 61.6182 36.8256 61.0242 37.6026 60.3622C38.3806 59.7102 39.1926 58.9792 39.9576 58.2012C40.7346 57.4352 41.4655 56.6352 42.1285 55.8472C42.7915 55.0692 43.3735 54.3162 43.8555 53.6302C44.7565 52.3732 45.2496 51.3792 45.3066 51.2532C45.3176 51.2422 45.3176 51.2422 45.3176 51.2422C50.5846 51.7782 62.0135 53.2882 64.6655 56.7272Z" fill="#FC611F"/>
<path opacity="0.4" d="M32.9914 0.570312V45.9263C23.2064 45.9253 15.2734 31.7833 15.2734 19.2593C15.2734 6.73431 23.2064 0.570312 32.9914 0.570312Z" fill="white"/>
<path d="M50.9014 17.132C50.8504 16.365 50.7504 15.549 50.6464 14.703C50.3314 13.039 49.9124 11.224 49.0594 9.444C48.2144 7.675 47.0254 5.915 45.4144 4.468C43.8194 3.01 41.8544 1.859 39.7154 1.118C37.5674 0.37 35.3034 0.019 32.9714 0L31.2994 0.0749969C30.7334 0.123997 30.1514 0.215 29.5814 0.284C28.4494 0.478 27.3444 0.743001 26.2724 1.117C24.1354 1.858 22.1704 3.011 20.5744 4.469C18.9634 5.916 17.7724 7.674 16.9284 9.445C16.0744 11.223 15.6564 13.039 15.3414 14.704C15.2374 15.546 15.1384 16.353 15.0864 17.122C15.0794 17.896 15.0734 18.63 15.0664 19.32C15.1914 20.676 15.2494 21.86 15.3854 22.831C15.7574 24.756 15.9694 25.856 15.9694 25.856L17.5664 26.171C17.5664 26.171 18.0194 11.887 23.3734 9.883C28.7274 7.879 32.9954 9.883 32.9954 9.883C32.9954 9.883 37.2634 7.879 42.6174 9.883C47.9694 11.888 48.4224 26.171 48.4224 26.171L50.0194 25.856C50.0194 25.856 50.2314 24.76 50.6004 22.841C50.7364 21.873 50.7954 20.679 50.9214 19.308C50.9144 18.626 50.9074 17.899 50.9014 17.132Z" fill="#8F6C08"/>
</svg>
