<svg width="66" height="76" viewBox="0 0 66 76" fill="none" xmlns="http://www.w3.org/2000/svg">
<path d="M50.3359 23.5163C49.0309 22.7153 47.1169 24.2583 46.0609 26.9633C45.0039 29.6683 45.2049 32.5093 46.5079 33.3113C47.8129 34.1113 49.7269 32.5673 50.7829 29.8633C51.8399 27.1573 51.6389 24.3163 50.3359 23.5163Z" fill="#FEE69F"/>
<path d="M15.6539 23.5163C16.9569 22.7153 18.8729 24.2583 19.9299 26.9633C20.9859 29.6683 20.7859 32.5093 19.4809 33.3113C18.1759 34.1113 16.2619 32.5673 15.2049 29.8633C14.1489 27.1573 14.3489 24.3163 15.6539 23.5163Z" fill="#FEE69F"/>
<path d="M64.673 56.1593C61.186 51.6553 42.617 50.4453 42.617 50.4453H23.372C23.372 50.4453 4.803 51.6553 1.316 56.1593C-1.645 59.9853 1.316 75.5113 1.316 75.5113H24.078H41.91H64.672C64.672 75.5113 67.634 59.9843 64.673 56.1593Z" fill="#8FC3D8"/>
<path d="M50.7114 18.688C50.7114 31.214 42.7784 45.356 32.9924 45.356C23.2064 45.356 15.2734 31.214 15.2734 18.688C15.2734 6.164 23.2064 0 32.9924 0C42.7784 0 50.7114 6.164 50.7114 18.688Z" fill="#FEE69F"/>
<path d="M40.9451 31.4219H25.0401L23.3711 50.4439C23.3711 52.5479 27.6791 54.2539 32.9931 54.2539C38.3081 54.2539 42.6161 52.5479 42.6161 50.4439L40.9451 31.4219Z" fill="#FEE69F"/>
<path opacity="0.1" d="M32.9921 45.3599C29.7791 45.3599 26.7681 43.8289 24.1701 41.3359L24.0781 42.3799C26.6981 44.9279 29.7391 46.5029 32.9921 46.5029C36.2441 46.5029 39.2891 44.9399 41.9081 42.3949L41.8151 41.3379C39.2171 43.8289 36.2051 45.3599 32.9921 45.3599Z" fill="black"/>
<path d="M45.1891 50.6656C44.6611 50.6166 43.4931 50.5236 42.8891 50.4766L32.9961 54.3186L35.2801 60.3226L44.6571 55.4616L45.1891 50.6656Z" fill="white"/>
<path d="M20.8047 50.6656C21.3327 50.6166 22.5017 50.5236 23.1047 50.4766L32.9977 54.3186L30.7127 60.3226L21.3357 55.4616L20.8047 50.6656Z" fill="white"/>
<path d="M32.9968 54.3203L33.5688 75.5103H32.4258L32.9968 54.3203Z" fill="#6B92A2"/>
<path d="M32.9961 54.3191L35.5951 60.2031L35.1261 60.0241L44.2481 54.6721L43.7731 55.3641L44.0531 50.5391L46.3251 50.7911L45.5421 55.5611L45.4591 56.0761L45.0681 56.2531L35.4361 60.6211L35.0771 60.7841L34.9661 60.4421L32.9961 54.3191Z" fill="#6B92A2"/>
<path d="M45.1891 50.6656C44.6611 50.6166 43.4931 50.5236 42.8891 50.4766L32.9961 54.3186L35.2801 60.3226L44.6571 55.4616L45.1891 50.6656Z" fill="#8FC3D8"/>
<path d="M32.997 54.3191L31.028 60.4421L30.917 60.7841L30.557 60.6211L20.926 56.2531L20.535 56.0761L20.45 55.5611L19.668 50.7911L21.941 50.5391L22.22 55.3641L21.745 54.6721L30.867 60.0241L30.398 60.2031L32.997 54.3191Z" fill="#6B92A2"/>
<path d="M20.8047 50.6656C21.3327 50.6166 22.5017 50.5236 23.1047 50.4766L32.9977 54.3186L30.7127 60.3226L21.3357 55.4616L20.8047 50.6656Z" fill="#8FC3D8"/>
<path opacity="0.4" d="M32.9894 0V45.356C23.2044 45.353 15.2734 31.213 15.2734 18.688C15.2734 6.165 23.2054 0.001 32.9894 0Z" fill="white"/>
<path d="M32.9938 0C28.1538 0 23.7708 1.514 20.5738 4.555C20.3408 4.541 20.1158 4.515 19.9088 4.549C19.6678 4.572 19.4408 4.595 19.2308 4.616C19.0238 4.626 18.8398 4.691 18.6758 4.72C18.5138 4.756 18.3738 4.788 18.2568 4.813C18.0278 4.866 17.8978 4.895 17.8978 4.895C17.8978 4.895 18.0308 4.919 18.2638 4.961C18.3778 4.982 18.5178 5.007 18.6788 5.036C18.8358 5.071 19.0168 5.082 19.2028 5.151C19.3038 5.182 19.4198 5.219 19.5288 5.253C19.3348 5.283 19.1368 5.31 18.9518 5.348C18.6398 5.435 18.3458 5.48 18.0698 5.596C17.7958 5.697 17.5418 5.788 17.3198 5.924C17.0928 6.035 16.8998 6.157 16.7458 6.297C16.5868 6.424 16.4498 6.526 16.3678 6.651C16.1918 6.87 16.0928 6.995 16.0928 6.995C16.0928 6.995 16.2258 6.912 16.4608 6.766C16.5658 6.685 16.7278 6.634 16.9008 6.575C17.0678 6.503 17.2708 6.458 17.4958 6.431C17.7098 6.383 17.9578 6.384 18.2108 6.382C18.3688 6.37 18.5408 6.386 18.7138 6.406C18.6458 6.437 18.5768 6.463 18.5068 6.495C17.9628 6.741 17.4358 7.045 16.9708 7.36C16.5048 7.679 16.1138 8.034 15.8138 8.362C15.6628 8.525 15.5538 8.703 15.4468 8.842C15.3348 8.977 15.2748 9.125 15.2188 9.237C15.1118 9.46 15.0508 9.587 15.0508 9.587C15.0508 9.587 15.1548 9.493 15.3348 9.328C15.4268 9.248 15.5238 9.144 15.6728 9.063C15.8178 8.979 15.9628 8.869 16.1438 8.784C16.5058 8.612 16.9378 8.454 17.4188 8.349C17.5128 8.329 17.6138 8.316 17.7098 8.299C16.1738 11.067 15.2758 14.519 15.2758 18.693C15.2758 20.858 15.5178 23.069 15.9608 25.249H17.1258C17.1258 25.249 17.5968 20.126 19.5428 18.384C20.7128 17.336 21.5478 13.254 22.0298 10.159C22.3788 11.578 22.9938 13.195 24.0808 14.198C24.0808 14.198 23.0038 11.793 24.0808 10.74C24.0808 10.74 25.0778 14.435 26.4088 15.341C26.4088 15.341 26.2048 14.181 27.0238 13.464C27.0238 13.464 28.5608 19.203 43.8308 16.027C43.8308 16.027 48.7348 21.975 48.8868 25.249H50.0298C50.4708 23.069 50.7138 20.858 50.7138 18.693C50.7128 6.164 42.7798 0 32.9938 0Z" fill="#303030"/>
</svg>
