<svg width="67" height="81" viewBox="0 0 67 81" fill="none" xmlns="http://www.w3.org/2000/svg">
<path d="M50.7704 28.4382C49.4644 27.6372 47.5514 29.1802 46.4934 31.8852C45.4374 34.5902 45.6394 37.4312 46.9414 38.2332C48.2474 39.0332 50.1604 37.4892 51.2174 34.7852C52.2744 32.0792 52.0744 29.2382 50.7704 28.4382Z" fill="#FEE69F"/>
<path d="M16.0868 28.4382C17.3918 27.6372 19.3058 29.1802 20.3638 31.8852C21.4198 34.5902 21.2188 37.4312 19.9148 38.2332C18.6098 39.0332 16.6958 37.4892 15.6398 34.7852C14.5818 32.0792 14.7828 29.2382 16.0868 28.4382Z" fill="#FEE69F"/>
<path d="M1.7499 80.4254H65.1049C65.1049 80.4254 68.0669 64.8994 65.1049 61.0734C61.6189 56.5694 43.0499 55.3594 43.0499 55.3594H23.8049C23.8049 55.3594 5.23689 56.5694 1.74889 61.0734C-1.21111 64.8994 1.7499 80.4254 1.7499 80.4254Z" fill="#346178"/>
<path d="M41.3777 36.3359H25.4747L23.8047 55.3579C23.8047 57.4619 28.1137 59.1679 33.4267 59.1679C38.7417 59.1679 43.0497 57.4619 43.0497 55.3579L41.3777 36.3359Z" fill="#FEE69F"/>
<path d="M51.145 23.6099C51.145 36.1359 43.212 50.2779 33.427 50.2779C23.642 50.2779 15.707 36.1359 15.707 23.6099C15.707 11.0859 23.642 4.92188 33.427 4.92188C43.213 4.92188 51.145 11.0859 51.145 23.6099Z" fill="#FEE69F"/>
<path opacity="0.1" d="M33.4296 50.274C30.2166 50.274 27.2046 48.743 24.6066 46.25L24.5156 47.294C27.1336 49.842 30.1756 51.417 33.4296 51.417C36.6806 51.417 39.7256 49.854 42.3446 47.309L42.2516 46.252C39.6536 48.743 36.6426 50.274 33.4296 50.274Z" fill="black"/>
<path opacity="0.4" d="M15.707 23.6099C15.707 36.1359 23.642 50.2779 33.427 50.2779V4.92188C23.642 4.92188 15.707 11.0859 15.707 23.6099Z" fill="white"/>
<path d="M54.2553 12.5272C48.9183 -2.95781 33.4313 0.91519 33.4313 0.91519C33.4313 0.91519 17.9333 -2.95881 12.5963 12.5272C7.79734 26.4592 15.7633 38.4592 22.1863 43.5102C22.1863 43.5102 19.9223 30.3442 22.7223 20.7332C28.7573 17.4752 33.4313 13.0872 33.4313 13.0872C33.4313 13.0872 38.0943 17.4752 44.1403 20.7332C46.9293 30.3442 44.6653 43.5102 44.6653 43.5102C51.1003 38.4592 59.0543 26.4582 54.2553 12.5272Z" fill="#FDC00F"/>
</svg>
