<svg width="67" height="78" viewBox="0 0 67 78" fill="none" xmlns="http://www.w3.org/2000/svg">
<path d="M42.7186 48.3213L41.3726 33.0703H25.4756L24.1406 48.3223C26.8126 49.3413 29.9986 49.9373 33.4276 49.9373C36.8576 49.9383 40.0456 49.3413 42.7186 48.3213Z" fill="#FEE69F"/>
<path opacity="0.1" d="M42.3406 44.0343L41.3736 33.0703H25.4756L24.5156 44.0353C27.1346 46.5773 30.1776 48.1433 33.4276 48.1433C36.6776 48.1433 39.7226 46.5763 42.3406 44.0343Z" fill="black"/>
<path d="M50.7703 25.1651C49.4653 24.3631 47.5513 25.9071 46.4933 28.6111C45.4373 31.3161 45.6393 34.1571 46.9423 34.9591C48.2473 35.7591 50.1613 34.2151 51.2173 31.5111C52.2753 28.8071 52.0743 25.9661 50.7703 25.1651Z" fill="#FEE69F"/>
<path d="M16.0864 25.1651C17.3924 24.3631 19.3054 25.9071 20.3634 28.6111C21.4194 31.3161 21.2174 34.1571 19.9154 34.9591C18.6094 35.7591 16.6964 34.2151 15.6394 31.5111C14.5824 28.8071 14.7824 25.9661 16.0864 25.1651Z" fill="#FEE69F"/>
<path d="M51.149 20.3276C51.149 32.8536 43.2149 46.9946 33.4299 46.9946C23.6449 46.9946 15.7109 32.8536 15.7109 20.3276C15.7109 7.80462 23.6449 1.64062 33.4299 1.64062C43.2159 1.64062 51.149 7.80462 51.149 20.3276Z" fill="#FEE69F"/>
<path opacity="0.4" d="M15.7109 20.3276C15.7109 32.8536 23.6449 46.9946 33.4299 46.9946V1.64062C23.6449 1.64062 15.7109 7.80462 15.7109 20.3276Z" fill="white"/>
<path d="M65.102 57.7993C62.45 54.3593 51.0221 52.8503 45.7521 52.3133C45.1351 52.2553 44.6091 52.2113 44.1861 52.1763C43.5571 52.1193 43.009 51.5693 42.952 50.9423L42.7211 48.3203C40.0481 49.3403 36.861 49.9363 33.43 49.9363C30.001 49.9363 26.8151 49.3393 24.1431 48.3213L23.9141 50.9423C23.8551 51.5703 23.297 52.1203 22.667 52.1763C22.245 52.2113 21.7201 52.2553 21.1141 52.3133C15.8331 52.8503 4.40506 54.3593 1.75306 57.7993C-1.20694 61.6273 1.75306 77.1483 1.75306 77.1483H65.103C65.103 77.1483 68.072 61.6273 65.102 57.7993Z" fill="#8F6C08"/>
<path d="M26.5859 3.94463C26.5859 5.84763 29.6489 8.53563 33.4299 8.53563C37.2109 8.53563 40.2739 5.84763 40.2739 3.94463C40.2739 2.04263 37.2119 0.890625 33.4319 0.890625C29.6519 0.891625 26.5859 2.04263 26.5859 3.94463Z" fill="white"/>
<path d="M46.8411 11.0927C47.4061 14.9177 49.4011 16.7977 49.8861 18.8177C50.3841 20.8747 50.2621 26.9648 50.2621 26.9648H50.6161C51.0741 24.7368 51.3241 22.4747 51.3241 20.2617C51.3241 14.9947 51.4281 7.78075 47.5861 7.80475C46.6351 7.81075 46.6251 9.63274 46.8411 11.0927Z" fill="white"/>
<path d="M16.9724 18.8177C17.4584 16.7977 19.4524 14.9188 20.0184 11.0928C20.2344 9.63276 20.2244 7.81075 19.2734 7.80475C15.4304 7.78075 15.5354 14.9947 15.5354 20.2617C15.5354 22.4747 15.7854 24.7377 16.2434 26.9647H16.5974C16.5974 26.9647 16.4754 20.8747 16.9724 18.8177Z" fill="white"/>
</svg>
