<svg width="67" height="77" viewBox="0 0 67 77" fill="none" xmlns="http://www.w3.org/2000/svg">
<path d="M65.2437 56.8003C62.5917 53.3603 51.1627 51.8513 45.8937 51.3143C45.2767 51.2563 44.7507 51.2123 44.3277 51.1773C43.6997 51.1203 43.1517 50.5703 43.0937 49.9433L41.5167 32.0703H25.6197L24.0547 49.9433C23.9967 50.5713 23.4377 51.1213 22.8077 51.1773C22.3857 51.2123 21.8597 51.2563 21.2547 51.3143C15.9747 51.8513 4.54568 53.3603 1.89368 56.8003C-1.06632 60.6283 1.89368 76.1493 1.89368 76.1493H65.2437C65.2437 76.1493 68.2137 60.6283 65.2437 56.8003Z" fill="#346178"/>
<path d="M50.911 24.1573C49.606 23.3553 47.6919 24.8993 46.6339 27.6033C45.5779 30.3083 45.78 33.1493 47.083 33.9513C48.388 34.7513 50.3019 33.2073 51.3579 30.5033C52.4149 27.7993 52.214 24.9583 50.911 24.1573Z" fill="#FEE69F"/>
<path d="M16.2276 24.1573C17.5316 23.3553 19.4466 24.8993 20.5036 27.6033C21.5596 30.3083 21.3586 33.1493 20.0546 33.9513C18.7496 34.7513 16.8356 33.2073 15.7796 30.5033C14.7226 27.7993 14.9236 24.9583 16.2276 24.1573Z" fill="#FEE69F"/>
<path d="M51.2896 19.3276C51.2896 31.8536 43.3566 45.9946 33.5706 45.9946C23.7846 45.9946 15.8516 31.8536 15.8516 19.3276C15.8516 6.80462 23.7846 0.640625 33.5706 0.640625C43.3566 0.640625 51.2896 6.80462 51.2896 19.3276Z" fill="#FEE69F"/>
<path opacity="0.4" d="M15.8516 19.3276C15.8516 31.8536 23.7846 45.9946 33.5706 45.9946V0.640625C23.7856 0.640625 15.8516 6.80462 15.8516 19.3276Z" fill="white"/>
<path d="M51.2226 14.7743C50.9076 13.1083 50.4896 11.2923 49.6356 9.51532C48.7916 7.74432 47.6006 5.98631 45.9896 4.53831C44.3946 3.08131 42.4296 1.92833 40.2916 1.18633C39.2206 0.813325 38.1146 0.547317 36.9826 0.353317C36.4126 0.284317 35.8316 0.195317 35.2646 0.146317L33.5926 0.0703125C33.5466 0.0703125 31.8736 0.146317 31.8736 0.146317C31.3076 0.195317 30.7256 0.284317 30.1556 0.353317C29.0236 0.547317 27.9186 0.813325 26.8466 1.18633C24.7096 1.92733 22.7446 3.08131 21.1486 4.53831C19.5376 5.98531 18.3466 7.74332 17.5026 9.51532C16.6486 11.2923 16.2306 13.1083 15.9156 14.7743C15.8116 15.6163 15.7126 16.4233 15.6606 17.1913C15.6536 17.9663 15.6476 18.7003 15.6406 19.3893C15.7656 20.7443 15.8236 21.9303 15.9596 22.9013C16.3316 24.8263 16.5436 25.9263 16.5436 25.9263L18.1406 26.2413C18.1406 26.2413 15.0996 12.0303 23.9476 7.66832C26.8956 6.21432 29.6346 6.43132 31.4296 6.88132C32.6546 7.18632 34.4836 7.18632 35.7086 6.88132C37.5046 6.43132 40.2426 6.21432 43.1906 7.66832C52.0366 12.0303 48.9976 26.2413 48.9976 26.2413L50.5946 25.9263C50.5946 25.9263 50.8066 24.8253 51.1776 22.9013C51.3136 21.9303 51.3716 20.7453 51.4966 19.3893C51.4906 18.7003 51.4836 17.9663 51.4756 17.1913C51.4266 16.4233 51.3266 15.6153 51.2226 14.7743Z" fill="#303030"/>
<path d="M25.169 40.2712C25.169 40.2712 25.189 40.1082 25.23 39.8022C25.269 39.5092 25.401 38.8262 25.633 38.2462C25.881 37.6332 26.228 36.9042 26.793 36.2102C27.345 35.5092 28.072 34.8142 28.965 34.2242C29.858 33.6412 30.916 33.1272 32.119 32.9032C33.324 32.6672 34.624 32.6862 35.928 33.0842C37.192 33.5132 38.432 34.2052 39.429 35.2162C40.454 36.1922 41.284 37.4542 41.708 38.9392C41.804 39.3152 41.888 39.6942 41.92 40.0932C41.927 40.2202 41.949 40.2272 41.945 40.4522L41.948 40.6982C41.947 40.8702 41.964 40.9992 41.927 41.2542C41.84 42.1852 41.562 42.9482 41.098 43.6852C40.178 45.1452 38.73 45.9932 37.383 46.4842C35.999 46.9622 34.681 47.1352 33.364 47.1452C32.861 47.1372 32.111 47.1162 31.529 46.9992C30.927 46.9102 30.343 46.7562 29.794 46.5612C28.69 46.1792 27.714 45.5792 26.977 44.8582C26.235 44.1392 25.749 43.3172 25.494 42.6082C25.25 41.8912 25.182 41.3112 25.17 40.9272C25.169 40.5432 25.168 40.3392 25.168 40.3392L25.169 40.2712ZM27.568 40.3392C27.568 40.3392 27.587 40.4622 27.623 40.6912C27.659 40.9162 27.754 41.2312 27.93 41.5812C28.114 41.9282 28.422 42.2922 28.895 42.6102C29.364 42.9342 30.006 43.2022 30.781 43.3912C31.17 43.4782 31.582 43.5702 32.03 43.6192C32.492 43.6742 32.838 43.7182 33.459 43.7312C34.388 43.7802 35.457 43.6912 36.42 43.4472C37.396 43.2042 38.284 42.7592 38.877 42.1042C39.173 41.8002 39.402 41.3272 39.502 40.9672C39.563 40.8332 39.623 40.2442 39.622 40.1792C39.643 39.9202 39.622 39.6562 39.595 39.3872C39.456 38.3112 38.968 37.2082 38.247 36.2972C37.527 35.3842 36.557 34.6792 35.519 34.2712C34.494 33.8872 33.348 33.7962 32.353 34.0162C31.342 34.2292 30.475 34.7462 29.804 35.3352C28.45 36.5432 27.898 37.9762 27.681 38.8942C27.574 39.4092 27.569 39.6212 27.56 39.9392C27.563 40.2452 27.566 40.4092 27.566 40.4092L27.568 40.3392Z" fill="#303030"/>
<path opacity="0.1" d="M41.5792 42.7076C41.4502 43.0426 41.2922 43.3656 41.0952 43.6806C40.1752 45.1406 38.7272 45.9886 37.3802 46.4796C35.9962 46.9576 34.6782 47.1306 33.3612 47.1406C32.8582 47.1326 32.1082 47.1116 31.5262 46.9946C30.9242 46.9056 30.3402 46.7515 29.7912 46.5565C28.6872 46.1745 27.7112 45.5746 26.9742 44.8536C26.2582 44.1596 25.7842 43.3706 25.5222 42.6776C25.2612 42.4536 25.0042 42.2196 24.7512 41.9776L24.6602 43.0196C24.9432 43.2956 25.2292 43.5686 25.5222 43.8206C25.7842 44.5126 26.2582 45.3016 26.9742 45.9966C27.7112 46.7176 28.6872 47.3176 29.7912 47.6996C30.3402 47.8936 30.9252 48.0486 31.5262 48.1376C32.1092 48.2536 32.8582 48.2766 33.3612 48.2836C34.6782 48.2736 35.9962 48.0996 37.3802 47.6226C38.7272 47.1316 40.1752 46.2836 41.0952 44.8236C41.2932 44.5096 41.4502 44.1856 41.5792 43.8506C41.8862 43.5896 42.1862 43.3076 42.4812 43.0206L42.3882 41.9766C42.1232 42.2306 41.8542 42.4746 41.5792 42.7076Z" fill="black"/>
</svg>
