<svg width="67" height="77" viewBox="0 0 67 77" fill="none" xmlns="http://www.w3.org/2000/svg">
<path d="M2.03505 76.1451H65.39C65.39 76.1451 68.351 60.6191 65.39 56.7921C61.905 52.2881 43.335 51.0781 43.335 51.0781H24.089C24.089 51.0781 5.52005 52.2881 2.03405 56.7921C-0.925954 60.6181 2.03505 76.1451 2.03505 76.1451Z" fill="#FC611F"/>
<path d="M33.7128 51.0781H24.0898C24.0898 51.0781 24.1518 59.6811 33.7128 66.7561C43.2758 59.6811 43.3348 51.0781 43.3348 51.0781H33.7128Z" fill="white"/>
<path d="M51.0546 24.1569C49.7506 23.3559 47.8356 24.8989 46.7796 27.6039C45.7226 30.3089 45.9236 33.1509 47.2276 33.9519C48.5316 34.7519 50.4466 33.2099 51.5026 30.5049C52.5596 27.7989 52.3576 24.9569 51.0546 24.1569Z" fill="#FEE69F"/>
<path d="M16.3725 24.1569C17.6765 23.3559 19.5915 24.8989 20.6485 27.6039C21.7045 30.3089 21.5055 33.1509 20.1995 33.9519C18.8945 34.7519 16.9815 33.2099 15.9245 30.5049C14.8675 27.7989 15.0675 24.9569 16.3725 24.1569Z" fill="#FEE69F"/>
<path d="M41.6648 32.0547H25.7608L24.0898 51.0767C24.0898 53.1807 28.3978 54.8867 33.7128 54.8867C39.0278 54.8867 43.3348 53.1807 43.3348 51.0767L41.6648 32.0547Z" fill="#FEE69F"/>
<path d="M51.4341 19.3218C51.4341 31.8468 43.5011 45.9898 33.7151 45.9898C23.9291 45.9898 15.9961 31.8468 15.9961 19.3218C15.9961 6.79782 23.9291 0.632812 33.7151 0.632812C43.5011 0.632812 51.4341 6.79782 51.4341 19.3218Z" fill="#FEE69F"/>
<path opacity="0.4" d="M33.7141 0.632812C23.9281 0.632812 15.9961 6.79782 15.9961 19.3218C15.9961 31.8468 23.9291 45.9898 33.7141 45.9898V0.632812Z" fill="white"/>
<path opacity="0.1" d="M33.7129 45.9928C30.4989 45.9928 27.4879 44.4608 24.8889 41.9688L24.7969 43.0128C27.4169 45.5608 30.4589 47.1358 33.7129 47.1358C36.9639 47.1358 40.0079 45.5718 42.6279 43.0268L42.5349 41.9698C39.9369 44.4618 36.9259 45.9928 33.7129 45.9928Z" fill="black"/>
<path d="M50.4536 12.2016C50.4536 12.2016 50.4046 12.0366 50.3116 11.7266C50.2026 11.4216 50.1196 10.9516 49.8726 10.3956C49.7576 10.1136 49.6306 9.80162 49.4926 9.46062C49.3276 9.13362 49.1486 8.77862 48.9576 8.40062C48.5536 7.65362 48.0316 6.84162 47.3636 6.02762C46.6816 5.22862 45.8846 4.39962 44.9156 3.67062C43.9706 2.90962 42.8536 2.26063 41.6456 1.72263C40.4406 1.16663 39.1146 0.789625 37.7556 0.515625C36.3866 0.238625 34.9916 0.155625 33.5626 0.140625C32.2076 0.152625 30.7466 0.321625 29.3986 0.584625C28.0396 0.881625 26.7376 1.32562 25.5316 1.87462C24.3416 2.45762 23.2376 3.12262 22.3096 3.90662C21.8276 4.27462 21.4206 4.70561 21.0026 5.08961C20.6316 5.52161 20.2346 5.90261 19.9266 6.33061C19.2726 7.15561 18.7726 7.98262 18.3896 8.73962C18.2076 9.12462 18.0226 9.47462 17.8806 9.81262C17.7496 10.1536 17.6286 10.4676 17.5196 10.7506C17.2896 11.3116 17.2096 11.7876 17.1086 12.0936C17.0226 12.4046 16.9766 12.5716 16.9766 12.5716C17.0886 12.3526 17.2116 12.1416 17.3606 11.9556C17.6186 12.5346 18.0556 13.1736 18.6966 13.8976C18.8136 13.2586 19.0636 12.7406 19.3996 12.2926C19.6706 12.8666 20.1226 13.4976 20.7786 14.2076C20.8806 13.5666 21.1186 13.0426 21.4456 12.5886C21.7286 13.1576 22.1916 13.7756 22.8626 14.4716C22.9516 13.8276 23.1786 13.2996 23.4946 12.8366C23.7906 13.3996 24.2666 14.0076 24.9526 14.6876C25.0276 14.0436 25.2416 13.5086 25.5476 13.0396C25.8546 13.5946 26.3446 14.1936 27.0426 14.8586C27.1026 14.2116 27.3066 13.6726 27.6006 13.1976C27.9206 13.7466 28.4246 14.3346 29.1376 14.9836C29.1846 14.3356 29.3736 13.7926 29.6586 13.3116C29.9896 13.8526 30.5066 14.4296 31.2336 15.0636C31.2676 14.4176 31.4426 13.8666 31.7166 13.3786C32.0596 13.9116 32.5886 14.4786 33.3306 15.0946C33.3486 14.4466 33.5136 13.8946 33.7756 13.4006C34.1306 13.9266 34.6726 14.4806 35.4276 15.0826C35.4316 14.4336 35.5836 13.8786 35.8356 13.3796C36.2036 13.8976 36.7546 14.4416 37.5216 15.0246C37.5116 14.3766 37.6536 13.8176 37.8956 13.3126C38.2726 13.8226 38.8376 14.3506 39.6176 14.9176C39.5936 14.2696 39.7226 13.7086 39.9526 13.1976C40.3426 13.6996 40.9186 14.2166 41.7116 14.7656C41.6726 14.1186 41.7896 13.5536 42.0076 13.0386C42.4086 13.5306 42.9956 14.0356 43.8016 14.5676C43.7486 13.9206 43.8516 13.3546 44.0596 12.8356C44.4706 13.3186 45.0706 13.8116 45.8876 14.3256C45.8206 13.6796 45.9126 13.1116 46.1086 12.5876C46.5296 13.0636 47.1396 13.5406 47.9676 14.0366C47.8866 13.3926 47.9666 12.8226 48.1516 12.2946C48.5836 12.7606 49.2046 13.2246 50.0456 13.7016C49.9496 13.0596 50.0156 12.4866 50.1906 11.9546C50.2696 12.0386 50.3616 12.1196 50.4536 12.2016Z" fill="#8F6C08"/>
</svg>
