<svg width="67" height="77" viewBox="0 0 67 77" fill="none" xmlns="http://www.w3.org/2000/svg">
<path d="M1.60492 76.153H64.9589C64.9589 76.153 67.9209 60.6269 64.9589 56.7999C61.4749 52.2959 42.9059 51.0859 42.9059 51.0859H23.6599C23.6599 51.0859 5.09091 52.2959 1.60391 56.7999C-1.35509 60.6259 1.60492 76.153 1.60492 76.153Z" fill="#FDC00F"/>
<path d="M33.8578 65.6172H32.7148V76.1482H33.8578V65.6172Z" fill="white"/>
<path d="M50.6259 24.1569C49.3219 23.3559 47.4069 24.8989 46.3509 27.6039C45.2919 30.3089 45.4949 33.1509 46.7969 33.9519C48.1039 34.7519 50.0159 33.2099 51.0739 30.5049C52.1309 27.7989 51.9309 24.9569 50.6259 24.1569Z" fill="#FEE69F"/>
<path d="M15.9431 24.1569C17.2471 23.3559 19.1621 24.8989 20.2171 27.6039C21.2741 30.3089 21.0741 33.1509 19.7691 33.9519C18.4651 34.7519 16.5501 33.2099 15.4951 30.5049C14.4381 27.7989 14.6371 24.9569 15.9431 24.1569Z" fill="#FEE69F"/>
<path d="M41.2332 32.0625H25.3292L23.6602 51.0845C23.6602 51.0845 23.7212 59.6875 33.2832 66.7625C42.8462 59.6875 42.9062 51.0845 42.9062 51.0845L41.2332 32.0625Z" fill="#FEE69F"/>
<path opacity="0.1" d="M33.2822 46.0006C30.0672 46.0006 27.0562 44.4686 24.4582 41.9766L24.3672 43.0206C26.9842 45.5686 30.0272 47.1436 33.2822 47.1436C36.5322 47.1436 39.5762 45.5796 42.1962 43.0346L42.1022 41.9776C39.5052 44.4696 36.4942 46.0006 33.2822 46.0006Z" fill="black"/>
<path d="M51.0005 19.3296C51.0005 31.8546 43.0675 45.9976 33.2825 45.9976C23.4965 45.9976 15.5625 31.8546 15.5625 19.3296C15.5625 6.80564 23.4965 0.640625 33.2825 0.640625C43.0675 0.640625 51.0005 6.80564 51.0005 19.3296Z" fill="#FEE69F"/>
<path opacity="0.4" d="M33.2815 0.640625C23.4955 0.640625 15.5625 6.80564 15.5625 19.3296C15.5625 31.8546 23.4955 45.9966 33.2815 45.9976V0.640625Z" fill="white"/>
<path d="M42.9081 51.0859L47.3951 56.5889L44.3961 57.1039L45.6741 59.847L33.2852 66.7639L42.9081 51.0859Z" fill="white"/>
<path d="M23.6609 51.0859L19.1719 56.5889L22.1729 57.1039L20.8949 59.847L33.2839 66.7639L23.6609 51.0859Z" fill="white"/>
<path d="M50.9966 15.1833C50.7206 13.4833 50.3316 11.6273 49.4786 9.81232C48.6636 7.99632 47.4896 6.18132 45.8716 4.68732C44.2706 3.18132 42.2816 1.98731 40.1126 1.22231C37.9426 0.449305 35.6076 0.0883125 33.2826 0.0703125C31.0036 0.0833125 28.5966 0.450313 26.4516 1.22131C24.2816 1.98631 22.2936 3.1803 20.6926 4.6853C19.0766 6.1813 17.8986 7.99531 17.0836 9.81131C16.2326 11.6253 15.8456 13.4843 15.5676 15.1813C15.3396 16.8973 15.2936 18.4663 15.3816 19.8723C15.5276 21.2493 15.5496 22.4563 15.7476 23.4393C16.1466 25.3913 16.3746 26.5073 16.3746 26.5073H17.3416C17.3416 26.5073 15.8486 9.2583 24.9676 5.9893C30.2806 4.0853 33.2816 7.11131 33.2816 7.11131C33.2816 7.11131 36.2856 4.0853 41.5976 5.9893C50.7136 9.2583 49.2206 26.5073 49.2206 26.5073H50.1866C50.1866 26.5073 50.4156 25.3943 50.8146 23.4473C51.0126 22.4743 51.0356 21.2553 51.1796 19.8663C51.2666 18.4543 51.2266 16.9213 50.9966 15.1833Z" fill="#BE900B"/>
<path opacity="0.5" d="M30.2796 25.0524C30.2796 27.6444 28.1766 29.7454 25.5876 29.7454C22.9956 29.7454 20.8906 27.6434 20.8906 25.0524C20.8906 22.4614 22.9956 20.3594 25.5876 20.3594C28.1766 20.3584 30.2796 22.4614 30.2796 25.0524Z" fill="white"/>
<path d="M25.5893 30.3191C22.6853 30.3191 20.3203 27.957 20.3203 25.054C20.3203 22.151 22.6843 19.7891 25.5893 19.7891C28.4903 19.7891 30.8533 22.15 30.8533 25.054C30.8523 27.957 28.4903 30.3191 25.5893 30.3191ZM25.5893 20.933C23.3153 20.933 21.4643 22.7821 21.4643 25.0551C21.4643 27.3261 23.3153 29.1761 25.5893 29.1761C27.8603 29.1761 29.7093 27.3261 29.7093 25.0551C29.7093 22.7811 27.8603 20.933 25.5893 20.933Z" fill="#8FC3D8"/>
<path opacity="0.5" d="M45.675 25.0524C45.675 27.6444 43.5741 29.7454 40.9831 29.7454C38.3921 29.7454 36.2891 27.6434 36.2891 25.0524C36.2891 22.4614 38.3921 20.3594 40.9831 20.3594C43.5741 20.3594 45.675 22.4614 45.675 25.0524Z" fill="white"/>
<path d="M40.9808 30.3191C38.0768 30.3191 35.7148 27.957 35.7148 25.054C35.7148 22.151 38.0758 19.7891 40.9808 19.7891C43.8818 19.7891 46.2448 22.15 46.2448 25.054C46.2448 27.957 43.8828 30.3191 40.9808 30.3191ZM40.9808 20.933C38.7078 20.933 36.8578 22.7821 36.8578 25.0551C36.8578 27.3261 38.7078 29.1761 40.9808 29.1761C43.2518 29.1761 45.1008 27.3261 45.1008 25.0551C45.1008 22.7811 43.2528 20.933 40.9808 20.933Z" fill="#8FC3D8"/>
<path d="M30.4482 24.0328L29.6602 23.2038C30.6432 22.2708 31.9322 21.7578 33.2842 21.7578C34.6372 21.7578 35.9222 22.2708 36.9042 23.2018L36.1162 24.0308C34.5812 22.5728 31.9862 22.5728 30.4482 24.0328Z" fill="#8FC3D8"/>
<path d="M45.662 25.6305C45.401 25.6305 45.167 25.4515 45.104 25.1875C45.035 24.8805 45.225 24.5735 45.532 24.5015L50.487 23.3585C50.798 23.2875 51.101 23.4795 51.174 23.7875C51.244 24.0945 51.053 24.4015 50.745 24.4725L45.79 25.6165C45.747 25.6255 45.705 25.6305 45.662 25.6305Z" fill="#8FC3D8"/>
<path d="M20.8923 25.6149C20.8513 25.6149 20.8084 25.6099 20.7654 25.6009L15.8103 24.4569C15.5013 24.3859 15.3104 24.0779 15.3824 23.7719C15.4524 23.4639 15.7584 23.2719 16.0674 23.3429L21.0224 24.4859C21.3314 24.5559 21.5204 24.8639 21.4514 25.1709C21.3884 25.4369 21.1533 25.6149 20.8923 25.6149Z" fill="#8FC3D8"/>
</svg>
