<svg width="67" height="77" viewBox="0 0 67 77" fill="none" xmlns="http://www.w3.org/2000/svg">
<path d="M55.2357 53.5091C54.8247 53.4261 54.4357 53.3511 54.0457 53.2791C52.4977 52.9951 50.9637 52.7631 49.5627 52.5791C47.7657 52.3411 46.1897 52.1801 45.0707 52.0771C45.5987 52.1261 45.0967 52.0771 44.4767 52.0241C43.8477 51.9701 43.2927 51.4251 43.2367 50.7971L41.6667 32.9141H25.7627L24.1927 50.7971C24.1367 51.4251 23.7047 51.9621 23.2267 52.0011C22.9817 52.0221 22.6907 52.0471 22.3597 52.0761C21.2397 52.1791 19.6647 52.3401 17.8667 52.5781C16.4657 52.7631 14.9317 52.9941 13.3847 53.2781C12.9947 53.3501 12.6057 53.4251 12.2177 53.5051C7.80466 54.3931 3.53466 55.7161 2.03866 57.6501C-0.922344 61.4761 2.03866 77.0031 2.03866 77.0031H65.3937C65.3937 77.0031 68.3547 61.4771 65.3937 57.6501C63.8967 55.7161 59.6267 54.3931 55.2357 53.5091Z" fill="#FEE69F"/>
<path d="M51.0541 25.0084C49.7511 24.2074 47.8351 25.7514 46.7791 28.4554C45.7231 31.1594 45.9231 34.0004 47.2281 34.8024C48.5321 35.6024 50.4471 34.0594 51.5031 31.3544C52.5581 28.6494 52.3581 25.8094 51.0541 25.0084Z" fill="#FEE69F"/>
<path d="M16.372 25.0084C17.677 24.2074 19.591 25.7514 20.648 28.4554C21.705 31.1594 21.504 34.0004 20.2 34.8024C18.895 35.6024 16.982 34.0594 15.925 31.3544C14.867 28.6494 15.068 25.8094 16.372 25.0084Z" fill="#FEE69F"/>
<path opacity="0.1" d="M33.7168 46.8491C30.5028 46.8491 27.4918 45.3181 24.8928 42.8281L24.8008 43.8701C27.4208 46.4181 30.4628 47.9931 33.7168 47.9931C36.9678 47.9931 40.0118 46.4291 42.6318 43.8851L42.5388 42.8281C39.9408 45.3171 36.9298 46.8491 33.7168 46.8491Z" fill="black"/>
<path d="M49.5173 34.8084C49.5173 36.0714 48.4943 37.0945 47.2313 37.0945C45.9683 37.0945 44.9453 36.0714 44.9453 34.8084C44.9453 33.5464 45.9683 32.5234 47.2313 32.5234C48.4933 32.5234 49.5173 33.5464 49.5173 34.8084Z" fill="#FC611F"/>
<path d="M22.4861 34.8084C22.4861 36.0714 21.4621 37.0945 20.2001 37.0945C18.9381 37.0945 17.9141 36.0714 17.9141 34.8084C17.9141 33.5464 18.9371 32.5234 20.2001 32.5234C21.4631 32.5234 22.4861 33.5464 22.4861 34.8084Z" fill="#FC611F"/>
<path d="M51.4341 20.1802C51.4341 32.7062 43.5011 46.8472 33.7151 46.8472C23.9291 46.8472 15.9961 32.7062 15.9961 20.1802C15.9961 7.65718 23.9291 1.49219 33.7151 1.49219C43.5011 1.49219 51.4341 7.65618 51.4341 20.1802Z" fill="#FEE69F"/>
<path opacity="0.4" d="M33.7141 1.49219C23.9281 1.49219 15.9961 7.65618 15.9961 20.1802C15.9961 32.7062 23.9291 46.8472 33.7141 46.8472V1.49219Z" fill="white"/>
<path d="M51.61 17.9157C51.533 17.1557 51.464 16.3487 51.338 15.5177C51.034 13.8707 50.592 12.0867 49.757 10.3277C48.917 8.58173 47.744 6.84573 46.155 5.41273C44.582 3.96973 42.647 2.82071 40.54 2.07471C38.433 1.32371 36.166 0.946724 33.907 0.929724C31.684 0.925724 29.365 1.24972 27.258 1.95472C25.136 2.65272 23.177 3.74972 21.565 5.14872C19.946 6.54072 18.698 8.23172 17.836 9.97172C17.011 11.7277 16.434 13.4757 16.164 15.1337C15.851 16.7827 15.787 18.3217 15.798 19.6757C15.815 21.0437 15.969 22.1917 16.025 23.1607C16.365 25.0667 16.559 26.1567 16.559 26.1567C16.539 24.5707 16.788 17.8497 22.355 17.9237C33.711 18.0737 36.932 12.7257 39.41 10.9987V11.0007C39.41 11.0007 39.639 18.1107 47.871 21.1427C50.493 22.1087 50.777 26.3927 50.785 26.5377C50.785 26.5377 50.989 25.4527 51.345 23.5557C51.456 22.5937 51.54 21.4267 51.636 20.0567C51.627 19.3857 51.619 18.6697 51.61 17.9157Z" fill="#FDC00F"/>
<path d="M65.3933 77.0001C65.3933 77.0001 67.2043 67.5101 66.5783 61.5391C59.8333 64.3991 47.6393 66.3101 33.7163 66.3101C19.7933 66.3101 7.59929 64.3991 0.854292 61.5391C0.228292 67.5101 2.03829 77.0001 2.03829 77.0001H65.3933Z" fill="#FC611F"/>
<path d="M44.4764 52.0234C44.4764 52.0234 44.2554 52.3554 43.8044 52.8874C43.3514 53.4154 42.6694 54.1474 41.7424 54.9124C41.2824 55.2994 40.7654 55.7044 40.1784 56.0764C39.5984 56.4604 38.9624 56.8434 38.2574 57.1604C37.5584 57.4854 36.7994 57.7774 35.9934 57.9854C35.5844 58.0714 35.1684 58.1594 34.7444 58.2134C34.3004 58.2314 33.9084 58.3004 33.4174 58.2674C32.7064 58.2414 31.6964 58.1094 30.9404 57.8704C30.5374 57.7724 30.1554 57.6374 29.7864 57.4864C29.4094 57.3524 29.0574 57.1854 28.7084 57.0264C28.0084 56.7134 27.3764 56.3364 26.7914 55.9664C26.2024 55.6034 25.6764 55.2164 25.2074 54.8444C23.3154 53.3654 22.3594 52.0734 22.3594 52.0734C22.3594 52.0734 23.7544 52.8484 25.8194 53.8724C26.8584 54.3714 28.0694 54.9294 29.3834 55.3974C30.0374 55.6374 30.7264 55.8354 31.4174 55.9884C31.7704 56.0824 32.1044 56.1274 32.4264 56.1744C32.7264 56.2444 33.1474 56.2454 33.5304 56.2704C33.8184 56.3024 34.2034 56.2464 34.5354 56.2424C34.8804 56.1974 35.2274 56.1514 35.5714 56.0944C36.2554 55.9394 36.9414 55.7794 37.5894 55.5344C38.2354 55.2944 38.8694 55.0524 39.4554 54.7764C40.0404 54.5034 40.5984 54.2314 41.1054 53.9634C43.1294 52.8824 44.4764 52.0234 44.4764 52.0234Z" fill="white"/>
</svg>
