<svg width="67" height="79" viewBox="0 0 67 79" fill="none" xmlns="http://www.w3.org/2000/svg">
<path d="M43.1798 53.3984L33.2868 57.2404L23.3908 53.3984C22.7418 53.4484 21.4158 53.5534 20.9648 53.5984L24.3688 78.4304H42.1989L45.6028 53.5984C45.1528 53.5534 43.8318 53.4484 43.1798 53.3984Z" fill="white"/>
<path d="M43.1815 53.3997C42.9555 53.3817 42.8085 53.3708 42.8085 53.3708L41.2395 34.3438H25.3355L23.7675 53.3708C23.7675 53.3708 23.6205 53.3817 23.3945 53.3997L33.2905 57.2418L43.1815 53.3997Z" fill="#FEE69F"/>
<path d="M50.6337 26.4382C49.3267 25.6372 47.4147 27.1802 46.3567 29.8852C45.3007 32.5902 45.5027 35.4312 46.8047 36.2332C48.1097 37.0332 50.0237 35.4892 51.0797 32.7852C52.1377 30.0792 51.9377 27.2382 50.6337 26.4382Z" fill="#FEE69F"/>
<path d="M15.946 26.4382C17.25 25.6372 19.1651 27.1802 20.2231 29.8852C21.2781 32.5902 21.078 35.4312 19.773 36.2332C18.468 37.0332 16.555 35.4892 15.498 32.7852C14.441 30.0792 14.643 27.2382 15.946 26.4382Z" fill="#FEE69F"/>
<path d="M51.0044 21.6099C51.0044 34.1359 43.0714 48.2779 33.2864 48.2779C23.5004 48.2779 15.5664 34.1359 15.5664 21.6099C15.5664 9.08588 23.5004 2.92188 33.2864 2.92188C43.0714 2.92188 51.0044 9.08588 51.0044 21.6099Z" fill="#FEE69F"/>
<path opacity="0.4" d="M33.2854 2.92188C23.4994 2.92188 15.5664 9.08688 15.5664 21.6099C15.5664 34.1349 23.4994 48.2769 33.2854 48.2779V2.92188Z" fill="white"/>
<path opacity="0.1" d="M33.2851 48.274C30.0731 48.274 27.0611 46.743 24.4631 44.25L24.3711 45.294C26.9901 47.842 30.0321 49.417 33.2851 49.417C36.5371 49.417 39.5811 47.854 42.1991 45.309L42.1081 44.252C39.5111 46.743 36.4991 48.274 33.2851 48.274Z" fill="black"/>
<path d="M20.9674 53.5938L24.3714 78.4258H1.60941C1.60941 78.4258 -1.35259 62.8997 1.60941 59.0737C4.26841 55.6397 15.6884 54.1217 20.9674 53.5938ZM64.9644 59.0747C62.3064 55.6397 50.8814 54.1217 45.6054 53.5947L42.2014 78.4268H64.9654C64.9654 78.4268 67.9264 62.8997 64.9644 59.0747Z" fill="#303030"/>
<path d="M47.8461 78.4258L56.0801 61.7298H53.9711L55.8551 59.0768L48.0741 53.8678C47.1661 53.7578 46.3261 53.6657 45.6071 53.5938L42.2031 78.4258H47.8461Z" fill="#595959"/>
<path d="M20.9691 53.5938C20.2501 53.6657 19.4111 53.7578 18.5021 53.8678L10.7211 59.0768L12.6051 61.7298H10.4961L18.7301 78.4258H24.3741L20.9691 53.5938Z" fill="#595959"/>
<path d="M52.0832 16.8606C51.8212 15.0966 51.4482 13.1466 50.5552 11.2126C49.6902 9.28762 48.4332 7.33963 46.6952 5.72863C44.9712 4.11463 42.8482 2.78163 40.5202 1.98563C39.3602 1.57663 38.1622 1.28763 36.9492 1.07763C36.3422 1.00163 35.7332 0.906624 35.1212 0.850624L33.2022 0.765625L31.5292 0.847626C30.9312 0.897626 30.2652 0.995626 29.6402 1.07663C28.4062 1.28963 27.2242 1.57663 26.0562 1.98563C23.7282 2.78163 21.6082 4.11463 19.8842 5.72863C18.1432 7.33963 16.8892 9.28762 16.0202 11.2126C15.1292 13.1456 14.7562 15.0956 14.4942 16.8606C14.4212 17.7486 14.3422 18.5976 14.3242 19.4006C14.3512 20.2216 14.3762 21.0006 14.4002 21.7316C14.5762 23.0896 14.7132 24.2556 14.9092 25.2436C15.3952 27.2386 15.7062 28.3336 15.7062 28.3336L16.8272 28.1046C16.8272 28.1046 16.7912 26.9936 16.6782 25.1266C16.6552 24.1746 16.7412 22.9636 16.7482 21.6066C16.8222 20.9776 16.9022 20.3086 16.9842 19.6046C17.1002 18.9466 17.2302 18.2596 17.3732 17.5566C19.5502 12.6966 23.9002 8.11763 31.2202 10.9566C32.3972 11.4136 34.1842 11.4136 35.3612 10.9566C42.6812 8.11563 47.0352 12.7006 49.2092 17.5636C49.3482 18.2476 49.4752 18.8966 49.5922 19.5586C49.6762 20.3006 49.7542 21.0046 49.8302 21.6656C49.8342 22.9536 49.9322 24.0826 49.9122 25.0496C49.7902 27.0086 49.7492 28.1326 49.7492 28.1326L50.8792 28.3076C50.8792 28.3076 51.1832 27.2256 51.6632 25.3226C51.8582 24.3506 52.0042 23.1006 52.1822 21.6736C52.2052 20.9756 52.2322 20.2326 52.2592 19.4486C52.2402 18.6536 52.1602 17.7616 52.0832 16.8606Z" fill="#303030"/>
<path d="M33.2891 36.2695C33.2891 36.2695 33.4701 36.1835 33.7621 36.0975C34.0551 36.0075 34.4561 35.9195 34.9141 35.8705C35.8311 35.7775 36.9381 35.9255 37.9361 36.3355C38.9361 36.7465 39.8261 37.4215 40.4071 38.1375C40.6971 38.4955 40.9211 38.8435 41.0631 39.1145C41.2081 39.3825 41.2751 39.5725 41.2751 39.5725C41.2751 39.5725 41.0941 39.6585 40.8021 39.7455C40.5101 39.8355 40.1051 39.9265 39.6481 39.9745C38.7311 40.0705 37.6261 39.9195 36.6281 39.5045C35.6301 39.0905 34.7391 38.4125 34.1581 37.6995C33.8661 37.3415 33.6451 36.9955 33.5001 36.7255C33.3561 36.4575 33.2891 36.2695 33.2891 36.2695Z" fill="#303030"/>
<path d="M33.2878 36.2699C33.2878 36.2699 33.2208 36.4579 33.0748 36.7259C32.9298 36.9959 32.7088 37.3419 32.4168 37.6999C31.8368 38.4129 30.9458 39.0899 29.9478 39.5049C28.9498 39.9199 27.8448 40.0699 26.9268 39.9749C26.4698 39.9269 26.0658 39.8369 25.7738 39.7459C25.4818 39.6589 25.3008 39.5729 25.3008 39.5729C25.3008 39.5729 25.3658 39.3839 25.5128 39.1149C25.6558 38.8439 25.8778 38.4969 26.1688 38.1379C26.7478 37.4229 27.6398 36.7469 28.6398 36.3359C29.6368 35.9259 30.7438 35.7769 31.6618 35.8709C32.1188 35.9189 32.5198 36.0069 32.8128 36.0979C33.1058 36.1839 33.2878 36.2699 33.2878 36.2699Z" fill="#303030"/>
<path d="M45.4811 53.5874C44.9551 53.5384 43.7861 53.4454 43.1821 53.3984L33.2891 57.2404L35.5721 63.2444L44.9501 58.3834L45.4811 53.5874Z" fill="white"/>
<path d="M21.0938 53.5874C21.6227 53.5384 22.7898 53.4454 23.3958 53.3984L33.2888 57.2404L31.0027 63.2444L21.6258 58.3834L21.0938 53.5874Z" fill="white"/>
<path d="M45.4771 59.4002L35.7711 63.6302L35.3031 63.8342L35.1681 63.3992L33.2891 57.2422L35.9761 63.0922L35.3731 62.8622L44.4251 57.3712L45.4771 59.4002Z" fill="#BFBFBF"/>
<path d="M33.2879 57.2422L31.4079 63.4002L31.2769 63.8312L30.8079 63.6342L21.1289 59.5682L22.1559 57.5262L31.1979 62.8582L30.5959 63.0912L33.2879 57.2422Z" fill="#BFBFBF"/>
<path d="M21.0938 53.5874C21.6227 53.5384 22.7898 53.4454 23.3958 53.3984L33.2888 57.2404L31.0027 63.2444L21.6258 58.3834L21.0938 53.5874Z" fill="white"/>
<path d="M45.606 53.5938L54.243 59.3717L51.756 62.8717H54.243L46.571 78.4258H42.2021L45.606 53.5938ZM20.9691 53.5938L12.332 59.3717L14.8181 62.8717H12.332L20.0041 78.4258H24.373L20.9691 53.5938Z" fill="#303030"/>
<path d="M45.4811 53.5874C44.9551 53.5384 43.7861 53.4454 43.1821 53.3984L33.2891 57.2404L35.5721 63.2444L44.9501 58.3834L45.4811 53.5874Z" fill="white"/>
<path d="M33.2897 57.2422L33.8607 78.4322H32.7188L33.2897 57.2422Z" fill="#BFBFBF"/>
</svg>
