<svg width="67" height="77" viewBox="0 0 67 77" fill="none" xmlns="http://www.w3.org/2000/svg">
<path d="M51.6551 19.4688H33.8251H15.9961C15.9961 19.4688 12.4491 34.5398 15.2471 39.2048C18.0441 43.8678 33.8251 40.2018 33.8251 40.2018C33.8251 40.2018 49.6061 43.8678 52.4051 39.2048C55.2011 34.5408 51.6551 19.4688 51.6551 19.4688Z" fill="#FDC00F"/>
<path d="M42.0314 60.7331C42.1494 60.4341 42.2594 60.1461 42.3694 59.8581C42.5974 59.2621 42.8124 58.6831 43.0094 58.1331C43.0194 58.1051 43.0304 58.0771 43.0394 58.0491C44.1424 54.9621 44.7664 52.6521 45.0704 51.3671C45.5984 51.4151 45.0964 51.3671 44.4764 51.3131C43.8474 51.2601 43.2924 50.7151 43.2364 50.0871L41.6664 32.2031H25.7624L24.1924 50.0871C24.1364 50.7151 23.7044 51.2521 23.2264 51.2911C22.9814 51.3111 22.6904 51.3351 22.3594 51.3661C22.6664 52.6581 23.2954 54.9871 24.4074 58.0961C24.6094 58.6601 24.8314 59.2571 25.0644 59.8701C25.1724 60.1541 25.2824 60.4371 25.3984 60.7331C25.4824 60.9511 25.5724 61.1741 25.6624 61.3971C25.8944 61.9711 26.1314 62.5521 26.3904 63.1601C28.9384 69.1341 31.7714 74.1441 33.0394 76.2921H34.3924C35.6594 74.1451 38.4924 69.1341 41.0404 63.1601C41.2994 62.5521 41.5364 61.9691 41.7684 61.3971C41.8574 61.1731 41.9454 60.9511 42.0314 60.7331Z" fill="#FEE69F"/>
<path d="M51.0541 24.305C49.7511 23.505 47.8351 25.047 46.7791 27.752C45.7231 30.456 45.9231 33.298 47.2281 34.099C48.5321 34.899 50.4471 33.355 51.5031 30.651C52.5581 27.947 52.3581 25.105 51.0541 24.305Z" fill="#FEE69F"/>
<path d="M16.372 24.305C17.677 23.505 19.591 25.047 20.648 27.752C21.705 30.456 21.504 33.298 20.2 34.099C18.895 34.899 16.982 33.355 15.925 30.651C14.867 27.947 15.068 25.105 16.372 24.305Z" fill="#FEE69F"/>
<path opacity="0.1" d="M33.7109 46.1402C30.4979 46.1402 27.4869 44.6092 24.8889 42.1172L24.7969 43.1602C27.4169 45.7082 30.4579 47.2832 33.7109 47.2832C36.9629 47.2832 40.0079 45.7202 42.6269 43.1752L42.5339 42.1182C39.9359 44.6092 36.9239 46.1402 33.7109 46.1402Z" fill="black"/>
<path d="M26.388 63.1612C23.954 57.4542 22.812 53.2882 22.357 51.3672C21.237 51.4692 19.662 51.6312 17.864 51.8692C16.463 52.0552 14.929 52.2862 13.382 52.5702L12.207 60.4332H16.052L13.586 64.1072L22.087 76.2932H33.038C31.769 74.1452 28.936 69.1342 26.388 63.1612Z" fill="#346178"/>
<path d="M53.8416 64.1062L51.3746 60.4322H55.2196L54.0446 52.5692C52.4966 52.2842 50.9626 52.0532 49.5616 51.8682C47.7646 51.6302 46.1886 51.4692 45.0696 51.3672C44.6146 53.2872 43.4726 57.4532 41.0386 63.1602C38.4906 69.1342 35.6566 74.1442 34.3906 76.2922H45.3426L53.8416 64.1062Z" fill="#346178"/>
<path d="M16.0507 60.4333H12.2058L13.3808 52.5703C8.59375 53.4483 3.66475 54.8333 2.03475 56.9413C-0.92625 60.7673 2.03475 76.2933 2.03475 76.2933H22.0847L13.5837 64.1073L16.0507 60.4333Z" fill="#346178"/>
<path d="M65.3888 56.9413C63.7588 54.8343 58.8298 53.4493 54.0428 52.5703L55.2178 60.4333H51.3728L53.8398 64.1073L45.3398 76.2933H65.3888C65.3888 76.2933 68.3498 60.7673 65.3888 56.9413Z" fill="#346178"/>
<path d="M13.5849 64.1073L16.0509 60.4333H12.2059L13.3809 52.5703C12.9849 52.6433 12.5879 52.7213 12.1909 52.8003L10.8789 61.5763H13.9059L12.1989 64.1193L20.6909 76.2933H22.0839L13.5849 64.1073Z" fill="#27495A"/>
<path d="M46.7338 76.2933L55.2258 64.1193L53.5178 61.5763H56.5458L55.2328 52.8003C54.8368 52.7213 54.4398 52.6433 54.0428 52.5703L55.2178 60.4333H51.3728L53.8398 64.1073L45.3398 76.2933H46.7338Z" fill="#27495A"/>
<path d="M49.5134 34.0985C49.5134 35.3605 48.4904 36.3845 47.2274 36.3845C45.9644 36.3845 44.9414 35.3605 44.9414 34.0985C44.9414 32.8365 45.9644 31.8125 47.2274 31.8125C48.4894 31.8135 49.5134 32.8365 49.5134 34.0985Z" fill="#346178"/>
<path d="M22.4822 34.0985C22.4822 35.3605 21.4582 36.3845 20.1962 36.3845C18.9342 36.3845 17.9102 35.3605 17.9102 34.0985C17.9102 32.8365 18.9332 31.8125 20.1962 31.8125C21.4592 31.8125 22.4822 32.8365 22.4822 34.0985Z" fill="#346178"/>
<path d="M51.4302 19.4693C51.4302 31.9953 43.4972 46.1363 33.7112 46.1363C23.9252 46.1363 15.9922 31.9943 15.9922 19.4693C15.9922 6.94625 23.9252 0.78125 33.7112 0.78125C43.4972 0.78125 51.4302 6.94625 51.4302 19.4693Z" fill="#FEE69F"/>
<path opacity="0.4" d="M15.9961 19.4702C15.9961 31.9962 23.9291 46.1373 33.7151 46.1373V0.78125C23.9281 0.78225 15.9961 6.94725 15.9961 19.4702Z" fill="white"/>
<path d="M30.5091 12.5413C30.5091 12.5413 32.3791 17.2073 51.3431 17.2223C50.4451 6.20826 42.8951 0.78125 33.7151 0.78125C23.9291 0.78125 15.9961 6.94625 15.9961 19.4693C23.5711 19.4693 28.0561 15.7343 30.5091 12.5413Z" fill="#FDC00F"/>
</svg>
