<svg width="67" height="84" viewBox="0 0 67 84" fill="none" xmlns="http://www.w3.org/2000/svg">
<path d="M44.1821 58.3209C43.5531 58.2629 43.0051 57.7149 42.9481 57.0869L41.3711 39.2109H25.4741L23.8051 58.2289C23.7941 58.2289 21.1101 58.3999 17.5781 58.8689L18.8691 67.0519C22.8811 69.5209 27.9331 71.1439 33.4291 71.1439C38.9141 71.1439 43.9661 69.5209 47.9781 67.0519L49.2691 58.8689C47.1311 58.5829 45.3031 58.4119 44.1821 58.3209Z" fill="#FEE69F"/>
<path d="M61.6358 27.6181C61.6358 24.7871 60.2528 22.2841 58.1328 20.7271C58.2718 20.1961 58.3548 19.6411 58.3548 19.0671C58.3548 15.5241 55.5378 12.6461 52.0218 12.5321C51.6578 10.0201 49.6748 8.05307 47.1558 7.71007C45.6448 4.52407 42.4088 2.31607 38.6488 2.31607C37.2618 2.31607 35.9518 2.62307 34.7668 3.16107C32.9108 1.23907 30.3118 0.0390625 27.4288 0.0390625C23.2808 0.0390625 19.7168 2.51907 18.1198 6.07407C15.1638 6.72007 12.9478 9.34907 12.9478 12.4991C12.9478 12.6131 12.9598 12.7231 12.9658 12.8341C10.3258 13.6771 8.41382 16.1481 8.41382 19.0681C8.41382 19.6421 8.49481 20.1971 8.63481 20.7281C6.51581 22.2851 5.13281 24.7881 5.13281 27.6191C5.13281 30.9701 7.06582 33.8621 9.87282 35.2651C9.82782 35.5721 9.79782 35.8821 9.79782 36.2011C9.79782 39.3221 11.9888 41.9271 14.9158 42.5721C14.8828 42.8191 14.8398 43.0651 14.8398 43.3221C14.8398 46.4331 17.3628 48.9561 20.4758 48.9561C23.5868 48.9561 26.1108 46.4341 26.1108 43.3221C26.1108 40.9521 24.6438 38.9321 22.5728 38.0981C22.7548 37.4971 22.8558 36.8621 22.8558 36.2011C22.8558 34.5041 22.2018 32.9621 21.1398 31.8021C21.8028 30.6231 22.1868 29.2701 22.2238 27.8301C23.4568 27.4961 24.9138 27.2111 26.6558 27.0271C35.3578 26.1031 39.3838 21.1571 39.3838 21.1571C39.3838 21.1571 40.7898 24.0731 44.5668 27.1881C44.5598 27.3331 44.5318 27.4721 44.5318 27.6181C44.5318 29.1381 44.9328 30.5631 45.6288 31.8011C44.5678 32.9621 43.9138 34.5031 43.9138 36.2001C43.9138 36.8611 44.0148 37.4971 44.1958 38.0971C42.1248 38.9311 40.6578 40.9511 40.6578 43.3211C40.6578 46.4321 43.1818 48.9551 46.2928 48.9551C49.4048 48.9551 51.9288 46.4331 51.9288 43.3211C51.9288 43.0641 51.8858 42.8181 51.8528 42.5711C54.7798 41.9251 56.9708 39.3211 56.9708 36.2001C56.9708 35.8811 56.9418 35.5711 56.8958 35.2641C59.7018 33.8611 61.6358 30.9691 61.6358 27.6181Z" fill="#3F3004"/>
<path opacity="0.1" d="M33.4257 53.1402C30.2117 53.1402 27.2007 51.6092 24.6037 49.1172L24.5117 50.1612C27.1297 52.7092 30.1717 54.2832 33.4257 54.2832C36.6767 54.2832 39.7217 52.7192 42.3397 50.1752L42.2477 49.1182C39.6487 51.6092 36.6387 53.1402 33.4257 53.1402Z" fill="black"/>
<path d="M50.7657 31.305C49.4617 30.505 47.5467 32.047 46.4907 34.752C45.4327 37.456 45.6357 40.298 46.9377 41.1C48.2447 41.9 50.1567 40.356 51.2147 37.652C52.2697 34.947 52.0697 32.106 50.7657 31.305Z" fill="#FEE69F"/>
<path d="M16.0835 31.305C17.3885 30.505 19.3025 32.047 20.3585 34.752C21.4155 37.456 21.2135 40.298 19.9105 41.1C18.6065 41.9 16.6915 40.356 15.6365 37.652C14.5785 34.947 14.7775 32.106 16.0835 31.305Z" fill="#FEE69F"/>
<path d="M47.7001 45.2361C46.1641 45.2361 44.9141 43.9861 44.9141 42.4501C44.9141 40.9141 46.1641 39.6641 47.7001 39.6641C49.2361 39.6641 50.4851 40.9131 50.4851 42.4501C50.4851 43.9871 49.2361 45.2361 47.7001 45.2361ZM47.7001 40.6651C46.7151 40.6651 45.9141 41.4661 45.9141 42.4511C45.9141 43.4351 46.7151 44.2371 47.7001 44.2371C48.6841 44.2371 49.4851 43.4361 49.4851 42.4511C49.4851 41.4661 48.6841 40.6651 47.7001 40.6651Z" fill="#FDC00F"/>
<path d="M19.1454 45.2361C17.6094 45.2361 16.3594 43.9871 16.3594 42.4501C16.3594 40.9141 17.6094 39.6641 19.1454 39.6641C20.6814 39.6641 21.9304 40.9141 21.9304 42.4501C21.9314 43.9871 20.6824 45.2361 19.1454 45.2361ZM19.1454 40.6651C18.1604 40.6651 17.3594 41.4661 17.3594 42.4511C17.3594 43.4351 18.1604 44.2371 19.1454 44.2371C20.1294 44.2371 20.9304 43.4361 20.9304 42.4511C20.9314 41.4661 20.1304 40.6651 19.1454 40.6651Z" fill="#FDC00F"/>
<path d="M39.383 21.1562C39.383 21.1562 35.357 26.1012 26.655 27.0262C17.952 27.9502 16.085 31.3032 16.085 31.3032L16.082 31.3012C17.759 42.3682 24.887 53.1402 33.428 53.1402C42.023 53.1402 49.18 42.2292 50.797 31.0882C42.232 27.1002 39.383 21.1562 39.383 21.1562Z" fill="#FEE69F"/>
<path opacity="0.4" d="M33.428 25.2734C31.608 26.0674 29.358 26.7434 26.655 27.0304C17.952 27.9544 16.085 31.3074 16.085 31.3074L16.082 31.3054C17.759 42.3724 24.887 53.1444 33.428 53.1444H33.429V25.2734H33.428Z" fill="white"/>
<path d="M65.099 63.9422C62.95 61.1532 55.007 59.6342 49.27 58.8672L47.9789 67.0502L45.418 83.2902H49.418H65.099C65.099 83.2902 68.069 67.7702 65.099 63.9422Z" fill="#FC611F"/>
<path d="M17.5781 58.8672C11.8411 59.6342 3.91015 61.1532 1.74915 63.9422C-1.21085 67.7702 1.74915 83.2902 1.74915 83.2902H17.4301H21.4421L18.8702 67.0502L17.5781 58.8672Z" fill="#FC611F"/>
<path d="M45.4191 83.2869L47.9801 67.0469C43.9681 69.5159 38.9161 71.1389 33.4311 71.1389C27.9341 71.1389 22.8821 69.5159 18.8711 67.0469L21.4431 83.2869H45.4191Z" fill="#FDC00F"/>
</svg>
