<svg width="67" height="84" viewBox="0 0 67 84" fill="none" xmlns="http://www.w3.org/2000/svg">
<path d="M43.0936 57.0861L41.5237 39.2031H25.6196L23.9487 58.2241C23.9467 58.2241 21.2507 58.4011 17.7227 58.8671C21.0107 63.7641 26.8697 67.7091 33.5717 67.7091C40.2727 67.7091 46.1317 63.7651 49.4207 58.8671C47.2807 58.5851 45.4457 58.4091 44.3347 58.3131C43.7037 58.2601 43.1496 57.7151 43.0936 57.0861Z" fill="#FEE69F"/>
<path d="M50.9145 31.3054C49.6105 30.5044 47.6955 32.0474 46.6385 34.7514C45.5825 37.4564 45.7825 40.2984 47.0875 41.0994C48.3925 41.8984 50.3065 40.3554 51.3625 37.6504C52.4185 34.9474 52.2185 32.1054 50.9145 31.3054Z" fill="#FEE69F"/>
<path d="M16.2313 31.3054C17.5353 30.5044 19.4503 32.0474 20.5073 34.7514C21.5633 37.4564 21.3633 40.2984 20.0593 41.0994C18.7543 41.8984 16.8403 40.3554 15.7843 37.6504C14.7263 34.9474 14.9273 32.1054 16.2313 31.3054Z" fill="#FEE69F"/>
<path opacity="0.1" d="M33.5703 53.1402C30.3573 53.1402 27.3452 51.6092 24.7472 49.1172L24.6562 50.1602C27.2762 52.7072 30.3173 54.2832 33.5703 54.2832C36.8213 54.2832 39.8672 52.7182 42.4852 50.1742L42.3922 49.1182C39.7942 51.6092 36.7833 53.1402 33.5703 53.1402Z" fill="black"/>
<path d="M65.2491 63.9392C63.0921 61.1512 55.1561 59.6262 49.4201 58.8672C46.1311 63.7642 40.2731 67.7092 33.5711 67.7092C26.8691 67.7092 21.0101 63.7652 17.7221 58.8672C11.9861 59.6262 4.05113 61.1512 1.89412 63.9392C-1.06687 67.7652 1.89412 83.2922 1.89412 83.2922H65.2481C65.2481 83.2922 68.2101 67.7652 65.2491 63.9392Z" fill="#FDC00F"/>
<path d="M47.9617 38.8125L49.6757 43.8105C50.0007 44.7565 49.4967 45.7885 48.5487 46.1115C47.6027 46.4375 46.5717 45.9325 46.2467 44.9865C46.1107 44.5895 46.1207 44.1775 46.2467 43.8105L47.9617 38.8125Z" fill="#FDC00F"/>
<path d="M19.1805 38.8125L20.8945 43.8105C21.2195 44.7565 20.7145 45.7885 19.7685 46.1115C18.8205 46.4375 17.7905 45.9325 17.4655 44.9865C17.3295 44.5895 17.3395 44.1775 17.4655 43.8105L19.1805 38.8125Z" fill="#FDC00F"/>
<path d="M51.2896 26.4771C51.2896 39.0021 43.3566 53.1441 33.5706 53.1441C23.7846 53.1441 15.8516 39.0011 15.8516 26.4771C15.8516 13.9531 23.7846 7.78906 33.5706 7.78906C43.3566 7.78906 51.2896 13.9521 51.2896 26.4771Z" fill="#FEE69F"/>
<path opacity="0.4" d="M15.8516 26.4702C15.8516 38.9952 23.7846 53.1373 33.5706 53.1373V7.78125C23.7856 7.78225 15.8516 13.9452 15.8516 26.4702Z" fill="white"/>
<path d="M42.4852 6.45782C42.4852 9.81382 38.4943 12.5328 33.5703 12.5328C28.6473 12.5328 24.6562 9.81382 24.6562 6.45782C24.6562 3.10282 28.6473 0.382813 33.5703 0.382813C38.4943 0.382812 42.4852 3.10282 42.4852 6.45782Z" fill="white"/>
<path d="M42.4852 11.5662C42.4852 14.9222 38.4943 17.6422 33.5703 17.6422C28.6473 17.6422 24.6562 14.9222 24.6562 11.5662C24.6562 8.21119 28.6473 5.49219 33.5703 5.49219C38.4943 5.49219 42.4852 8.21119 42.4852 11.5662Z" fill="#FDC00F"/>
<path d="M33.5706 7.78906C23.7846 7.78906 15.8516 13.9521 15.8516 26.4771C15.8516 28.0711 15.9806 29.6891 16.2256 31.3031L16.2276 31.3071C16.2276 31.3071 18.0946 27.9551 26.7976 27.0301C35.4996 26.1061 39.5266 21.1611 39.5266 21.1611C39.5266 21.1611 42.3776 27.1081 50.9446 31.0951C51.1696 29.5501 51.2886 28.0011 51.2886 26.4761C51.2896 13.9521 43.3566 7.78906 33.5706 7.78906Z" fill="white"/>
</svg>
