<svg width="67" height="88" viewBox="0 0 67 88" fill="none" xmlns="http://www.w3.org/2000/svg">
<path d="M54.8075 64.5091C54.3945 64.4261 54.0055 64.3511 53.6175 64.2791C52.0685 63.9951 50.5355 63.7631 49.1345 63.5791C47.3365 63.3411 45.7615 63.1801 44.6405 63.0771C45.1695 63.1261 44.6665 63.0771 44.0465 63.0241C43.4195 62.9701 42.8625 62.4251 42.8075 61.7971L41.2385 43.9141H25.3326L23.7645 61.7971C23.7085 62.4251 23.2756 62.9621 22.7976 63.0011C22.5526 63.0221 22.2625 63.0471 21.9295 63.0761C20.8115 63.1791 19.2355 63.3401 17.4385 63.5781C16.0375 63.7631 14.5035 63.9941 12.9545 64.2781C12.5655 64.3501 12.1775 64.4251 11.7865 64.5051C7.37653 65.3931 3.10352 66.7161 1.60852 68.6501C-1.35148 72.4761 1.60852 88.0031 1.60852 88.0031H64.9655C64.9655 88.0031 67.9255 72.4771 64.9655 68.6501C63.4675 66.7161 59.1945 65.3931 54.8075 64.5091Z" fill="#FEE69F"/>
<path d="M50.6259 36.0162C49.3219 35.2152 47.4069 36.7592 46.3509 39.4632C45.2919 42.1672 45.4949 45.0082 46.7969 45.8102C48.1039 46.6102 50.0159 45.0672 51.0739 42.3622C52.1309 39.6572 51.9309 36.8172 50.6259 36.0162Z" fill="#FEE69F"/>
<path d="M15.9431 36.0162C17.2471 35.2152 19.1621 36.7592 20.2171 39.4632C21.2741 42.1672 21.0741 45.0082 19.7691 45.8102C18.4651 46.6102 16.5501 45.0672 15.4951 42.3622C14.4381 39.6572 14.6371 36.8172 15.9431 36.0162Z" fill="#FEE69F"/>
<path opacity="0.1" d="M33.2822 57.8491C30.0672 57.8491 27.0562 56.3181 24.4582 53.8281L24.3672 54.8701C26.9872 57.4181 30.0272 58.9931 33.2822 58.9931C36.5322 58.9931 39.5782 57.4291 42.1962 54.8851L42.1022 53.8281C39.5052 56.3171 36.4942 57.8491 33.2822 57.8491Z" fill="black"/>
<path d="M49.0837 45.8084C49.0837 47.0714 48.0617 48.0945 46.7977 48.0945C45.5367 48.0945 44.5117 47.0714 44.5117 45.8084C44.5117 44.5464 45.5367 43.5234 46.7977 43.5234C48.0617 43.5234 49.0837 44.5464 49.0837 45.8084Z" fill="#8FC3D8"/>
<path d="M22.0564 45.8084C22.0564 47.0714 21.0344 48.0945 19.7704 48.0945C18.5094 48.0945 17.4844 47.0714 17.4844 45.8084C17.4844 44.5464 18.5094 43.5234 19.7704 43.5234C21.0334 43.5234 22.0564 44.5464 22.0564 45.8084Z" fill="#8FC3D8"/>
<path d="M51.0005 31.1802C51.0005 43.7062 43.0675 57.8472 33.2825 57.8472C23.4965 57.8472 15.5625 43.7062 15.5625 31.1802C15.5625 18.6572 23.4965 12.4922 33.2825 12.4922C43.0675 12.4922 51.0005 18.6562 51.0005 31.1802Z" fill="#FEE69F"/>
<path opacity="0.4" d="M33.2815 12.4922C23.4955 12.4922 15.5625 18.6562 15.5625 31.1802C15.5625 43.7062 23.4955 57.8462 33.2815 57.8472V12.4922Z" fill="white"/>
<path d="M51.181 28.9157C51.102 28.1557 51.033 27.3487 50.906 26.5177C50.602 24.8707 50.16 23.0867 49.325 21.3277C48.486 19.5817 47.312 17.8457 45.722 16.4127C44.151 14.9697 42.216 13.8207 40.109 13.0747C38.002 12.3237 35.734 11.9467 33.478 11.9297C31.252 11.9257 28.935 12.2497 26.826 12.9547C24.705 13.6527 22.746 14.7497 21.134 16.1487C19.516 17.5407 18.266 19.2317 17.404 20.9717C16.582 22.7277 16.003 24.4757 15.735 26.1337C15.419 27.7827 15.355 29.3217 15.369 30.6757C15.386 32.0437 15.538 33.1917 15.595 34.1607C15.934 36.0667 16.128 37.1567 16.128 37.1567C16.117 36.2457 16.199 33.6387 17.327 31.5987C19.779 33.0817 22.635 34.2157 25.742 34.9327C25.755 34.9167 25.765 34.9037 25.78 34.8867C25.893 34.6657 26.09 34.4327 26.175 34.1637L26.331 33.7587C26.398 33.6227 26.398 33.4847 26.427 33.3467C26.466 33.0717 26.548 32.7957 26.51 32.5677C26.481 32.0867 26.461 31.7667 26.461 31.7667C26.461 31.7667 26.619 32.0547 26.858 32.4887C27.003 32.7097 27.051 32.9987 27.15 33.3147C27.188 33.4737 27.259 33.6417 27.259 33.8157L27.302 34.3507C27.337 34.6587 27.292 34.9547 27.261 35.2507C29.192 35.5997 31.205 35.7977 33.286 35.7977C33.498 35.7977 33.705 35.7817 33.918 35.7777C33.925 35.7717 33.929 35.7697 33.935 35.7627C34.007 35.7157 34.117 35.6147 34.253 35.4567C34.399 35.3137 34.518 35.1127 34.679 34.8997C34.782 34.6747 34.967 34.4287 35.038 34.1597L35.174 33.7467C35.235 33.6067 35.225 33.4677 35.25 33.3287C35.272 33.0547 35.34 32.7717 35.29 32.5477C35.236 32.0687 35.203 31.7487 35.203 31.7487C35.203 31.7487 35.375 32.0287 35.634 32.4507C35.793 32.6627 35.855 32.9497 35.969 33.2607C36.016 33.4167 36.094 33.5817 36.105 33.7547L36.174 34.2857C36.235 34.6547 36.174 35.0117 36.17 35.3697C36.152 35.4697 36.136 35.5657 36.121 35.6637C40.475 35.3007 44.491 34.1277 47.879 32.3477C50.092 33.6027 50.346 37.3977 50.353 37.5347C50.353 37.5347 50.556 36.4497 50.913 34.5527C51.023 33.5907 51.11 32.4237 51.207 31.0537C51.195 30.3857 51.188 29.6697 51.181 28.9157Z" fill="#8F6C08"/>
<path d="M39.4981 26.4625C39.4981 26.4625 39.3671 26.2175 39.1581 25.7555C38.9791 25.2775 38.6791 24.5436 38.4751 23.6016C38.0311 21.7056 37.7541 18.8955 38.2751 15.5215C38.5471 13.8375 39.0101 12.0105 39.8231 10.1045C40.6671 8.21354 41.8071 6.18553 43.7671 4.35753C44.7391 3.44153 45.9091 2.58555 47.3241 1.95455C48.7251 1.31255 50.3381 0.911537 51.9561 0.862537C53.5851 0.793537 55.1561 1.05455 56.5711 1.51455L57.0961 1.69454L57.3571 1.78954L57.4871 1.83654L57.5531 1.86052L57.5841 1.87255L57.8881 2.00454L58.5761 2.32354C58.8841 2.42954 59.8681 2.99453 60.6171 3.49553C61.0221 3.75153 61.2951 4.04054 61.6321 4.32054C61.9531 4.60754 62.2731 4.87955 62.5611 5.23455C62.8531 5.57155 63.1391 5.91655 63.4121 6.26555C63.6591 6.64255 63.8951 7.02555 64.1241 7.41555C64.9921 8.97855 65.4141 10.6915 65.5371 12.1785C65.6601 13.6585 65.5791 15.0415 65.3511 16.2305C65.1531 17.4535 64.8801 18.5415 64.5481 19.5595C63.9091 21.5865 63.1481 23.3266 62.4511 24.9036C61.7431 26.4766 61.0801 27.8795 60.5561 29.1415C60.0241 30.4025 59.6431 31.5185 59.4591 32.4995C59.2671 33.4795 59.3101 34.3456 59.5101 35.1146C59.6151 35.4906 59.7401 35.8465 59.9011 36.1375C60.0411 36.4475 60.1871 36.7095 60.3401 36.8955C60.6271 37.3145 60.7811 37.5375 60.7811 37.5375C56.5931 36.9985 52.7231 31.3275 52.3831 27.3585C52.1741 24.9435 52.9571 22.6995 52.5111 20.2535C51.9691 17.2885 49.7311 12.7965 45.9431 14.1205C43.4331 14.9995 41.4951 21.4695 40.5251 23.7605C40.1751 24.5845 39.9011 25.2445 39.7441 25.7165C39.5971 26.2015 39.4981 26.4625 39.4981 26.4625Z" fill="#8F6C08"/>
<path d="M64.9616 68.6473C63.5006 66.7593 59.3906 65.4533 55.1096 64.5703C53.5256 71.2273 44.3726 76.3423 33.2836 76.3423C22.1936 76.3423 13.0396 71.2283 11.4576 64.5703C7.16261 65.4583 3.06362 66.7623 1.60462 68.6473C-1.35538 72.4733 1.60462 88.0003 1.60462 88.0003H64.9616C64.9616 88.0003 67.9216 72.4743 64.9616 68.6473Z" fill="#8FC3D8"/>
<path d="M44.4753 15.9562C44.3573 15.9562 44.2393 15.9192 44.1363 15.8452C42.8653 14.9052 41.4463 14.1542 39.9153 13.6122C39.5283 13.4742 39.1413 13.3512 38.7473 13.2392C38.4433 13.1522 38.2673 12.8372 38.3543 12.5332C38.4393 12.2292 38.7533 12.0542 39.0603 12.1382C39.4773 12.2562 39.8873 12.3892 40.2953 12.5352C41.9343 13.1152 43.4533 13.9202 44.8163 14.9262C45.0693 15.1142 45.1223 15.4722 44.9343 15.7252C44.8243 15.8752 44.6523 15.9562 44.4753 15.9562Z" fill="#8FC3D8"/>
</svg>
