<svg width="67" height="77" viewBox="0 0 67 77" fill="none" xmlns="http://www.w3.org/2000/svg">
<path d="M48.8076 9.50781C48.8076 9.50781 59.3766 36.4598 53.5396 76.2878H33.2695V9.50781H48.8076Z" fill="#8F6C08"/>
<path d="M41.2283 61.3971C41.3183 61.1741 41.4073 60.9521 41.4943 60.7331C41.6103 60.4341 41.7223 60.1461 41.8323 59.8581C42.0593 59.2621 42.2733 58.6831 42.4723 58.1331C42.4813 58.1051 42.4923 58.0771 42.5013 58.0491C42.4983 58.0501 42.4973 58.0511 42.4953 58.0531C42.4973 58.0521 42.4983 58.0501 42.5013 58.0491C43.6033 54.9621 44.2273 52.6521 44.5323 51.3671C45.0583 51.4151 44.5563 51.3671 43.9383 51.3131C43.3083 51.2601 42.7533 50.7151 42.7003 50.0871L41.1283 32.2031H25.2243L23.5553 51.2251C23.5533 51.2251 22.8973 51.2671 21.8203 51.3661C22.1273 52.6581 22.7553 54.9871 23.8683 58.0961C24.0713 58.6601 24.2923 59.2571 24.5263 59.8701C24.6353 60.1541 24.7433 60.4371 24.8583 60.7331C24.9453 60.9511 25.0353 61.1741 25.1253 61.3971C25.3543 61.9711 25.5943 62.5521 25.8533 63.1601C28.4023 69.1341 31.2343 74.1441 32.5003 76.2921H33.8543C35.1203 74.1451 37.9533 69.1341 40.5023 63.1601C40.7603 62.5511 40.9983 61.9691 41.2283 61.3971Z" fill="#FEE69F"/>
<path opacity="0.1" d="M33.2861 46.1402C30.0711 46.1402 27.0621 44.6092 24.4621 42.1172L24.3711 43.1602C26.9911 45.7082 30.0331 47.2832 33.2861 47.2832C36.5381 47.2832 39.5821 45.7202 42.2001 43.1752L42.1091 42.1182C39.5091 44.6092 36.5001 46.1402 33.2861 46.1402Z" fill="black"/>
<path d="M21.9304 51.3672C20.8104 51.4692 19.2364 51.6312 17.4374 51.8692C16.0364 52.0552 14.5024 52.2862 12.9554 52.5702C8.17042 53.4482 3.23941 54.8332 1.60941 56.9412C-1.35259 60.7672 1.60941 76.2932 1.60941 76.2932H21.6594H32.6094C31.3434 74.1462 28.5114 69.1352 25.9624 63.1612C23.5284 57.4542 22.3864 53.2882 21.9304 51.3672Z" fill="#8FC3D8"/>
<path d="M64.9648 56.9402C63.3358 54.8332 58.4039 53.4482 53.6189 52.5692C52.0699 52.2842 50.5388 52.0532 49.1368 51.8682C47.3368 51.6302 45.7619 51.4692 44.6429 51.3672C44.1879 53.2872 43.0438 57.4532 40.6118 63.1602C38.0628 69.1342 35.2298 74.1442 33.9648 76.2922H44.9159H64.9648C64.9648 76.2922 67.9268 60.7662 64.9648 56.9402Z" fill="#8FC3D8"/>
<path d="M17.7625 9.50781C17.7625 9.50781 7.19447 36.4598 13.0315 76.2878H33.3015V9.50781H17.7625Z" fill="#8F6C08"/>
<path d="M50.6298 24.2972C49.3228 23.4972 47.4108 25.0392 46.3528 27.7442C45.2968 30.4482 45.4988 33.2902 46.8008 34.0912C48.1058 34.8912 50.0198 33.3472 51.0758 30.6432C52.1338 27.9392 51.9338 25.0972 50.6298 24.2972Z" fill="#FEE69F"/>
<path d="M15.9421 24.2972C17.2461 23.4972 19.1611 25.0392 20.2191 27.7442C21.2741 30.4482 21.0741 33.2902 19.7691 34.0912C18.4641 34.8912 16.5511 33.3472 15.4941 30.6432C14.4371 27.9392 14.6391 25.0972 15.9421 24.2972Z" fill="#FEE69F"/>
<path d="M43.739 37.7147C43.739 37.7147 43.751 37.6237 43.767 37.4567C43.784 37.2967 43.821 37.0287 43.876 36.6887C44.001 36.0337 44.256 35.1207 44.702 34.0927C44.928 33.5807 45.189 33.0357 45.557 32.5037C45.749 32.2447 45.967 31.9777 46.287 31.7947C46.448 31.7057 46.64 31.6537 46.848 31.6777C46.989 31.6777 47.237 31.7747 47.377 31.8837C47.69 32.1017 47.907 32.4007 48.093 32.7097C48.298 33.0127 48.454 33.3417 48.607 33.6757C48.895 34.3487 49.159 35.0487 49.341 35.7747C49.525 36.5087 49.672 37.2267 49.713 38.0267C49.778 38.6737 49.747 39.6067 49.475 40.3837C49.303 40.7897 49.107 41.1977 48.761 41.5517C48.421 41.8987 47.977 42.1577 47.52 42.2937C47.294 42.3667 47.071 42.3777 46.851 42.4097L46.765 42.4197L46.745 42.4227L46.617 42.4147L46.588 42.4127L46.48 42.4027L46.258 42.3827C46.207 42.3857 46.079 42.3577 45.949 42.3207C45.824 42.2867 45.699 42.2457 45.581 42.1997C45.319 42.1157 45.181 41.9807 44.993 41.8637C44.324 41.3417 44.015 40.6677 43.895 40.1467C43.736 39.6097 43.745 39.1777 43.707 38.8167C43.709 38.1157 43.738 37.7307 43.738 37.7307V37.7147H43.739ZM45.179 37.7317C45.179 37.7317 45.224 38.0667 45.328 38.6207C45.408 38.8787 45.484 39.2147 45.656 39.4977C45.803 39.8037 46.02 40.0317 46.219 40.1477C46.265 40.1637 46.325 40.2367 46.348 40.2177C46.359 40.2177 46.37 40.2217 46.379 40.2367C46.381 40.2487 46.39 40.2707 46.487 40.2747L46.705 40.3017L46.817 40.3147L46.844 40.3177L46.851 40.3187C46.803 40.3157 46.969 40.3257 46.746 40.3137L46.753 40.3117L46.781 40.3097C46.852 40.2977 46.944 40.3197 47.013 40.3017C47.287 40.2607 47.546 40.0917 47.814 39.6647C48.036 39.1837 48.228 38.7207 48.319 37.9517C48.423 37.3357 48.44 36.6117 48.406 35.9237C48.364 35.2287 48.293 34.5207 48.1 33.8597C47.911 33.2137 47.654 32.5337 47.182 32.1477C46.692 31.6867 46.098 32.1727 45.829 32.6817C45.524 33.1907 45.383 33.7597 45.285 34.2747C45.108 35.3187 45.113 36.1977 45.127 36.7967C45.14 37.3607 45.178 37.7477 45.178 37.7477V37.7317H45.179Z" fill="#8FC3D8"/>
<path d="M16.8172 37.7147C16.8172 37.7147 16.8282 37.6237 16.8482 37.4567C16.8642 37.2967 16.9022 37.0287 16.9572 36.6887C17.0802 36.0337 17.3352 35.1207 17.7812 34.0927C18.0082 33.5807 18.2682 33.0357 18.6372 32.5037C18.8262 32.2447 19.0462 31.9777 19.3652 31.7947C19.5282 31.7057 19.7192 31.6537 19.9282 31.6777C20.0702 31.6777 20.3172 31.7747 20.4552 31.8837C20.7662 32.1017 20.9862 32.4007 21.1742 32.7097C21.3772 33.0127 21.5332 33.3417 21.6882 33.6757C21.9732 34.3487 22.2362 35.0487 22.4202 35.7747C22.6032 36.5087 22.7502 37.2267 22.7952 38.0267C22.8582 38.6737 22.8262 39.6067 22.5542 40.3837C22.3852 40.7897 22.1882 41.1977 21.8402 41.5517C21.5002 41.8987 21.0592 42.1577 20.6012 42.2937C20.3762 42.3667 20.1532 42.3777 19.9292 42.4097L19.8472 42.4197L19.8262 42.4227L19.6962 42.4147L19.6702 42.4127L19.5592 42.4027L19.3402 42.3827C19.2892 42.3857 19.1612 42.3577 19.0292 42.3207C18.9012 42.2867 18.7792 42.2457 18.6582 42.1997C18.3992 42.1157 18.2602 41.9807 18.0742 41.8637C17.4012 41.3417 17.0952 40.6677 16.9732 40.1467C16.8152 39.6097 16.8262 39.1777 16.7852 38.8167C16.7902 38.1157 16.8162 37.7307 16.8162 37.7307V37.7147H16.8172ZM18.2572 37.7317C18.2572 37.7317 18.3042 38.0667 18.4062 38.6207C18.4862 38.8787 18.5632 39.2147 18.7342 39.4977C18.8832 39.8037 19.1002 40.0317 19.2972 40.1477C19.3452 40.1637 19.4072 40.2367 19.4272 40.2177C19.4402 40.2177 19.4492 40.2217 19.4602 40.2367C19.4632 40.2487 19.4712 40.2707 19.5672 40.2747L19.7862 40.3017L19.8942 40.3147L19.9232 40.3177L19.9302 40.3187C19.8812 40.3157 20.0482 40.3257 19.8242 40.3137L19.8302 40.3117L19.8602 40.3097C19.9332 40.2977 20.0222 40.3197 20.0912 40.3017C20.3682 40.2607 20.6242 40.0917 20.8922 39.6647C21.1142 39.1837 21.3072 38.7207 21.3972 37.9517C21.5022 37.3357 21.5172 36.6117 21.4842 35.9237C21.4422 35.2287 21.3732 34.5207 21.1812 33.8597C20.9892 33.2137 20.7342 32.5337 20.2632 32.1477C19.7692 31.6867 19.1782 32.1727 18.9102 32.6817C18.6032 33.1907 18.4612 33.7597 18.3652 34.2747C18.1892 35.3187 18.1912 36.1977 18.2062 36.7967C18.2212 37.3607 18.2562 37.7477 18.2562 37.7477V37.7317H18.2572Z" fill="#8FC3D8"/>
<path d="M51.0044 19.4693C51.0044 31.9953 43.0714 46.1363 33.2864 46.1363C23.5004 46.1363 15.5664 31.9943 15.5664 19.4693C15.5664 6.94625 23.5004 0.78125 33.2864 0.78125C43.0714 0.78125 51.0044 6.94625 51.0044 19.4693Z" fill="#FEE69F"/>
<path opacity="0.4" d="M33.2854 0.78125C23.4994 0.78125 15.5664 6.94625 15.5664 19.4693C15.5664 31.9943 23.4994 46.1363 33.2854 46.1363V0.78125Z" fill="white"/>
<path d="M33.2871 0.210938C22.1781 0.210938 14.9961 7.77095 14.9961 19.4709C14.9961 19.9619 15.0131 20.456 15.0361 20.95L15.6081 20.9229H50.9671L51.5361 20.95C51.5601 20.456 51.5751 19.9619 51.5751 19.4709C51.5761 7.77095 44.3981 0.210938 33.2871 0.210938Z" fill="#8F6C08"/>
</svg>
