<svg width="67" height="77" viewBox="0 0 67 77" fill="none" xmlns="http://www.w3.org/2000/svg">
<path d="M51.4921 20.7109H33.5721H15.6521C15.6521 20.7109 17.5721 40.065 9.95312 44.292C9.95312 44.292 20.0571 50.0439 33.5721 50.0439C47.0871 50.0439 57.1911 44.292 57.1911 44.292C49.5731 40.064 51.4921 20.7109 51.4921 20.7109Z" fill="#3F3004"/>
<path d="M55.0931 53.5091C54.6821 53.4261 54.2911 53.3511 53.9031 53.2791C52.3541 52.9951 50.8211 52.7631 49.4201 52.5791C47.6221 52.3411 46.0461 52.1801 44.9271 52.0771C45.4541 52.1261 44.9531 52.0771 44.3331 52.0241C43.7041 51.9701 43.1491 51.4251 43.0931 50.7971L41.5231 32.9141H25.6191L24.0491 50.7971C23.9931 51.4251 23.5611 51.9621 23.0821 52.0011C22.8371 52.0221 22.5461 52.0471 22.2151 52.0761C21.0951 52.1791 19.5201 52.3401 17.7221 52.5781C16.3211 52.7631 14.7881 52.9941 13.2401 53.2781C12.8511 53.3501 12.4611 53.4251 12.0731 53.5051C7.66013 54.3931 3.38912 55.7161 1.89412 57.6501C-1.06687 61.4761 1.89412 77.0031 1.89412 77.0031H65.2481C65.2481 77.0031 68.2091 61.4771 65.2481 57.6501C63.7531 55.7161 59.4831 54.3931 55.0931 53.5091Z" fill="#FEE69F"/>
<path d="M50.9135 25.0084C49.6085 24.2074 47.6945 25.7514 46.6385 28.4554C45.5825 31.1594 45.7825 34.0004 47.0875 34.8024C48.3905 35.6024 50.3065 34.0594 51.3615 31.3544C52.4175 28.6494 52.2185 25.8094 50.9135 25.0084Z" fill="#FEE69F"/>
<path d="M16.2274 25.0084C17.5314 24.2074 19.4464 25.7514 20.5034 28.4554C21.5594 31.1594 21.3594 34.0004 20.0554 34.8024C18.7504 35.6024 16.8364 34.0594 15.7804 31.3544C14.7224 28.6494 14.9234 25.8094 16.2274 25.0084Z" fill="#FEE69F"/>
<path opacity="0.1" d="M33.5712 46.8491C30.3572 46.8491 27.3472 45.3181 24.7472 42.8281L24.6562 43.8701C27.2762 46.4181 30.3182 47.9931 33.5712 47.9931C36.8232 47.9931 39.8672 46.4291 42.4872 43.8851L42.3942 42.8281C39.7942 45.3171 36.7852 46.8491 33.5712 46.8491Z" fill="black"/>
<path d="M49.3728 36.1016C49.3728 38.0806 48.3488 39.6866 47.0868 39.6866C45.8238 39.6866 44.8008 38.0816 44.8008 36.1016C44.8008 34.1216 45.8238 32.5156 47.0868 32.5156C48.3478 32.5166 49.3728 34.1216 49.3728 36.1016Z" fill="white"/>
<path d="M22.3415 36.1016C22.3415 38.0806 21.3185 39.6866 20.0555 39.6866C18.7935 39.6866 17.7695 38.0816 17.7695 36.1016C17.7695 34.1216 18.7925 32.5156 20.0555 32.5156C21.3185 32.5166 22.3415 34.1216 22.3415 36.1016Z" fill="white"/>
<path d="M51.2896 20.1802C51.2896 32.7062 43.3566 46.8472 33.5706 46.8472C23.7846 46.8472 15.8516 32.7062 15.8516 20.1802C15.8516 7.65718 23.7846 1.49219 33.5706 1.49219C43.3566 1.49219 51.2896 7.65618 51.2896 20.1802Z" fill="#FEE69F"/>
<path opacity="0.4" d="M15.8516 20.1792C15.8516 32.7052 23.7846 46.8462 33.5706 46.8462V1.49219C23.7856 1.49119 15.8516 7.6552 15.8516 20.1792Z" fill="white"/>
<path d="M51.1235 15.1355C50.8535 13.4775 50.2755 11.7295 49.4515 9.97351C48.5905 8.23351 47.3425 6.54151 45.7225 5.15051C44.1135 3.75151 42.1525 2.65451 40.0305 1.95651C37.9835 1.27151 35.7385 0.9515 33.5715 0.9375C31.4055 0.9515 29.1615 1.27151 27.1135 1.95651C24.9915 2.65451 23.0325 3.75151 21.4205 5.15051C19.8005 6.54251 18.5525 8.23351 17.6915 9.97351C16.8665 11.7295 16.2895 13.4775 16.0195 15.1355C15.7065 16.7845 15.6425 18.3235 15.6535 19.6775C15.6705 21.0455 15.8245 22.1935 15.8805 23.1625C16.2195 25.0685 16.4145 26.1585 16.4145 26.1585C16.3985 24.9545 16.5445 20.7945 19.0525 18.8915C23.2845 20.1805 28.2465 20.9335 33.5725 20.9335C38.8985 20.9335 43.8605 20.1805 48.0935 18.8915C50.6005 20.7935 50.7475 24.9545 50.7305 26.1585C50.7305 26.1585 50.9245 25.0685 51.2665 23.1625C51.3195 22.1925 51.4765 21.0455 51.4925 19.6775C51.5005 18.3225 51.4375 16.7845 51.1235 15.1355Z" fill="#3F3004"/>
<path d="M12.0731 53.5008C7.66013 54.3888 3.38912 55.7118 1.89412 57.6458C-1.06687 61.4718 1.89412 76.9988 1.89412 76.9988H20.0311L12.2421 53.4688C12.1861 53.4777 12.1291 53.4888 12.0731 53.5008Z" fill="#346178"/>
<path d="M65.2474 57.6468C63.7524 55.7128 59.4824 54.3897 55.0914 53.5057C55.0244 53.4917 54.9644 53.4808 54.8994 53.4688L47.1094 76.9987H65.2464C65.2464 76.9987 68.2084 61.4738 65.2474 57.6468Z" fill="#346178"/>
<path d="M33.572 69.7491C26.769 69.7491 20.653 68.2361 16.332 65.8281L20.032 77.0041H47.112L50.812 65.8281C46.492 68.2371 40.376 69.7491 33.572 69.7491Z" fill="#8FC3D8"/>
<path d="M24.2294 53.4411C23.7744 54.0201 22.9344 54.1221 22.3534 53.6661C21.7744 53.2111 21.6744 52.3701 22.1274 51.7921C22.5834 51.2111 23.4224 51.1111 24.0034 51.5671C24.5834 52.0221 24.6844 52.8601 24.2294 53.4411Z" fill="white"/>
<path d="M26.1643 54.712C25.7193 55.374 24.8203 55.551 24.1573 55.104C23.4963 54.661 23.3203 53.761 23.7653 53.099C24.2103 52.437 25.1083 52.262 25.7713 52.707C26.4333 53.153 26.6093 54.05 26.1643 54.712Z" fill="white"/>
<path d="M28.9337 56.1755C28.5367 56.9375 27.5967 57.2295 26.8347 56.8315C26.0747 56.4345 25.7787 55.4945 26.1777 54.7345C26.5767 53.9715 27.5157 53.6775 28.2767 54.0765C29.0377 54.4755 29.3317 55.4135 28.9337 56.1755Z" fill="white"/>
<path d="M32.2179 57.2414C31.9429 58.1184 31.0079 58.6074 30.1309 58.3314C29.2549 58.0564 28.7659 57.1204 29.0419 56.2454C29.3169 55.3664 30.2529 54.8794 31.1289 55.1554C32.0059 55.4314 32.4939 56.3644 32.2179 57.2414Z" fill="white"/>
<path d="M35.6428 57.2868C35.6408 58.2668 34.8428 59.0588 33.8638 59.0568C32.8838 59.0548 32.0908 58.2588 32.0938 57.2788C32.0968 56.2978 32.8928 55.5068 33.8728 55.5078C34.8508 55.5098 35.6448 56.3058 35.6428 57.2868Z" fill="white"/>
<path d="M38.6319 56.223C38.9149 57.099 38.4349 58.037 37.5609 58.32C36.6869 58.603 35.7469 58.124 35.4649 57.249C35.1799 56.374 35.6609 55.435 36.5349 55.152C37.4099 54.868 38.3489 55.348 38.6319 56.223Z" fill="white"/>
<path d="M41.3322 54.6752C41.7502 55.4262 41.4782 56.3731 40.7282 56.7891C39.9782 57.2051 39.0302 56.9362 38.6142 56.1842C38.1962 55.4332 38.4682 54.4882 39.2182 54.0722C39.9692 53.6532 40.9152 53.9242 41.3322 54.6752Z" fill="white"/>
<path d="M43.5551 53.0251C44.0241 53.6681 43.8821 54.5721 43.2371 55.0431C42.5931 55.5121 41.6881 55.3712 41.2191 54.7272C40.7481 54.0822 40.8911 53.1781 41.5351 52.7071C42.1811 52.2371 43.0851 52.3781 43.5551 53.0251Z" fill="white"/>
<path d="M45.0387 51.6979C45.5197 52.2559 45.4567 53.0999 44.8987 53.5809C44.3407 54.0629 43.4987 54.0009 43.0157 53.4429C42.5337 52.8839 42.5967 52.0409 43.1537 51.5589C43.7127 51.0769 44.5577 51.1389 45.0387 51.6979Z" fill="white"/>
</svg>
