<svg width="67" height="78" viewBox="0 0 67 78" fill="none" xmlns="http://www.w3.org/2000/svg">
<path d="M57.9845 40.2392C52.5955 34.0952 55.2435 10.4122 47.5965 4.75119C39.9815 -0.885813 26.8725 -0.885813 19.2575 4.75119C11.6105 10.4122 14.2575 34.0962 8.86853 40.2392C3.43653 46.4322 8.60053 59.4032 8.60053 59.4032H33.4215H33.4325H58.2535C58.2535 59.4032 63.4165 46.4332 57.9845 40.2392Z" fill="#FDC00F"/>
<path d="M54.9489 54.5091C54.5389 54.4261 54.1479 54.3511 53.7609 54.2791C52.2109 53.9951 50.6789 53.7631 49.2779 53.5791C47.4799 53.3411 45.9029 53.1801 44.7859 53.0771C45.3119 53.1261 44.8099 53.0771 44.1919 53.0241C43.5629 52.9701 43.006 52.4251 42.951 51.7971L41.382 33.9141H25.4789L23.908 51.7971C23.852 52.4251 23.4219 52.9621 22.9409 53.0011C22.6979 53.0221 22.406 53.0471 22.076 53.0761C20.955 53.1791 19.3799 53.3401 17.5819 53.5781C16.1809 53.7631 14.6469 53.9941 13.0999 54.2781C12.7089 54.3501 12.3209 54.4251 11.9329 54.5051C7.51995 55.3931 3.24894 56.7161 1.75394 58.6501C-1.20806 62.4761 1.75394 78.0031 1.75394 78.0031H65.1069C65.1069 78.0031 68.0689 62.4771 65.1069 58.6501C63.6099 56.7161 59.3399 55.3931 54.9489 54.5091Z" fill="#FEE69F"/>
<path d="M50.7697 26.0162C49.4637 25.2152 47.5497 26.7592 46.4937 29.4632C45.4377 32.1672 45.6387 35.0082 46.9417 35.8102C48.2467 36.6102 50.1607 35.0672 51.2167 32.3622C52.2727 29.6572 52.0737 26.8172 50.7697 26.0162Z" fill="#FEE69F"/>
<path d="M16.0834 26.0162C17.3874 25.2152 19.3024 26.7592 20.3574 29.4632C21.4154 32.1672 21.2144 35.0082 19.9104 35.8102C18.6054 36.6102 16.6914 35.0672 15.6354 32.3622C14.5784 29.6572 14.7784 26.8172 16.0834 26.0162Z" fill="#FEE69F"/>
<path opacity="0.1" d="M33.4267 47.8491C30.2117 47.8491 27.2017 46.3181 24.6037 43.8281L24.5117 44.8701C27.1317 47.4181 30.1727 48.9931 33.4267 48.9931C36.6777 48.9931 39.7237 47.4291 42.3407 44.8851L42.2487 43.8281C39.6487 46.3171 36.6397 47.8491 33.4267 47.8491Z" fill="black"/>
<path d="M49.2272 37.1094C49.2272 39.0884 48.2033 40.6945 46.9413 40.6945C45.6773 40.6945 44.6562 39.0894 44.6562 37.1094C44.6562 35.1294 45.6773 33.5234 46.9413 33.5234C48.2033 33.5244 49.2272 35.1294 49.2272 37.1094Z" fill="#346178"/>
<path d="M22.1999 37.1094C22.1999 39.0884 21.1769 40.6945 19.9139 40.6945C18.6519 40.6945 17.6289 39.0894 17.6289 37.1094C17.6289 35.1294 18.6519 33.5234 19.9139 33.5234C21.1769 33.5244 22.1999 35.1294 22.1999 37.1094Z" fill="#346178"/>
<path d="M33.426 2.49219C23.641 2.49219 15.707 8.65618 15.707 21.1802C15.707 22.7062 15.826 24.2552 16.051 25.8002H16.188C16.188 25.8002 16.188 22.3022 19.912 21.0892C23.896 19.7932 26.842 16.7182 28.965 13.3982V13.4002C28.965 13.4002 33.6 19.6262 42.756 18.4122C47.497 17.7842 50.666 25.8012 50.666 25.8012H50.802C51.026 24.2562 51.146 22.7072 51.146 21.1812C51.144 8.65618 43.211 2.49219 33.426 2.49219Z" fill="#FDC00F"/>
<path d="M50.6658 25.8014C50.6658 25.8014 47.4968 17.7844 42.7558 18.4124C33.5998 19.6264 28.9648 13.4004 28.9648 13.4004V13.3984C26.8418 16.7184 23.8968 19.7944 19.9118 21.0894C16.1878 22.3024 16.1878 25.8004 16.1878 25.8004H16.0508C17.6688 36.9404 24.8318 47.8474 33.4258 47.8474C42.0198 47.8474 49.1828 36.9404 50.8008 25.8004H50.6658V25.8014Z" fill="#FEE69F"/>
<path opacity="0.4" d="M33.4278 16.9174C30.4618 15.4044 28.9648 13.4004 28.9648 13.4004V13.3984C26.8418 16.7184 23.8968 19.7944 19.9118 21.0894C16.1878 22.3024 16.1878 25.8004 16.1878 25.8004H16.0508C17.6688 36.9404 24.8318 47.8474 33.4258 47.8474H33.4268L33.4278 16.9174Z" fill="white"/>
<path d="M65.103 58.65C63.608 56.716 59.337 55.393 54.947 54.509C54.537 54.426 54.146 54.351 53.759 54.279C52.321 54.016 50.91 53.801 49.594 53.625H49.228C49.181 53.67 49.092 53.759 48.919 53.907C48.687 54.092 48.347 54.415 47.913 54.726C47.046 55.379 45.809 56.18 44.321 56.89C42.836 57.602 41.103 58.235 39.245 58.655C37.388 59.084 35.407 59.29 33.427 59.292C31.446 59.282 29.465 59.073 27.608 58.642C25.751 58.217 24.017 57.584 22.532 56.875C21.046 56.166 19.807 55.369 18.94 54.721C18.507 54.41 18.168 54.091 17.934 53.906C17.763 53.758 17.672 53.67 17.625 53.625H17.259C15.943 53.802 14.53 54.017 13.096 54.279C12.705 54.351 12.317 54.426 11.929 54.506C7.51602 55.394 3.24504 56.717 1.75004 58.651C-1.21196 62.477 1.75004 78.004 1.75004 78.004H65.103C65.103 78.004 68.065 62.477 65.103 58.65Z" fill="#346178"/>
</svg>
