<svg width="24" height="24" viewBox="0 0 24 24" fill="none" xmlns="http://www.w3.org/2000/svg">
<path d="M7.46932 6.09748V3.65757H5.5561L5.00673 6.13799C5.00371 6.15824 4.99968 6.1773 4.99363 6.19517L1.78011 20.7215C2.28612 21.1492 2.87784 21.3731 3.47458 21.391C4.1681 21.4125 4.86865 21.1527 5.44525 20.613C6.02788 20.0031 6.73953 19.6552 7.46935 19.5742V6.09645L7.46932 6.09748ZM6.42099 1.41652C6.27886 1.41652 6.16294 1.27951 6.16294 1.11153C6.16294 0.943549 6.27886 0.806542 6.42099 0.806542H7.32618V0.304989C7.32618 0.137007 7.4421 0 7.58423 0C7.72636 0 7.84229 0.137007 7.84229 0.304989V0.806542H9.53273V0.304989C9.53273 0.137007 9.64865 0 9.79078 0C9.93291 0 10.0488 0.137007 10.0488 0.304989V0.806542H11.7393V0.304989C11.7393 0.137007 11.8552 0 11.9973 0C12.1395 0 12.2554 0.137007 12.2554 0.304989V0.806542H13.9458V0.304989C13.9458 0.137007 14.0618 0 14.2039 0C14.346 0 14.4619 0.137007 14.4619 0.304989V0.806542H16.1524V0.304989C16.1524 0.137007 16.2683 0 16.4104 0C16.5526 0 16.6685 0.137007 16.6685 0.304989V0.806542H17.5737C17.7158 0.806542 17.8317 0.943549 17.8317 1.11153C17.8317 1.27951 17.7158 1.41652 17.5737 1.41652H16.6685V2.74133C16.6685 2.90931 16.5526 3.04632 16.4104 3.04632H7.58222C7.44009 3.04632 7.32417 2.90931 7.32417 2.74133V1.41652H6.41897H6.42099ZM16.1544 1.41652H14.464V2.43634H16.1544V1.41652ZM13.9479 1.41652H12.2574V2.43634H13.9479V1.41652ZM11.7413 1.41652H10.0509V2.43634H11.7413V1.41652ZM9.5348 1.41652H7.84435V2.43634H9.5348V1.41652ZM16.0124 3.65748H7.98752V5.78408H16.0134V3.65748H16.0124ZM13.0851 8.75171C13.2665 8.96496 13.4802 9.13532 13.7121 9.25564C13.9721 9.39026 14.2574 9.46294 14.5487 9.46294C14.84 9.46294 15.1253 9.39026 15.3854 9.25564C15.6172 9.13531 15.8309 8.96376 16.0124 8.75171V6.39518H13.085L13.0851 8.75171ZM16.0124 9.538C15.8794 9.64522 15.7392 9.73815 15.5931 9.81439C15.2675 9.98357 14.9117 10.0753 14.5488 10.0753C14.1859 10.0753 13.83 9.98476 13.5045 9.81439C13.3583 9.73815 13.2182 9.64522 13.0851 9.538V21.1858C13.3936 21.056 13.6879 20.8653 13.9561 20.614C14.5468 19.9957 15.2705 19.6466 16.0114 19.5715V9.538H16.0124ZM7.98752 8.75171C8.16896 8.96496 8.38265 9.13532 8.61451 9.25564C8.87457 9.39145 9.15985 9.46294 9.45116 9.46294C9.74248 9.46294 10.0278 9.39026 10.2878 9.25564C10.5197 9.13412 10.7334 8.96376 10.9148 8.75171V6.39518H7.98747L7.98752 8.75171ZM10.9149 9.53681C10.7818 9.64403 10.6417 9.73696 10.4955 9.8132C10.1689 9.98238 9.81411 10.0741 9.45121 10.0741C9.08832 10.0741 8.73249 9.98357 8.4069 9.8132C8.26074 9.73696 8.12062 9.64522 7.98757 9.53681V19.5609C8.71233 19.6038 9.43003 19.9075 10.0379 20.4818C10.307 20.7629 10.6024 20.9774 10.9148 21.1275L10.9149 9.53681ZM0.00106837 22.2451C0.238961 22.3011 0.474826 22.3868 0.701628 22.5024C0.989923 22.6477 1.26712 22.8431 1.52819 23.0898C2.08765 23.6747 2.78016 23.9785 3.47669 23.9988C4.17021 24.0202 4.87077 23.7617 5.44736 23.2208C6.09551 22.5417 6.90393 22.1879 7.71943 22.1641C8.53389 22.1403 9.35646 22.4452 10.0379 23.0886C10.5973 23.6735 11.2898 23.9773 11.9864 23.9976C12.6799 24.019 13.3804 23.7605 13.957 23.2196C14.6052 22.5417 15.4136 22.1867 16.2291 22.1629C17.0436 22.1391 17.8661 22.4441 18.5475 23.0874C19.107 23.6723 19.7995 23.9761 20.496 23.9964C21.1896 24.0178 21.8901 23.7593 22.4667 23.2184C22.7177 22.9563 22.9929 22.7407 23.2812 22.5763C23.512 22.444 23.7529 22.3428 23.9989 22.2737V20.2948C23.8295 20.3508 23.6642 20.4247 23.5049 20.5164C23.258 20.657 23.0231 20.8404 22.8033 21.0704L22.6683 21.1919C22.0171 21.7518 21.247 22.0187 20.4839 21.9961C19.6684 21.9722 18.86 21.6172 18.2118 20.9393C17.6504 20.4127 16.972 20.1542 16.2462 20.1614C15.5446 20.1828 14.8521 20.4854 14.2927 21.0716C13.6113 21.7161 12.7887 22.0211 11.9742 21.9973C11.1587 21.9735 10.3503 21.6184 9.70216 20.9406C9.13264 20.4068 8.44214 20.1483 7.7214 20.1638C7.02286 20.1888 6.33739 20.4926 5.78299 21.0728C5.10158 21.7173 4.27904 22.0223 3.46355 21.9985C2.71055 21.9759 1.96362 21.6721 1.3205 21.0704C1.27514 21.0263 1.23281 20.9846 1.19148 20.9418C0.97677 20.7404 0.742906 20.5772 0.497963 20.4533C0.335671 20.3711 0.169359 20.3068 0 20.2591V22.2451L0.00106837 22.2451ZM1.34072 20.3151L4.42031 6.39387H0.00117161V19.6371C0.239065 19.6943 0.474929 19.78 0.700725 19.8944C0.92148 20.0064 1.13619 20.147 1.34082 20.3162L1.34072 20.3151ZM24 19.6693V6.39411H19.5809L22.6806 20.4068C22.8701 20.2364 23.0727 20.0911 23.2824 19.972C23.5132 19.8397 23.7541 19.7384 24 19.6693ZM22.238 20.8095L19.0054 6.19505C18.9993 6.17718 18.9953 6.15812 18.9923 6.13786L18.4429 3.65626H16.5297V19.562C17.2444 19.6121 17.95 19.9159 18.5487 20.4806C19.1082 21.0655 19.8007 21.3693 20.4972 21.3908C21.101 21.4086 21.7109 21.2156 22.2381 20.8082L22.238 20.8095ZM12.5701 21.3432V6.3939H11.431V21.3145C11.6145 21.3598 11.8 21.386 11.9864 21.392C12.181 21.3979 12.3765 21.3825 12.569 21.3431L12.5701 21.3432Z" fill="white"/>
</svg>
