<svg width="26" height="26" viewBox="0 0 26 26" fill="none" xmlns="http://www.w3.org/2000/svg">
<path d="M23.2857 1H2.71429C1.76751 1 1 1.76751 1 2.71429V23.2857C1 24.2325 1.76751 25 2.71429 25H23.2857C24.2325 25 25 24.2325 25 23.2857V2.71429C25 1.76751 24.2325 1 23.2857 1Z" stroke="white" stroke-width="2"/>
<path d="M1 14.7154C3.28571 13.0011 5.57143 13.0011 7.85714 14.7154C10.1429 16.4297 12.4286 16.4297 14.7143 14.7154C17 13.0011 19.2857 13.0011 21.5714 14.7154C23.8571 16.4297 25 16.4297 25 14.7154" stroke="white" stroke-width="1.5"/>
<path d="M1 19.856C3.28571 18.1417 5.57143 18.1417 7.85714 19.856C10.1429 21.5703 12.4286 21.5703 14.7143 19.856C17 18.1417 19.2857 18.1417 21.5714 19.856C23.8571 21.5703 25 21.5703 25 19.856" stroke="white" stroke-width="1.5"/>
<path d="M7.85658 9.57254V4.42969M7.85658 4.42969L5.28516 7.00112M7.85658 4.42969L10.428 7.00112" stroke="white" stroke-width="1.5" stroke-linecap="round" stroke-linejoin="round"/>
<path d="M18.1417 9.57254V4.42969M18.1417 4.42969L15.5703 7.00112M18.1417 4.42969L20.7132 7.00112" stroke="white" stroke-width="1.5" stroke-linecap="round" stroke-linejoin="round"/>
</svg>
