<svg width="26" height="26" viewBox="0 0 26 26" fill="none" xmlns="http://www.w3.org/2000/svg">
<path d="M4 9C4 9.16745 4 9.33314 4 9.49719V12.75M4 9L4 7.125V6H22V7.66718V9M4 9H8.5M22 12.75V16.5M22 12.75H17.875M22 12.75L22 9M22 16.5H17.875M22 16.5L22 15V17.25L22 21M17.875 16.5H13M17.875 16.5V13.0451M17.875 12.75H13M17.875 12.75V13.0451M13 16.5V12.75M13 16.5H8.5M13 16.5V21M13 12.75H8.5M13 12.75V9M8.5 16.5V12.75M8.5 16.5H4M8.5 16.5V21M8.5 12.75H4M8.5 12.75V9M4 16.5C4 16.7484 4 16.9982 4 17.25C4 18.094 4 20.0861 4 21M4 16.5V14.625V12.75M22 9H17.875M4 21C4 21.367 4 21.3664 4 21.75C4 22.4652 4 23.2119 4 24H22V21.75L22 21M4 21H8.5M22 21H17.875M8.5 21H13M13 21H17.875M17.875 16.6718V21M8.5 9H13M13 9H17.875M17.875 13.0451V9" stroke="white" stroke-width="1.5"/>
<path d="M1 0.5L1 26" stroke="white" stroke-width="1.5"/>
<path d="M25 1V26" stroke="white" stroke-width="1.5"/>
</svg>
