<svg width="27" height="20" viewBox="0 0 27 20" fill="none" xmlns="http://www.w3.org/2000/svg">
<path d="M13.244 8.58952C15.2729 8.58952 16.9176 6.94476 16.9176 4.91585C16.9176 2.88694 15.2729 1.24219 13.244 1.24219C11.2151 1.24219 9.57031 2.88694 9.57031 4.91585C9.57031 6.94476 11.2151 8.58952 13.244 8.58952Z" stroke="white" stroke-width="2"/>
<path d="M5.89844 18.9997C5.89844 14.1015 8.95982 11.6523 13.2458 11.6523C17.5317 11.6523 20.5931 14.1015 20.5931 18.9997" stroke="white" stroke-width="2" stroke-linecap="round"/>
<path d="M5.90105 6.38804C7.38892 6.38804 8.59507 5.18189 8.59507 3.69402C8.59507 2.20615 7.38892 1 5.90105 1C4.41319 1 3.20703 2.20615 3.20703 3.69402C3.20703 5.18189 4.41319 6.38804 5.90105 6.38804Z" stroke="white" stroke-width="1.8"/>
<path d="M1 16.5506C1 13.4892 2.83683 11.6523 5.89822 11.6523" stroke="white" stroke-width="1.8" stroke-linecap="round"/>
<path d="M20.5925 6.38804C22.0803 6.38804 23.2865 5.18189 23.2865 3.69402C23.2865 2.20615 22.0803 1 20.5925 1C19.1046 1 17.8984 2.20615 17.8984 3.69402C17.8984 5.18189 19.1046 6.38804 20.5925 6.38804Z" stroke="white" stroke-width="1.8"/>
<path d="M25.492 16.5506C25.492 13.4892 23.6551 11.6523 20.5938 11.6523" stroke="white" stroke-width="1.8" stroke-linecap="round"/>
</svg>
