<svg width="57" height="242" viewBox="0 0 57 242" fill="none" xmlns="http://www.w3.org/2000/svg">
<g filter="url(#filter0_dn_3713_578)">
<path d="M51.6833 232.978L30.5529 232.87V91.0006H15.8109L12.8624 88.1282H20.7249V70.4153H12.8624V79.0324H5V1H38.4154V2.74695H33.01L27.6045 5.78726V50.3088H33.01H41.3638H51.6833V91.0006V232.978Z" fill="#D9D9D9"/>
<path d="M30.5529 91.0006H15.8109L12.8624 88.1282H20.7249V70.4153H12.8624V79.0324H5V1H38.4154V2.74695H33.01L27.6045 5.78726V50.3088H33.01M30.5529 91.0006V232.87L51.6833 232.978V91.0006M30.5529 91.0006H51.6833M51.6833 91.0006V50.3088H41.3638M41.3638 50.3088V70.4153M41.3638 50.3088H33.01M41.3638 70.4153H42.838V88.1282H33.01V70.4153M41.3638 70.4153H33.01M33.01 50.3088V70.4153" stroke="black"/>
</g>
<g filter="url(#filter1_d_3713_578)">
<path d="M30.5545 91.7031H51.1953V233.023H30.5545V91.7031Z" fill="#808080" stroke="black" stroke-width="0.5" stroke-miterlimit="22.9256"/>
<rect width="20.5624" height="17.5824" transform="matrix(-1 0 0 1 51.1953 180.016)" fill="url(#paint0_linear_3713_578)"/>
<rect width="20.6389" height="16.2327" transform="matrix(-1 0 0 1 51.1953 92.6719)" fill="url(#paint1_linear_3713_578)"/>
<rect width="20.5624" height="17.5824" transform="matrix(-1 0 0 1 51.1953 127.016)" fill="url(#paint2_linear_3713_578)"/>
<rect width="20.5624" height="21.5187" transform="matrix(-1 0 0 1 51.1953 160.336)" fill="url(#paint3_linear_3713_578)"/>
<rect width="20.5624" height="21.5187" transform="matrix(-1 0 0 1 51.1953 196.555)" fill="url(#paint4_linear_3713_578)"/>
<rect width="20.5624" height="19.4193" transform="matrix(-1 0 0 1 51.1953 108.773)" fill="url(#paint5_linear_3713_578)"/>
<rect width="20.5624" height="17.5824" transform="matrix(-1 0 0 1 51.1953 144.719)" fill="url(#paint6_linear_3713_578)"/>
<rect width="20.6389" height="17.1876" transform="matrix(-1 0 0 1 51.1953 214.891)" fill="url(#paint7_linear_3713_578)"/>
</g>
<defs>
<filter id="filter0_dn_3713_578" x="0.5" y="0.5" width="55.6836" height="240.984" filterUnits="userSpaceOnUse" color-interpolation-filters="sRGB">
<feFlood flood-opacity="0" result="BackgroundImageFix"/>
<feColorMatrix in="SourceAlpha" type="matrix" values="0 0 0 0 0 0 0 0 0 0 0 0 0 0 0 0 0 0 127 0" result="hardAlpha"/>
<feOffset dy="4"/>
<feGaussianBlur stdDeviation="2"/>
<feComposite in2="hardAlpha" operator="out"/>
<feColorMatrix type="matrix" values="0 0 0 0 0 0 0 0 0 0 0 0 0 0 0 0 0 0 0.25 0"/>
<feBlend mode="normal" in2="BackgroundImageFix" result="effect1_dropShadow_3713_578"/>
<feBlend mode="normal" in="SourceGraphic" in2="BackgroundImageFix" result="shape"/>
<feTurbulence type="fractalNoise" baseFrequency="1 1" stitchTiles="stitch" numOctaves="3" result="noise" seed="3187" />
<feColorMatrix in="noise" type="luminanceToAlpha" result="alphaNoise" />
<feComponentTransfer in="alphaNoise" result="coloredNoise1">
<feFuncA type="discrete" tableValues="1 1 1 1 1 1 1 1 1 1 1 1 1 1 1 1 1 1 1 1 1 1 1 1 1 1 1 1 1 1 1 1 1 1 1 1 1 1 1 1 1 1 1 1 1 1 1 1 1 1 1 0 0 0 0 0 0 0 0 0 0 0 0 0 0 0 0 0 0 0 0 0 0 0 0 0 0 0 0 0 0 0 0 0 0 0 0 0 0 0 0 0 0 0 0 0 0 0 0 0 "/>
</feComponentTransfer>
<feComposite operator="in" in2="shape" in="coloredNoise1" result="noise1Clipped" />
<feFlood flood-color="rgba(0, 0, 0, 0.25)" result="color1Flood" />
<feComposite operator="in" in2="noise1Clipped" in="color1Flood" result="color1" />
<feMerge result="effect2_noise_3713_578">
<feMergeNode in="shape" />
<feMergeNode in="color1" />
</feMerge>
<feBlend mode="normal" in="effect2_noise_3713_578" in2="effect1_dropShadow_3713_578" result="effect2_noise_3713_578"/>
</filter>
<filter id="filter1_d_3713_578" x="26.3047" y="91.4531" width="29.1406" height="149.82" filterUnits="userSpaceOnUse" color-interpolation-filters="sRGB">
<feFlood flood-opacity="0" result="BackgroundImageFix"/>
<feColorMatrix in="SourceAlpha" type="matrix" values="0 0 0 0 0 0 0 0 0 0 0 0 0 0 0 0 0 0 127 0" result="hardAlpha"/>
<feOffset dy="4"/>
<feGaussianBlur stdDeviation="2"/>
<feComposite in2="hardAlpha" operator="out"/>
<feColorMatrix type="matrix" values="0 0 0 0 0 0 0 0 0 0 0 0 0 0 0 0 0 0 0.25 0"/>
<feBlend mode="normal" in2="BackgroundImageFix" result="effect1_dropShadow_3713_578"/>
<feBlend mode="normal" in="SourceGraphic" in2="effect1_dropShadow_3713_578" result="shape"/>
</filter>
<linearGradient id="paint0_linear_3713_578" x1="20.5624" y1="8.79119" x2="0" y2="8.79119" gradientUnits="userSpaceOnUse">
<stop stop-color="#241E25"/>
<stop offset="1" stop-color="#FEFEFE"/>
</linearGradient>
<linearGradient id="paint1_linear_3713_578" x1="0" y1="8.11635" x2="20.6389" y2="8.11635" gradientUnits="userSpaceOnUse">
<stop stop-color="#241E25"/>
<stop offset="1" stop-color="#FEFEFE"/>
</linearGradient>
<linearGradient id="paint2_linear_3713_578" x1="0" y1="8.79119" x2="20.5624" y2="8.79119" gradientUnits="userSpaceOnUse">
<stop stop-color="#241E25"/>
<stop offset="1" stop-color="#FEFEFE"/>
</linearGradient>
<linearGradient id="paint3_linear_3713_578" x1="0" y1="10.7594" x2="20.5624" y2="10.7594" gradientUnits="userSpaceOnUse">
<stop stop-color="#241E25"/>
<stop offset="1" stop-color="#FEFEFE"/>
</linearGradient>
<linearGradient id="paint4_linear_3713_578" x1="0" y1="10.7594" x2="20.5624" y2="10.7594" gradientUnits="userSpaceOnUse">
<stop stop-color="#241E25"/>
<stop offset="1" stop-color="#FEFEFE"/>
</linearGradient>
<linearGradient id="paint5_linear_3713_578" x1="20.5624" y1="9.70967" x2="0" y2="9.70967" gradientUnits="userSpaceOnUse">
<stop stop-color="#241E25"/>
<stop offset="1" stop-color="#FEFEFE"/>
</linearGradient>
<linearGradient id="paint6_linear_3713_578" x1="20.5624" y1="8.79119" x2="0" y2="8.79119" gradientUnits="userSpaceOnUse">
<stop stop-color="#241E25"/>
<stop offset="1" stop-color="#FEFEFE"/>
</linearGradient>
<linearGradient id="paint7_linear_3713_578" x1="20.6389" y1="8.59379" x2="0" y2="8.59379" gradientUnits="userSpaceOnUse">
<stop stop-color="#241E25"/>
<stop offset="1" stop-color="#FEFEFE"/>
</linearGradient>
</defs>
</svg>
