<svg width="1168" height="253" viewBox="0 0 1168 253" fill="none" xmlns="http://www.w3.org/2000/svg">
<g filter="url(#filter0_n_3260_1071)">
<path d="M225.398 224.052V224.053H1V224.052V86.9498V86.9486H181.338V69.4075V69.4062H245.208H245.55H254.089H322.057V69.4075V76.3571V76.3583V80.9908V80.9921V85.6246V85.6258V245.589H308.395L299.173 232.869V232.867V176.313L296.099 170.909V170.907V131.629H253.405L232.912 217.69L225.398 217.686V224.052Z" fill="#D9D9D9"/>
<path d="M322.057 85.6258V69.4075H181.338V86.9498H1V224.053H225.398V217.686L232.912 217.69L253.405 131.629H296.099V170.909L299.173 176.313V232.869L308.395 245.589H322.057V85.6258ZM322.057 85.6258V80.9921V76.3583M245.208 69.4075H245.55H254.089M299.173 232.867V176.311L296.099 170.907V131.628H253.405L232.912 217.689L225.398 217.685V224.052H1V86.9486H181.338V69.4062H245.208H245.55H254.089H322.057V76.3571V80.9908V85.6246" stroke="black"/>
</g>
<g filter="url(#filter1_n_3260_1071)">
<path d="M929.673 252.737V245.212L909.255 245.212L869.475 245.212L858.562 245.212L849.409 245.212H848.353L837.792 245.221L823.006 245.267L787.274 245.267L761.752 245.267L750.487 245.267L743.27 245.267H732.709H720.212L689.936 245.267L687.472 245.267L570.596 245.267L568.132 245.267L544.193 245.267L533.28 245.267L520.62 245.267H510.046H488.924L444.567 245.267L399.155 245.267L389.298 245.267L376.624 245.267H366.063H322.059V79.2056L388.593 79.2015H354.27H341.811V32.5597L337.9 20.9005V15.4119H341.421V7.181H343.667L344.48 5.80918L345.293 7.181H347.757V8.20987H349.517V1.00781H353.742V18.1556H411.828V79.2015H399.155H388.593L444.567 79.2056H450.552H482.587H514.622H530.816H533.632V73.5141L544.252 73.4838V79.2056H546.658H568.132H570.596H579.045H611.08H643.116H675.151H687.472H689.936H707.186H739.221H747.318H751.191V73.172H761.752V79.2056H765.272H771.257H787.274H803.292H835.679H855.393H859.022V73.172H869.475V79.2056H873.347H899.75H909.255L995.856 79.1989V74.7472H1056.41V80.3631L1049.01 82.2929V172.49H1167.65V246.221L971.213 245.212C969.384 245.212 969.453 247.592 969.453 247.592V250.336C969.453 252.712 968.045 252.737 968.045 252.737H966.637H929.673Z" fill="#D9D9D9"/>
<path d="M995.856 79.1989V74.7472H1056.41V80.3631L1049.01 82.2929V172.49H1167.65V246.221L971.213 245.212C969.384 245.212 969.453 247.592 969.453 247.592V250.336C969.453 252.712 968.045 252.737 968.045 252.737H966.637H929.673V245.212L909.255 245.212M995.856 79.1989L963.821 79.2056H931.785H909.255M995.856 79.1989L909.255 79.2056M995.856 79.1989H971.565M322.059 79.2056H386.481L388.593 79.2015M322.059 79.2056V245.267L389.298 245.267L399.155 245.267L444.567 245.267M322.059 79.2056L388.593 79.2015M341.421 15.4119H337.9V20.9005L341.811 32.5597V79.2015H354.27H399.155M341.421 15.4119V7.181H343.667L344.48 5.80918L345.293 7.181H347.757V8.20987M341.421 15.4119V18.1556H347.757V15.4119V8.20987M347.757 8.20987H349.517V1.00781H353.742V18.1556H411.828V79.2015H399.155M357.262 18.1569H359.726M362.543 18.1569H365.359M367.823 18.1569H370.64M373.104 18.1569H375.92M378.384 18.1569H381.201M383.665 18.1569H386.481M388.945 18.1569H391.41M394.226 18.1569H397.042M399.507 18.1569H402.323M404.787 18.1569H407.603M373.104 22.2596V31.5194V33.7677M373.104 22.2596H367.471M373.104 22.2596H374.221M373.104 33.7677H367.471M373.104 33.7677H374.221M362.895 22.2596H357.966V31.5194V33.7677H362.895M362.895 22.2596V31.5194V33.7677M362.895 22.2596H367.471M367.471 22.2596V31.5194V33.7677M362.895 33.7677H367.471M374.221 22.2596H374.864H379.44M374.221 22.2596V31.7841V33.7677M374.221 33.7677L379.44 33.7674M379.44 22.2596V31.7841V33.7674M379.44 22.2596H384.017M379.44 33.7674H384.017M384.017 33.7674V31.7841V22.2596M384.017 33.7674L389.65 33.7675M384.017 22.2596H389.65M389.65 33.7675V31.7841V22.2596M389.65 33.7675L390.706 33.7676M389.65 22.2596H390.706M390.706 22.2596V31.7841V33.7676M390.706 22.2596H395.986M390.706 33.7676H395.986M395.986 22.2596V31.7841V33.7676M395.986 22.2596H400.563M395.986 33.7676L400.563 33.7677M400.563 22.2596H405.843V31.7841V33.7677H400.563M400.563 22.2596V31.7841V33.7677M533.632 79.2056C533.632 76.9829 533.632 75.7367 533.632 73.5141L544.252 73.4838V79.2056M837.792 245.221L848.353 245.212M366.063 245.267H376.624M444.567 79.2056H418.517H401.971L388.593 79.2015M444.567 79.2056H450.552H482.587H514.622H530.816H546.658H568.132M444.567 79.2056V245.267M444.567 79.2056H568.132M444.567 79.2056L388.593 79.2015M444.567 245.267L488.924 245.267L533.28 245.267L544.193 245.267L568.132 245.267M510.046 245.267H520.62M568.132 79.2056V245.267M568.132 79.2056H570.596M568.132 245.267L570.596 245.267M570.596 79.2056H579.045H611.08H643.116H675.151H687.472M570.596 79.2056V245.267M570.596 79.2056H687.472M570.596 245.267L687.472 245.267M687.472 79.2056V245.267M687.472 79.2056H689.936M687.472 245.267L689.936 245.267M689.936 79.2056H707.186H739.222H747.318H751.191M689.936 79.2056V245.267M689.936 79.2056H751.191M689.936 245.267L720.212 245.267L750.487 245.267L761.752 245.267L787.274 245.267M732.709 245.267H743.27M787.274 79.2056H771.257H765.272H761.752M787.274 79.2056H803.292H835.679H855.393H859.022M787.274 79.2056V245.267M787.274 245.267L823.006 245.267L840.608 245.212H849.409L858.562 245.212L869.475 245.212L909.255 245.212M909.255 79.2056H899.75H873.347H869.475M909.255 79.2056V245.212M909.255 79.2056H869.475M388.593 79.2015V73.8561H399.155V79.2015M751.191 79.2056V73.172H761.752V79.2056M751.191 79.2056H761.752M761.752 79.2056H859.022M859.022 79.2056V73.172H869.475V79.2056M859.022 79.2056H869.475M355.15 19.8556V22.2724H356.91V33.7733L355.15 33.7674V39.0611L408.66 39.0772V33.5899L406.899 33.5738V22.2596H408.66V19.5287H355.15V19.8556Z" stroke="black" stroke-width="0.5"/>
<path d="M360.781 240.316V243.841H364.072V240.316M360.781 240.316H364.072M360.781 240.316V236.79M364.072 240.316V236.79M360.781 236.79H364.072M360.781 236.79V233.265M364.072 236.79V233.265M360.781 233.265H364.072M360.781 233.265V229.739M364.072 233.265V229.739M360.781 229.739H364.072M360.781 229.739V226.214M364.072 229.739V226.214M360.781 226.214H364.072M360.781 226.214V222.689M364.072 226.214V222.689M360.781 222.689H364.072M360.781 222.689V219.163M364.072 222.689V219.163M360.781 219.163H364.072M360.781 219.163V190.96M364.072 219.163V190.96M360.781 190.96H364.072M360.781 190.96V187.434M364.072 190.96V187.434M360.781 187.434H364.072M360.781 187.434V183.909M364.072 187.434V183.909M360.781 183.909H364.072M360.781 183.909V180.384M364.072 183.909V180.384M360.781 180.384H364.072M360.781 180.384V176.858M364.072 180.384V176.858M360.781 176.858H364.072M360.781 176.858V152.18M364.072 176.858V152.18M360.781 152.18H364.072M360.781 152.18V148.655M364.072 152.18V148.655M360.781 148.655H364.072M360.781 148.655V145.129M364.072 148.655V145.129M360.781 145.129H364.072M360.781 145.129V141.604M364.072 145.129V141.604M360.781 141.604H364.072M360.781 141.604V138.079M364.072 141.604V138.079M360.781 138.079H364.072M360.781 138.079V134.553M364.072 138.079V134.553M360.781 134.553H364.072M360.781 134.553V131.028M364.072 134.553V131.028M360.781 131.028H364.072M360.781 131.028V127.502M364.072 131.028V127.502M360.781 127.502H364.072M360.781 127.502V99.299M364.072 127.502V99.299M360.781 99.299H364.072M360.781 99.299V95.7735M364.072 99.299V95.7735M360.781 95.7735H364.072M360.781 95.7735V92.2481M364.072 95.7735V92.2481M360.781 92.2481H364.072M360.781 92.2481V88.7227M364.072 92.2481V88.7227M360.781 88.7227H364.072M360.781 88.7227V85.1973M364.072 88.7227V85.1973M360.781 85.1973H364.072M360.781 85.1973V81.6719M364.072 85.1973V81.6719M360.781 81.6719H364.072M360.781 81.6719V80.3516H364.072V81.6719" stroke="black" stroke-width="3.99987" stroke-miterlimit="22.9256"/>
<path d="M365.148 222.689V243.841H368.439V222.689M365.148 222.689H368.439M365.148 222.689V219.163M368.439 222.689V219.163M365.148 219.163H368.439M365.148 219.163V215.638M368.439 219.163V215.638M365.148 215.638H368.439M365.148 215.638V212.112M368.439 215.638V212.112M365.148 212.112H368.439M365.148 212.112V208.587M368.439 212.112V208.587M365.148 208.587H368.439M365.148 208.587V205.061M368.439 208.587V205.061M365.148 205.061H368.439M365.148 205.061V201.536M368.439 205.061V201.536M365.148 201.536H368.439M365.148 201.536V198.011M368.439 201.536V198.011M365.148 198.011H368.439M365.148 198.011V194.485M368.439 198.011V194.485M365.148 194.485H368.439M365.148 194.485V190.96M368.439 194.485V190.96M365.148 190.96H368.439M365.148 190.96V180.384M368.439 190.96V180.384M365.148 180.384H368.439M365.148 180.384V176.858M368.439 180.384V176.858M365.148 176.858H368.439M365.148 176.858V173.333M368.439 176.858V173.333M365.148 173.333H368.439M365.148 173.333V169.807M368.439 173.333V169.807M365.148 169.807H368.439M365.148 169.807V166.282M368.439 169.807V166.282M365.148 166.282H368.439M365.148 166.282V162.756M368.439 166.282V162.756M365.148 162.756H368.439M365.148 162.756V159.231M368.439 162.756V159.231M365.148 159.231H368.439M365.148 159.231V155.706M368.439 159.231V155.706M365.148 155.706H368.439M365.148 155.706V152.18M368.439 155.706V152.18M365.148 152.18H368.439M365.148 152.18V148.655M368.439 152.18V148.655M365.148 148.655H368.439M365.148 148.655V134.553M368.439 148.655V134.553M365.148 134.553H368.439M365.148 134.553V131.028M368.439 134.553V131.028M365.148 131.028H368.439M365.148 131.028V127.502M368.439 131.028V127.502M365.148 127.502H368.439M365.148 127.502V123.977M368.439 127.502V123.977M365.148 123.977H368.439M365.148 123.977V120.451M368.439 123.977V120.451M365.148 120.451H368.439M365.148 120.451V116.926M368.439 120.451V116.926M365.148 116.926H368.439M365.148 116.926V113.401M368.439 116.926V113.401M365.148 113.401H368.439M365.148 113.401V109.875M368.439 113.401V109.875M365.148 109.875H368.439M365.148 109.875V106.35M368.439 109.875V106.35M365.148 106.35H368.439M365.148 106.35V102.824M368.439 106.35V102.824M365.148 102.824H368.439M365.148 102.824V99.299M368.439 102.824V99.299M365.148 99.299H368.439M365.148 99.299V80.3516H368.439V99.299" stroke="black" stroke-width="3.99987" stroke-miterlimit="22.9256"/>
<path d="M511.453 240.316V243.841H514.744V240.316M511.453 240.316H514.744M511.453 240.316V236.79M514.744 240.316V236.79M511.453 236.79H514.744M511.453 236.79V233.265M514.744 236.79V233.265M511.453 233.265H514.744M511.453 233.265V229.739M514.744 233.265V229.739M511.453 229.739H514.744M511.453 229.739V226.214M514.744 229.739V226.214M511.453 226.214H514.744M511.453 226.214V222.689M514.744 226.214V222.689M511.453 222.689H514.744M511.453 222.689V219.163M514.744 222.689V219.163M511.453 219.163H514.744M511.453 219.163V190.96M514.744 219.163V190.96M511.453 190.96H514.744M511.453 190.96V187.434M514.744 190.96V187.434M511.453 187.434H514.744M511.453 187.434V183.909M514.744 187.434V183.909M511.453 183.909H514.744M511.453 183.909V180.384M514.744 183.909V180.384M511.453 180.384H514.744M511.453 180.384V176.858M514.744 180.384V176.858M511.453 176.858H514.744M511.453 176.858V152.18M514.744 176.858V152.18M511.453 152.18H514.744M511.453 152.18V148.655M514.744 152.18V148.655M511.453 148.655H514.744M511.453 148.655V145.129M514.744 148.655V145.129M511.453 145.129H514.744M511.453 145.129V141.604M514.744 145.129V141.604M511.453 141.604H514.744M511.453 141.604V138.079M514.744 141.604V138.079M511.453 138.079H514.744M511.453 138.079V134.553M514.744 138.079V134.553M511.453 134.553H514.744M511.453 134.553V131.028M514.744 134.553V131.028M511.453 131.028H514.744M511.453 131.028V127.502M514.744 131.028V127.502M511.453 127.502H514.744M511.453 127.502V99.299M514.744 127.502V99.299M511.453 99.299H514.744M511.453 99.299V95.7735M514.744 99.299V95.7735M511.453 95.7735H514.744M511.453 95.7735V92.2481M514.744 95.7735V92.2481M511.453 92.2481H514.744M511.453 92.2481V88.7227M514.744 92.2481V88.7227M511.453 88.7227H514.744M511.453 88.7227V85.1973M514.744 88.7227V85.1973M511.453 85.1973H514.744M511.453 85.1973V81.6719M514.744 85.1973V81.6719M511.453 81.6719H514.744M511.453 81.6719V80.3516H514.744V81.6719" stroke="black" stroke-width="3.99987" stroke-miterlimit="22.9256"/>
<path d="M515.82 222.689V243.841H519.111V222.689M515.82 222.689H519.111M515.82 222.689V219.163M519.111 222.689V219.163M515.82 219.163H519.111M515.82 219.163V215.638M519.111 219.163V215.638M515.82 215.638H519.111M515.82 215.638V212.112M519.111 215.638V212.112M515.82 212.112H519.111M515.82 212.112V208.587M519.111 212.112V208.587M515.82 208.587H519.111M515.82 208.587V205.061M519.111 208.587V205.061M515.82 205.061H519.111M515.82 205.061V201.536M519.111 205.061V201.536M515.82 201.536H519.111M515.82 201.536V198.011M519.111 201.536V198.011M515.82 198.011H519.111M515.82 198.011V194.485M519.111 198.011V194.485M515.82 194.485H519.111M515.82 194.485V190.96M519.111 194.485V190.96M515.82 190.96H519.111M515.82 190.96V180.384M519.111 190.96V180.384M515.82 180.384H519.111M515.82 180.384V176.858M519.111 180.384V176.858M515.82 176.858H519.111M515.82 176.858V173.333M519.111 176.858V173.333M515.82 173.333H519.111M515.82 173.333V169.807M519.111 173.333V169.807M515.82 169.807H519.111M515.82 169.807V166.282M519.111 169.807V166.282M515.82 166.282H519.111M515.82 166.282V162.756M519.111 166.282V162.756M515.82 162.756H519.111M515.82 162.756V159.231M519.111 162.756V159.231M515.82 159.231H519.111M515.82 159.231V155.706M519.111 159.231V155.706M515.82 155.706H519.111M515.82 155.706V152.18M519.111 155.706V152.18M515.82 152.18H519.111M515.82 152.18V148.655M519.111 152.18V148.655M515.82 148.655H519.111M515.82 148.655V134.553M519.111 148.655V134.553M515.82 134.553H519.111M515.82 134.553V131.028M519.111 134.553V131.028M515.82 131.028H519.111M515.82 131.028V127.502M519.111 131.028V127.502M515.82 127.502H519.111M515.82 127.502V123.977M519.111 127.502V123.977M515.82 123.977H519.111M515.82 123.977V120.451M519.111 123.977V120.451M515.82 120.451H519.111M515.82 120.451V116.926M519.111 120.451V116.926M515.82 116.926H519.111M515.82 116.926V113.401M519.111 116.926V113.401M515.82 113.401H519.111M515.82 113.401V109.875M519.111 113.401V109.875M515.82 109.875H519.111M515.82 109.875V106.35M519.111 109.875V106.35M515.82 106.35H519.111M515.82 106.35V102.824M519.111 106.35V102.824M515.82 102.824H519.111M515.82 102.824V99.299M519.111 102.824V99.299M515.82 99.299H519.111M515.82 99.299V80.3516H519.111V99.299" stroke="black" stroke-width="3.99987" stroke-miterlimit="22.9256"/>
<path d="M732.531 240.316V243.841H735.822V240.316M732.531 240.316H735.822M732.531 240.316V236.79M735.822 240.316V236.79M732.531 236.79H735.822M732.531 236.79V233.265M735.822 236.79V233.265M732.531 233.265H735.822M732.531 233.265V229.739M735.822 233.265V229.739M732.531 229.739H735.822M732.531 229.739V226.214M735.822 229.739V226.214M732.531 226.214H735.822M732.531 226.214V222.689M735.822 226.214V222.689M732.531 222.689H735.822M732.531 222.689V219.163M735.822 222.689V219.163M732.531 219.163H735.822M732.531 219.163V190.96M735.822 219.163V190.96M732.531 190.96H735.822M732.531 190.96V187.434M735.822 190.96V187.434M732.531 187.434H735.822M732.531 187.434V183.909M735.822 187.434V183.909M732.531 183.909H735.822M732.531 183.909V180.384M735.822 183.909V180.384M732.531 180.384H735.822M732.531 180.384V176.858M735.822 180.384V176.858M732.531 176.858H735.822M732.531 176.858V152.18M735.822 176.858V152.18M732.531 152.18H735.822M732.531 152.18V148.655M735.822 152.18V148.655M732.531 148.655H735.822M732.531 148.655V145.129M735.822 148.655V145.129M732.531 145.129H735.822M732.531 145.129V141.604M735.822 145.129V141.604M732.531 141.604H735.822M732.531 141.604V138.079M735.822 141.604V138.079M732.531 138.079H735.822M732.531 138.079V134.553M735.822 138.079V134.553M732.531 134.553H735.822M732.531 134.553V131.028M735.822 134.553V131.028M732.531 131.028H735.822M732.531 131.028V127.502M735.822 131.028V127.502M732.531 127.502H735.822M732.531 127.502V99.299M735.822 127.502V99.299M732.531 99.299H735.822M732.531 99.299V95.7735M735.822 99.299V95.7735M732.531 95.7735H735.822M732.531 95.7735V92.2481M735.822 95.7735V92.2481M732.531 92.2481H735.822M732.531 92.2481V88.7227M735.822 92.2481V88.7227M732.531 88.7227H735.822M732.531 88.7227V85.1973M735.822 88.7227V85.1973M732.531 85.1973H735.822M732.531 85.1973V81.6719M735.822 85.1973V81.6719M732.531 81.6719H735.822M732.531 81.6719V80.3516H735.822V81.6719" stroke="black" stroke-width="3.99987" stroke-miterlimit="22.9256"/>
<path d="M736.898 222.689V243.841H740.189V222.689M736.898 222.689H740.189M736.898 222.689V219.163M740.189 222.689V219.163M736.898 219.163H740.189M736.898 219.163V215.638M740.189 219.163V215.638M736.898 215.638H740.189M736.898 215.638V212.112M740.189 215.638V212.112M736.898 212.112H740.189M736.898 212.112V208.587M740.189 212.112V208.587M736.898 208.587H740.189M736.898 208.587V205.061M740.189 208.587V205.061M736.898 205.061H740.189M736.898 205.061V201.536M740.189 205.061V201.536M736.898 201.536H740.189M736.898 201.536V198.011M740.189 201.536V198.011M736.898 198.011H740.189M736.898 198.011V194.485M740.189 198.011V194.485M736.898 194.485H740.189M736.898 194.485V190.96M740.189 194.485V190.96M736.898 190.96H740.189M736.898 190.96V180.384M740.189 190.96V180.384M736.898 180.384H740.189M736.898 180.384V176.858M740.189 180.384V176.858M736.898 176.858H740.189M736.898 176.858V173.333M740.189 176.858V173.333M736.898 173.333H740.189M736.898 173.333V169.807M740.189 173.333V169.807M736.898 169.807H740.189M736.898 169.807V166.282M740.189 169.807V166.282M736.898 166.282H740.189M736.898 166.282V162.756M740.189 166.282V162.756M736.898 162.756H740.189M736.898 162.756V159.231M740.189 162.756V159.231M736.898 159.231H740.189M736.898 159.231V155.706M740.189 159.231V155.706M736.898 155.706H740.189M736.898 155.706V152.18M740.189 155.706V152.18M736.898 152.18H740.189M736.898 152.18V148.655M740.189 152.18V148.655M736.898 148.655H740.189M736.898 148.655V134.553M740.189 148.655V134.553M736.898 134.553H740.189M736.898 134.553V131.028M740.189 134.553V131.028M736.898 131.028H740.189M736.898 131.028V127.502M740.189 131.028V127.502M736.898 127.502H740.189M736.898 127.502V123.977M740.189 127.502V123.977M736.898 123.977H740.189M736.898 123.977V120.451M740.189 123.977V120.451M736.898 120.451H740.189M736.898 120.451V116.926M740.189 120.451V116.926M736.898 116.926H740.189M736.898 116.926V113.401M740.189 116.926V113.401M736.898 113.401H740.189M736.898 113.401V109.875M740.189 113.401V109.875M736.898 109.875H740.189M736.898 109.875V106.35M740.189 109.875V106.35M736.898 106.35H740.189M736.898 106.35V102.824M740.189 106.35V102.824M736.898 102.824H740.189M736.898 102.824V99.299M740.189 102.824V99.299M736.898 99.299H740.189M736.898 99.299V80.3516H740.189V99.299" stroke="black" stroke-width="3.99987" stroke-miterlimit="22.9256"/>
<path d="M839.551 240.316V243.841H842.842V240.316M839.551 240.316H842.842M839.551 240.316V236.79M842.842 240.316V236.79M839.551 236.79H842.842M839.551 236.79V233.265M842.842 236.79V233.265M839.551 233.265H842.842M839.551 233.265V229.739M842.842 233.265V229.739M839.551 229.739H842.842M839.551 229.739V226.214M842.842 229.739V226.214M839.551 226.214H842.842M839.551 226.214V222.689M842.842 226.214V222.689M839.551 222.689H842.842M839.551 222.689V219.163M842.842 222.689V219.163M839.551 219.163H842.842M839.551 219.163V190.96M842.842 219.163V190.96M839.551 190.96H842.842M839.551 190.96V187.434M842.842 190.96V187.434M839.551 187.434H842.842M839.551 187.434V183.909M842.842 187.434V183.909M839.551 183.909H842.842M839.551 183.909V180.384M842.842 183.909V180.384M839.551 180.384H842.842M839.551 180.384V176.858M842.842 180.384V176.858M839.551 176.858H842.842M839.551 176.858V152.18M842.842 176.858V152.18M839.551 152.18H842.842M839.551 152.18V148.655M842.842 152.18V148.655M839.551 148.655H842.842M839.551 148.655V145.129M842.842 148.655V145.129M839.551 145.129H842.842M839.551 145.129V141.604M842.842 145.129V141.604M839.551 141.604H842.842M839.551 141.604V138.079M842.842 141.604V138.079M839.551 138.079H842.842M839.551 138.079V134.553M842.842 138.079V134.553M839.551 134.553H842.842M839.551 134.553V131.028M842.842 134.553V131.028M839.551 131.028H842.842M839.551 131.028V127.502M842.842 131.028V127.502M839.551 127.502H842.842M839.551 127.502V99.299M842.842 127.502V99.299M839.551 99.299H842.842M839.551 99.299V95.7735M842.842 99.299V95.7735M839.551 95.7735H842.842M839.551 95.7735V92.2481M842.842 95.7735V92.2481M839.551 92.2481H842.842M839.551 92.2481V88.7227M842.842 92.2481V88.7227M839.551 88.7227H842.842M839.551 88.7227V85.1973M842.842 88.7227V85.1973M839.551 85.1973H842.842M839.551 85.1973V81.6719M842.842 85.1973V81.6719M839.551 81.6719H842.842M839.551 81.6719V80.3516H842.842V81.6719" stroke="black" stroke-width="3.99987" stroke-miterlimit="22.9256"/>
<path d="M843.918 222.689V243.841H847.209V222.689M843.918 222.689H847.209M843.918 222.689V219.163M847.209 222.689V219.163M843.918 219.163H847.209M843.918 219.163V215.638M847.209 219.163V215.638M843.918 215.638H847.209M843.918 215.638V212.112M847.209 215.638V212.112M843.918 212.112H847.209M843.918 212.112V208.587M847.209 212.112V208.587M843.918 208.587H847.209M843.918 208.587V205.061M847.209 208.587V205.061M843.918 205.061H847.209M843.918 205.061V201.536M847.209 205.061V201.536M843.918 201.536H847.209M843.918 201.536V198.011M847.209 201.536V198.011M843.918 198.011H847.209M843.918 198.011V194.485M847.209 198.011V194.485M843.918 194.485H847.209M843.918 194.485V190.96M847.209 194.485V190.96M843.918 190.96H847.209M843.918 190.96V180.384M847.209 190.96V180.384M843.918 180.384H847.209M843.918 180.384V176.858M847.209 180.384V176.858M843.918 176.858H847.209M843.918 176.858V173.333M847.209 176.858V173.333M843.918 173.333H847.209M843.918 173.333V169.807M847.209 173.333V169.807M843.918 169.807H847.209M843.918 169.807V166.282M847.209 169.807V166.282M843.918 166.282H847.209M843.918 166.282V162.756M847.209 166.282V162.756M843.918 162.756H847.209M843.918 162.756V159.231M847.209 162.756V159.231M843.918 159.231H847.209M843.918 159.231V155.706M847.209 159.231V155.706M843.918 155.706H847.209M843.918 155.706V152.18M847.209 155.706V152.18M843.918 152.18H847.209M843.918 152.18V148.655M847.209 152.18V148.655M843.918 148.655H847.209M843.918 148.655V134.553M847.209 148.655V134.553M843.918 134.553H847.209M843.918 134.553V131.028M847.209 134.553V131.028M843.918 131.028H847.209M843.918 131.028V127.502M847.209 131.028V127.502M843.918 127.502H847.209M843.918 127.502V123.977M847.209 127.502V123.977M843.918 123.977H847.209M843.918 123.977V120.451M847.209 123.977V120.451M843.918 120.451H847.209M843.918 120.451V116.926M847.209 120.451V116.926M843.918 116.926H847.209M843.918 116.926V113.401M847.209 116.926V113.401M843.918 113.401H847.209M843.918 113.401V109.875M847.209 113.401V109.875M843.918 109.875H847.209M843.918 109.875V106.35M847.209 109.875V106.35M843.918 106.35H847.209M843.918 106.35V102.824M847.209 106.35V102.824M843.918 102.824H847.209M843.918 102.824V99.299M847.209 102.824V99.299M843.918 99.299H847.209M843.918 99.299V80.3516H847.209V99.299" stroke="black" stroke-width="3.99987" stroke-miterlimit="22.9256"/>
</g>
<path d="M995.786 79.0023L963.821 79.009M995.786 79.0023V74.2076M995.786 79.0023L909.255 79.009M995.786 79.0023H971.565M322.059 79.009V74.2076M322.059 79.009H386.481M322.059 79.009H444.567M341.811 79.0049H354.27M411.828 79.0049H354.27M322.059 74.2076V69.4062H354.27M322.059 74.2076H386.481M386.481 74.2076V79.009M386.481 74.2076V69.4062M386.481 79.009H401.971M386.481 69.4062H401.971M386.481 69.4062H354.27M401.971 69.4062V74.2076M401.971 69.4062H418.517M401.971 79.009V74.2076M401.971 79.009H418.517M401.971 74.2076H418.517M530.816 74.2076V79.009M530.816 74.2076V69.4062M530.816 74.2076H514.622M530.816 79.009H514.622M530.816 79.009H546.658M530.816 69.4062H514.622M530.816 69.4062H546.658M514.622 74.2076V69.4062M514.622 74.2076V79.009M514.622 74.2076H482.587M514.622 69.4062H482.587M514.622 79.009H482.587M482.587 74.2076V69.4062M482.587 74.2076V79.009M482.587 74.2076H450.552M482.587 69.4062H450.552M482.587 79.009H450.552M450.552 74.2076V69.4062M450.552 74.2076V79.009M450.552 74.2076H418.517M450.552 69.4062H418.517M450.552 79.009H444.567M418.517 74.2076V69.4062M418.517 74.2076V79.009M418.517 79.009H444.567M546.658 79.009V74.2076M546.658 79.009H568.132M546.658 69.4062V74.2076M546.658 69.4062H579.045M546.658 74.2076H579.045M747.318 74.2076V69.4062M747.318 74.2076V79.009M747.318 74.2076H739.221M747.318 69.4062H739.221M747.318 69.4062H765.272M747.318 79.009H739.221M747.318 79.009H765.272M739.221 74.2076V69.4062M739.221 74.2076V79.009M739.221 74.2076H707.186M739.221 69.4062H707.186M739.221 79.009H707.186M707.186 74.2076V69.4062M707.186 74.2076V79.009M707.186 74.2076H675.151M707.186 69.4062H675.151M707.186 79.009H689.936M675.151 74.2076V69.4062M675.151 74.2076V79.009M675.151 74.2076H643.116M675.151 69.4062H643.116M675.151 79.009H643.116M675.151 79.009H687.472M643.116 74.2076V69.4062M643.116 74.2076V79.009M643.116 74.2076H611.08M643.116 69.4062H611.08M643.116 79.009H611.08M611.08 74.2076V69.4062M611.08 74.2076V79.009M611.08 74.2076H579.045M611.08 69.4062H579.045M611.08 79.009H579.045M579.045 74.2076V69.4062M579.045 74.2076V79.009M579.045 79.009H570.596M765.272 79.009V74.2076M765.272 79.009H771.257M765.272 69.4062V74.2076M765.272 69.4062H771.257M765.272 74.2076H771.257M855.393 74.2076V69.4062M855.393 74.2076V79.009M855.393 74.2076H835.679M855.393 69.4062H835.679M855.393 69.4062H873.347M855.393 79.009H835.679M855.393 79.009H873.347M835.679 74.2076V69.4062M835.679 74.2076V79.009M835.679 74.2076H803.292M835.679 69.4062H803.292M835.679 79.009H803.292M803.292 74.2076V69.4062M803.292 74.2076V79.009M803.292 74.2076H771.257M803.292 69.4062H771.257M803.292 79.009H787.274H771.257M771.257 74.2076V69.4062M771.257 74.2076V79.009M873.347 79.009V74.2076M873.347 79.009H899.75M873.347 69.4062V74.2076M873.347 69.4062H899.75M873.347 74.2076H899.75M899.75 74.2076V69.4062M899.75 74.2076V79.009M899.75 74.2076H931.785M899.75 69.4062H931.785M899.75 79.009H909.255M931.785 74.2076V79.009M931.785 74.2076V69.4062M931.785 74.2076H963.821M931.785 79.009H963.821M931.785 79.009H909.255M931.785 69.4062H963.821M963.821 74.2076V69.4062M963.821 74.2076V79.009M963.821 74.2076H995.786M963.821 69.4062H995.786V74.2076M354.27 69.4062V79.0049M837.792 79.0076H848.353M366.063 79.0049H376.624M444.567 79.009H568.132M510.046 79.009H520.607M568.132 79.009H570.596M570.596 79.009H687.472M687.472 79.009H689.936M689.936 79.009H909.255M732.709 79.009H743.27" stroke="black" stroke-width="1.5"/>
<g filter="url(#filter2_n_3260_1071)">
<path fill-rule="evenodd" clip-rule="evenodd" d="M389.648 74.875H398.097V244.521H389.648V74.875Z" fill="#B7BCAD"/>
<path fill-rule="evenodd" clip-rule="evenodd" d="M389.648 74.875H398.097V244.521H389.648V74.875Z" stroke="black" stroke-width="2.66682" stroke-miterlimit="22.9256" stroke-dasharray="0.04 0.04"/>
</g>
<g filter="url(#filter3_n_3260_1071)">
<path fill-rule="evenodd" clip-rule="evenodd" d="M534.688 74.1953H543.136V243.841H534.688V74.1953Z" fill="#B7BCAD"/>
<path fill-rule="evenodd" clip-rule="evenodd" d="M534.688 74.1953H543.136V243.841H534.688V74.1953Z" stroke="black" stroke-width="2.66682" stroke-miterlimit="22.9256" stroke-dasharray="0.04 0.04"/>
</g>
<g filter="url(#filter4_n_3260_1071)">
<path fill-rule="evenodd" clip-rule="evenodd" d="M752.246 74.1953H760.695V243.841H752.246V74.1953Z" fill="#B7BCAD"/>
<path fill-rule="evenodd" clip-rule="evenodd" d="M752.246 74.1953H760.695V243.841H752.246V74.1953Z" stroke="black" stroke-width="2.66682" stroke-miterlimit="22.9256" stroke-dasharray="0.04 0.04"/>
</g>
<g filter="url(#filter5_n_3260_1071)">
<path fill-rule="evenodd" clip-rule="evenodd" d="M859.969 74.1953H868.418V243.841H859.969V74.1953Z" fill="#B7BCAD"/>
<path fill-rule="evenodd" clip-rule="evenodd" d="M859.969 74.1953H868.418V243.841H859.969V74.1953Z" stroke="black" stroke-width="2.66682" stroke-miterlimit="22.9256" stroke-dasharray="0.04 0.04"/>
</g>
<path d="M358.667 33.1538V22.893H362.187V33.1538H358.667Z" fill="white"/>
<path d="M363.595 33.1538V22.893H366.764V33.1538H363.595Z" fill="white"/>
<path d="M368.172 33.1538V22.893H372.396V33.1538H368.172Z" fill="white"/>
<path d="M378.733 33.1538H374.86V22.893H378.733V33.1538Z" fill="white"/>
<path d="M383.309 22.893H380.141V33.1538H383.309V22.893Z" fill="white"/>
<path d="M388.942 22.893H384.717V33.1538H388.942V22.893Z" fill="white"/>
<path d="M395.279 22.893H391.406V33.1538H395.279V22.893Z" fill="white"/>
<path d="M399.855 22.893H396.687V33.1538H399.855V22.893Z" fill="white"/>
<path d="M405.136 22.893H401.263V33.1538H405.136V22.893Z" fill="white"/>
<path d="M342.121 17.4205V7.84375H347.05V17.4205H342.121Z" fill="white"/>
<path d="M358.667 33.1538V22.893H362.187V33.1538H358.667Z" stroke="black" stroke-width="0.2"/>
<path d="M363.595 33.1538V22.893H366.764V33.1538H363.595Z" stroke="black" stroke-width="0.2"/>
<path d="M368.172 33.1538V22.893H372.396V33.1538H368.172Z" stroke="black" stroke-width="0.2"/>
<path d="M378.733 33.1538H374.86V22.893H378.733V33.1538Z" stroke="black" stroke-width="0.2"/>
<path d="M383.309 22.893H380.141V33.1538H383.309V22.893Z" stroke="black" stroke-width="0.2"/>
<path d="M388.942 22.893H384.717V33.1538H388.942V22.893Z" stroke="black" stroke-width="0.2"/>
<path d="M395.279 22.893H391.406V33.1538H395.279V22.893Z" stroke="black" stroke-width="0.2"/>
<path d="M399.855 22.893H396.687V33.1538H399.855V22.893Z" stroke="black" stroke-width="0.2"/>
<path d="M405.136 22.893H401.263V33.1538H405.136V22.893Z" stroke="black" stroke-width="0.2"/>
<path d="M342.121 17.4205V7.84375H347.05V17.4205H342.121Z" stroke="black" stroke-width="0.2"/>
<g filter="url(#filter6_n_3260_1071)">
<path fill-rule="evenodd" clip-rule="evenodd" d="M391.406 10.066L391.644 9.74066H394.514L394.973 10.3676V10.864L394.514 16.7333H396.795L396.337 10.864V10.3676L396.795 9.74066H399.665L400.124 10.3676V10.864L399.665 16.7333H401.946L401.487 10.864V10.3676L401.946 9.74066H404.816L405.275 10.3676V10.864L404.816 16.7333H407.097L406.639 10.864V10.3676L407.097 9.74066L407.696 9.30642H409.53L409.932 9.74066H411.828V1H409.932V7.043H404.877V8.42427H391.406H360.739V7.043H354.913V1H353.742V2.29493V9.74066H358.458L358.917 10.3676V10.864L358.458 16.7333H360.739L360.28 10.864V10.3676L360.739 9.74066H363.561H363.609L364.067 10.3676V10.864L363.609 16.7333H365.89L365.431 10.864V10.3676L365.89 9.74066H368.76L369.218 10.3676V10.864L368.76 16.7333H371.041L370.582 10.864V10.3676L371.041 9.74066H373.911L374.369 10.3676V10.864L373.911 16.7333H376.192L375.733 10.864V10.3676L376.192 9.74066H379.062L379.52 10.3676V10.864L379.062 16.7333H381.342L380.884 10.864V10.3676L381.342 9.74066H384.212L384.671 10.3676V10.864L384.212 16.7333H386.493L386.035 10.864V10.3676L386.493 9.74066H389.363L389.822 10.3676V10.864L389.363 16.7333H391.406V13.6875L391.186 10.864V10.3676L391.406 10.066Z" fill="#D9D9D9"/>
<path d="M411.828 9.74066V1H409.932V7.043H404.877V8.42427H391.406H360.739V7.043H354.913V1H353.742V2.29493V9.74066H358.458L358.917 10.3676V10.864L358.458 16.7333H360.739L360.28 10.864V10.3676L360.739 9.74066H363.561H363.609L364.067 10.3676V10.864L363.609 16.7333H365.89L365.431 10.864V10.3676L365.89 9.74066H368.76L369.218 10.3676V10.864L368.76 16.7333H371.041L370.582 10.864V10.3676L371.041 9.74066H373.911L374.369 10.3676V10.864L373.911 16.7333H376.192L375.733 10.864V10.3676L376.192 9.74066H379.062L379.52 10.3676V10.864L379.062 16.7333H381.342L380.884 10.864V10.3676L381.342 9.74066H384.212L384.671 10.3676V10.864L384.212 16.7333H386.493L386.035 10.864V10.3676L386.493 9.74066H389.363L389.822 10.3676V10.864L389.363 16.7333H391.406V13.6875L391.186 10.864V10.3676L391.406 10.066L391.644 9.74066H394.514L394.973 10.3676V10.864L394.514 16.7333H396.795L396.337 10.864V10.3676L396.795 9.74066H399.665L400.124 10.3676V10.864L399.665 16.7333H401.946L401.487 10.864V10.3676L401.946 9.74066H404.816L405.275 10.3676V10.864L404.816 16.7333H407.097L406.639 10.864V10.3676L407.097 9.74066L407.696 9.30642H409.53L409.932 9.74066H411.828ZM411.828 9.74066V17.7594" stroke="black" stroke-miterlimit="22.9256"/>
</g>
<defs>
<filter id="filter0_n_3260_1071" x="0.5" y="68.9062" width="322.059" height="177.18" filterUnits="userSpaceOnUse" color-interpolation-filters="sRGB">
<feFlood flood-opacity="0" result="BackgroundImageFix"/>
<feBlend mode="normal" in="SourceGraphic" in2="BackgroundImageFix" result="shape"/>
<feTurbulence type="fractalNoise" baseFrequency="1 1" stitchTiles="stitch" numOctaves="3" result="noise" seed="16" />
<feColorMatrix in="noise" type="luminanceToAlpha" result="alphaNoise" />
<feComponentTransfer in="alphaNoise" result="coloredNoise1">
<feFuncA type="discrete" tableValues="1 1 1 1 1 1 1 1 1 1 1 1 1 1 1 1 1 1 1 1 1 1 1 1 1 1 1 1 1 1 1 1 1 1 1 1 1 1 1 1 1 1 1 1 1 1 1 1 1 1 1 0 0 0 0 0 0 0 0 0 0 0 0 0 0 0 0 0 0 0 0 0 0 0 0 0 0 0 0 0 0 0 0 0 0 0 0 0 0 0 0 0 0 0 0 0 0 0 0 0 "/>
</feComponentTransfer>
<feComposite operator="in" in2="shape" in="coloredNoise1" result="noise1Clipped" />
<feFlood flood-color="rgba(0, 0, 0, 0.25)" result="color1Flood" />
<feComposite operator="in" in2="noise1Clipped" in="color1Flood" result="color1" />
<feMerge result="effect1_noise_3260_1071">
<feMergeNode in="shape" />
<feMergeNode in="color1" />
</feMerge>
</filter>
<filter id="filter1_n_3260_1071" x="317.809" y="-3.24219" width="854.09" height="260.227" filterUnits="userSpaceOnUse" color-interpolation-filters="sRGB">
<feFlood flood-opacity="0" result="BackgroundImageFix"/>
<feBlend mode="normal" in="SourceGraphic" in2="BackgroundImageFix" result="shape"/>
<feTurbulence type="fractalNoise" baseFrequency="1 1" stitchTiles="stitch" numOctaves="3" result="noise" seed="6047" />
<feColorMatrix in="noise" type="luminanceToAlpha" result="alphaNoise" />
<feComponentTransfer in="alphaNoise" result="coloredNoise1">
<feFuncA type="discrete" tableValues="1 1 1 1 1 1 1 1 1 1 1 1 1 1 1 1 1 1 1 1 1 1 1 1 1 1 1 1 1 1 1 1 1 1 1 1 1 1 1 1 1 1 1 1 1 1 1 1 1 1 1 0 0 0 0 0 0 0 0 0 0 0 0 0 0 0 0 0 0 0 0 0 0 0 0 0 0 0 0 0 0 0 0 0 0 0 0 0 0 0 0 0 0 0 0 0 0 0 0 0 "/>
</feComponentTransfer>
<feComposite operator="in" in2="shape" in="coloredNoise1" result="noise1Clipped" />
<feFlood flood-color="rgba(0, 0, 0, 0.25)" result="color1Flood" />
<feComposite operator="in" in2="noise1Clipped" in="color1Flood" result="color1" />
<feMerge result="effect1_noise_3260_1071">
<feMergeNode in="shape" />
<feMergeNode in="color1" />
</feMerge>
</filter>
<filter id="filter2_n_3260_1071" x="388.316" y="73.5391" width="11.1133" height="172.312" filterUnits="userSpaceOnUse" color-interpolation-filters="sRGB">
<feFlood flood-opacity="0" result="BackgroundImageFix"/>
<feBlend mode="normal" in="SourceGraphic" in2="BackgroundImageFix" result="shape"/>
<feTurbulence type="fractalNoise" baseFrequency="1 1" stitchTiles="stitch" numOctaves="3" result="noise" seed="8751" />
<feColorMatrix in="noise" type="luminanceToAlpha" result="alphaNoise" />
<feComponentTransfer in="alphaNoise" result="coloredNoise1">
<feFuncA type="discrete" tableValues="1 1 1 1 1 1 1 1 1 1 1 1 1 1 1 1 1 1 1 1 1 1 1 1 1 1 1 1 1 1 1 1 1 1 1 1 1 1 1 1 1 1 1 1 1 1 1 1 1 1 1 0 0 0 0 0 0 0 0 0 0 0 0 0 0 0 0 0 0 0 0 0 0 0 0 0 0 0 0 0 0 0 0 0 0 0 0 0 0 0 0 0 0 0 0 0 0 0 0 0 "/>
</feComponentTransfer>
<feComposite operator="in" in2="shape" in="coloredNoise1" result="noise1Clipped" />
<feFlood flood-color="rgba(0, 0, 0, 0.25)" result="color1Flood" />
<feComposite operator="in" in2="noise1Clipped" in="color1Flood" result="color1" />
<feMerge result="effect1_noise_3260_1071">
<feMergeNode in="shape" />
<feMergeNode in="color1" />
</feMerge>
</filter>
<filter id="filter3_n_3260_1071" x="533.355" y="72.8594" width="11.1133" height="172.312" filterUnits="userSpaceOnUse" color-interpolation-filters="sRGB">
<feFlood flood-opacity="0" result="BackgroundImageFix"/>
<feBlend mode="normal" in="SourceGraphic" in2="BackgroundImageFix" result="shape"/>
<feTurbulence type="fractalNoise" baseFrequency="1 1" stitchTiles="stitch" numOctaves="3" result="noise" seed="8751" />
<feColorMatrix in="noise" type="luminanceToAlpha" result="alphaNoise" />
<feComponentTransfer in="alphaNoise" result="coloredNoise1">
<feFuncA type="discrete" tableValues="1 1 1 1 1 1 1 1 1 1 1 1 1 1 1 1 1 1 1 1 1 1 1 1 1 1 1 1 1 1 1 1 1 1 1 1 1 1 1 1 1 1 1 1 1 1 1 1 1 1 1 0 0 0 0 0 0 0 0 0 0 0 0 0 0 0 0 0 0 0 0 0 0 0 0 0 0 0 0 0 0 0 0 0 0 0 0 0 0 0 0 0 0 0 0 0 0 0 0 0 "/>
</feComponentTransfer>
<feComposite operator="in" in2="shape" in="coloredNoise1" result="noise1Clipped" />
<feFlood flood-color="rgba(0, 0, 0, 0.25)" result="color1Flood" />
<feComposite operator="in" in2="noise1Clipped" in="color1Flood" result="color1" />
<feMerge result="effect1_noise_3260_1071">
<feMergeNode in="shape" />
<feMergeNode in="color1" />
</feMerge>
</filter>
<filter id="filter4_n_3260_1071" x="750.914" y="72.8594" width="11.1133" height="172.312" filterUnits="userSpaceOnUse" color-interpolation-filters="sRGB">
<feFlood flood-opacity="0" result="BackgroundImageFix"/>
<feBlend mode="normal" in="SourceGraphic" in2="BackgroundImageFix" result="shape"/>
<feTurbulence type="fractalNoise" baseFrequency="1 1" stitchTiles="stitch" numOctaves="3" result="noise" seed="8751" />
<feColorMatrix in="noise" type="luminanceToAlpha" result="alphaNoise" />
<feComponentTransfer in="alphaNoise" result="coloredNoise1">
<feFuncA type="discrete" tableValues="1 1 1 1 1 1 1 1 1 1 1 1 1 1 1 1 1 1 1 1 1 1 1 1 1 1 1 1 1 1 1 1 1 1 1 1 1 1 1 1 1 1 1 1 1 1 1 1 1 1 1 0 0 0 0 0 0 0 0 0 0 0 0 0 0 0 0 0 0 0 0 0 0 0 0 0 0 0 0 0 0 0 0 0 0 0 0 0 0 0 0 0 0 0 0 0 0 0 0 0 "/>
</feComponentTransfer>
<feComposite operator="in" in2="shape" in="coloredNoise1" result="noise1Clipped" />
<feFlood flood-color="rgba(0, 0, 0, 0.25)" result="color1Flood" />
<feComposite operator="in" in2="noise1Clipped" in="color1Flood" result="color1" />
<feMerge result="effect1_noise_3260_1071">
<feMergeNode in="shape" />
<feMergeNode in="color1" />
</feMerge>
</filter>
<filter id="filter5_n_3260_1071" x="858.637" y="72.8594" width="11.1133" height="172.312" filterUnits="userSpaceOnUse" color-interpolation-filters="sRGB">
<feFlood flood-opacity="0" result="BackgroundImageFix"/>
<feBlend mode="normal" in="SourceGraphic" in2="BackgroundImageFix" result="shape"/>
<feTurbulence type="fractalNoise" baseFrequency="1 1" stitchTiles="stitch" numOctaves="3" result="noise" seed="8751" />
<feColorMatrix in="noise" type="luminanceToAlpha" result="alphaNoise" />
<feComponentTransfer in="alphaNoise" result="coloredNoise1">
<feFuncA type="discrete" tableValues="1 1 1 1 1 1 1 1 1 1 1 1 1 1 1 1 1 1 1 1 1 1 1 1 1 1 1 1 1 1 1 1 1 1 1 1 1 1 1 1 1 1 1 1 1 1 1 1 1 1 1 0 0 0 0 0 0 0 0 0 0 0 0 0 0 0 0 0 0 0 0 0 0 0 0 0 0 0 0 0 0 0 0 0 0 0 0 0 0 0 0 0 0 0 0 0 0 0 0 0 "/>
</feComponentTransfer>
<feComposite operator="in" in2="shape" in="coloredNoise1" result="noise1Clipped" />
<feFlood flood-color="rgba(0, 0, 0, 0.25)" result="color1Flood" />
<feComposite operator="in" in2="noise1Clipped" in="color1Flood" result="color1" />
<feMerge result="effect1_noise_3260_1071">
<feMergeNode in="shape" />
<feMergeNode in="color1" />
</feMerge>
</filter>
<filter id="filter6_n_3260_1071" x="353.242" y="0.5" width="59.0859" height="17.2578" filterUnits="userSpaceOnUse" color-interpolation-filters="sRGB">
<feFlood flood-opacity="0" result="BackgroundImageFix"/>
<feBlend mode="normal" in="SourceGraphic" in2="BackgroundImageFix" result="shape"/>
<feTurbulence type="fractalNoise" baseFrequency="2 2" stitchTiles="stitch" numOctaves="3" result="noise" seed="4692" />
<feColorMatrix in="noise" type="luminanceToAlpha" result="alphaNoise" />
<feComponentTransfer in="alphaNoise" result="coloredNoise1">
<feFuncA type="discrete" tableValues="1 1 1 1 1 1 1 1 1 1 1 1 1 1 1 1 1 1 1 1 1 1 1 1 1 1 1 1 1 1 1 1 1 1 1 1 1 1 1 1 1 1 1 1 1 1 1 1 1 1 1 0 0 0 0 0 0 0 0 0 0 0 0 0 0 0 0 0 0 0 0 0 0 0 0 0 0 0 0 0 0 0 0 0 0 0 0 0 0 0 0 0 0 0 0 0 0 0 0 0 "/>
</feComponentTransfer>
<feComposite operator="in" in2="shape" in="coloredNoise1" result="noise1Clipped" />
<feFlood flood-color="rgba(0, 0, 0, 0.25)" result="color1Flood" />
<feComposite operator="in" in2="noise1Clipped" in="color1Flood" result="color1" />
<feMerge result="effect1_noise_3260_1071">
<feMergeNode in="shape" />
<feMergeNode in="color1" />
</feMerge>
</filter>
</defs>
</svg>
