<svg width="298" height="470" viewBox="0 0 298 470" fill="none" xmlns="http://www.w3.org/2000/svg">
<path d="M288.543 462.906H9.45714C4.80571 462.906 1 463.507 1 464.24V468.243C1 468.976 4.80571 469.577 9.45714 469.577H288.543C293.194 469.577 297 468.976 297 468.243V464.24C297 463.507 293.194 462.906 288.543 462.906Z" fill="url(#paint0_linear_3822_1206)" stroke="black" stroke-width="0.75" stroke-miterlimit="10" stroke-linecap="round" stroke-linejoin="round"/>
<path d="M55.7891 1.01886L55.7891 452.938L51.8938 452.938L51.8938 1.01886L55.7891 1.01886Z" fill="#606060" stroke="#C0C0C0" stroke-opacity="0.99"/>
<path d="M51.9414 1.00134L51.9414 452.969L44.3964 452.969L44.3964 1.00134L51.9414 1.00134Z" fill="#B2B2B2" stroke="#C0C0C0" stroke-width="0.659414"/>
<path d="M51.5623 369.334L49.8022 369.406C49.1133 367.526 48.4327 365.606 49.8022 362.416L51.582 362.416L51.5623 369.334Z" fill="#C0C0C0"/>
<path d="M49.926 369.403L49.2302 369.484C48.9581 367.586 48.689 365.647 49.2302 362.427L49.9336 362.427L49.926 369.403Z" fill="black"/>
<path d="M51.5584 350.116L49.7982 350.188C49.1094 348.308 48.4288 346.387 49.7982 343.197L51.5781 343.197L51.5584 350.116Z" fill="#CCCCCC"/>
<path d="M49.9221 350.184L49.2263 350.266C48.9542 348.368 48.6851 346.428 49.2263 343.208L49.9297 343.208L49.9221 350.184Z" fill="black"/>
<path d="M51.5584 330.733L49.7982 330.805C49.1094 328.925 48.4288 327.004 49.7982 323.814L51.5781 323.814L51.5584 330.733Z" fill="#CCCCCC"/>
<path d="M49.9221 330.801L49.2263 330.883C48.9542 328.985 48.6851 327.046 49.2263 323.825L49.9297 323.825L49.9221 330.801Z" fill="black"/>
<path d="M51.5584 311.85L49.7982 311.922C49.1094 310.042 48.4288 308.121 49.7982 304.931L51.5781 304.931L51.5584 311.85Z" fill="#CCCCCC"/>
<path d="M49.9221 311.918L49.2263 312C48.9542 310.102 48.6851 308.163 49.2263 304.942L49.9297 304.942L49.9221 311.918Z" fill="black"/>
<path d="M51.5584 292.334L49.7982 292.406C49.1094 290.526 48.4288 288.606 49.7982 285.416L51.5781 285.416L51.5584 292.334Z" fill="#CCCCCC"/>
<path d="M49.9221 292.403L49.2263 292.484C48.9542 290.586 48.6851 288.647 49.2263 285.427L49.9297 285.427L49.9221 292.403Z" fill="black"/>
<path d="M51.5584 273.108L49.7982 273.18C49.1094 271.3 48.4288 269.379 49.7982 266.189L51.5781 266.189L51.5584 273.108Z" fill="#CCCCCC"/>
<path d="M49.9221 273.176L49.2263 273.258C48.9542 271.36 48.6851 269.421 49.2263 266.2L49.9297 266.2L49.9221 273.176Z" fill="black"/>
<path d="M51.5584 253.717L49.7982 253.789C49.1094 251.909 48.4288 249.988 49.7982 246.798L51.5781 246.798L51.5584 253.717Z" fill="#CCCCCC"/>
<path d="M49.9221 253.785L49.2263 253.867C48.9542 251.969 48.6851 250.03 49.2263 246.809L49.9297 246.809L49.9221 253.785Z" fill="black"/>
<path d="M51.5584 234.842L49.7982 234.914C49.1094 233.034 48.4288 231.113 49.7982 227.923L51.5781 227.923L51.5584 234.842Z" fill="#CCCCCC"/>
<path d="M49.9221 234.91L49.2263 234.992C48.9542 233.094 48.6851 231.155 49.2263 227.934L49.9297 227.934L49.9221 234.91Z" fill="black"/>
<path d="M51.5584 215.694L49.7982 215.766C49.1094 213.886 48.4288 211.965 49.7982 208.775L51.5781 208.775L51.5584 215.694Z" fill="#CCCCCC"/>
<path d="M49.9221 215.762L49.2263 215.844C48.9542 213.946 48.6851 212.007 49.2263 208.786L49.9297 208.786L49.9221 215.762Z" fill="black"/>
<path d="M51.5584 196.17L49.7982 196.242C49.1094 194.362 48.4288 192.441 49.7982 189.252L51.5781 189.252L51.5584 196.17Z" fill="#CCCCCC"/>
<path d="M49.9221 196.239L49.2263 196.32C48.9542 194.422 48.6851 192.483 49.2263 189.263L49.9297 189.263L49.9221 196.239Z" fill="black"/>
<path d="M51.5584 176.952L49.7982 177.023C49.1094 175.144 48.4288 173.223 49.7982 170.033L51.5781 170.033L51.5584 176.952Z" fill="#CCCCCC"/>
<path d="M49.9221 177.02L49.2263 177.102C48.9542 175.204 48.6851 173.264 49.2263 170.044L49.9297 170.044L49.9221 177.02Z" fill="black"/>
<path d="M51.5584 157.561L49.7982 157.633C49.1094 155.753 48.4288 153.832 49.7982 150.642L51.5781 150.642L51.5584 157.561Z" fill="#CCCCCC"/>
<path d="M49.9221 157.629L49.2263 157.711C48.9542 155.813 48.6851 153.874 49.2263 150.653L49.9297 150.653L49.9221 157.629Z" fill="black"/>
<path d="M51.5584 138.686L49.7982 138.758C49.1094 136.878 48.4288 134.957 49.7982 131.767L51.5781 131.767L51.5584 138.686Z" fill="#CCCCCC"/>
<path d="M49.9221 138.754L49.2263 138.836C48.9542 136.938 48.6851 134.999 49.2263 131.778L49.9297 131.778L49.9221 138.754Z" fill="black"/>
<path d="M51.5584 118.639L49.7982 118.711C49.1094 116.831 48.4288 114.91 49.7982 111.72L51.5781 111.72L51.5584 118.639Z" fill="#CCCCCC"/>
<path d="M49.9221 118.707L49.2263 118.789C48.9542 116.891 48.6851 114.952 49.2263 111.731L49.9297 111.731L49.9221 118.707Z" fill="black"/>
<path d="M51.5584 99.2407L49.7982 99.3125C49.1094 97.4326 48.4288 95.5118 49.7982 92.3219L51.5781 92.3219L51.5584 99.2407Z" fill="#CCCCCC"/>
<path d="M49.9221 99.3088L49.2263 99.3906C48.9542 97.4926 48.6851 95.5535 49.2263 92.3329L49.9297 92.3329L49.9221 99.3088Z" fill="black"/>
<path d="M51.5584 80.3735L49.7982 80.4453C49.1094 78.5654 48.4288 76.6446 49.7982 73.4547L51.5781 73.4547L51.5584 80.3735Z" fill="#CCCCCC"/>
<path d="M49.9221 80.4417L49.2263 80.5234C48.9542 78.6254 48.6851 76.6863 49.2263 73.4657L49.9297 73.4657L49.9221 80.4417Z" fill="black"/>
<path d="M51.5584 22.4985L49.7982 22.5703C49.1094 20.6904 48.4288 18.7696 49.7982 15.5797L51.5781 15.5797L51.5584 22.4985Z" fill="#CCCCCC"/>
<path d="M49.9221 22.5667L49.2263 22.6484C48.9542 20.7504 48.6851 18.8113 49.2263 15.5907L49.9297 15.5907L49.9221 22.5667Z" fill="black"/>
<path d="M51.617 61.3423L49.8568 61.4141C49.168 59.5342 48.4874 57.6133 49.8568 54.4235L51.6367 54.4235L51.617 61.3423Z" fill="#CCCCCC"/>
<path d="M49.9807 61.4104L49.2849 61.4922C49.0128 59.5942 48.7436 57.655 49.2849 54.4345L49.9883 54.4345L49.9807 61.4104Z" fill="black"/>
<path d="M51.6405 41.5298L49.8803 41.6016C49.1914 39.7217 48.5109 37.8008 49.8803 34.611L51.6602 34.611L51.6405 41.5298Z" fill="#CCCCCC"/>
<path d="M50.0041 41.5979L49.3083 41.6797C49.0362 39.7817 48.7671 37.8425 49.3083 34.622L50.0117 34.622L50.0041 41.5979Z" fill="black"/>
<path d="M55.8047 1.04229L55.8047 452.961L59.6998 452.961L59.6998 1.04229L55.8047 1.04229Z" fill="#656564" stroke="#C0C0C0" stroke-opacity="0.99"/>
<path d="M59.6523 1.02478L59.6523 452.992L67.1974 452.992L67.1974 1.02478L59.6523 1.02478Z" fill="#B2B2B2" stroke="#C0C0C0" stroke-width="0.659414"/>
<path d="M60.0353 369.366L61.7955 369.437C62.4844 367.558 63.1649 365.637 61.7955 362.447L60.0156 362.447L60.0353 369.366Z" fill="#CCCCCC"/>
<path d="M61.6795 369.434L62.3753 369.516C62.6474 367.618 62.9165 365.678 62.3753 362.458L61.6719 362.458L61.6795 369.434Z" fill="black"/>
<path d="M60.0314 350.139L61.7916 350.211C62.4805 348.331 63.161 346.41 61.7916 343.22L60.0117 343.22L60.0314 350.139Z" fill="#CCCCCC"/>
<path d="M61.6717 350.207L62.3674 350.289C62.6396 348.391 62.9087 346.452 62.3674 343.231L61.6641 343.231L61.6717 350.207Z" fill="black"/>
<path d="M60.0314 330.749L61.7916 330.82C62.4805 328.94 63.161 327.02 61.7916 323.83L60.0117 323.83L60.0314 330.749Z" fill="#CCCCCC"/>
<path d="M61.6717 330.817L62.3674 330.898C62.6396 329 62.9087 327.061 62.3674 323.841L61.6641 323.841L61.6717 330.817Z" fill="black"/>
<path d="M60.0314 311.874L61.7916 311.945C62.4805 310.065 63.161 308.145 61.7916 304.955L60.0117 304.955L60.0314 311.874Z" fill="#CCCCCC"/>
<path d="M61.6717 311.942L62.3674 312.023C62.6396 310.125 62.9087 308.186 62.3674 304.966L61.6641 304.966L61.6717 311.942Z" fill="black"/>
<path d="M60.0314 292.35L61.7916 292.422C62.4805 290.542 63.161 288.621 61.7916 285.431L60.0117 285.431L60.0314 292.35Z" fill="#CCCCCC"/>
<path d="M61.6717 292.418L62.3674 292.5C62.6396 290.602 62.9087 288.663 62.3674 285.442L61.6641 285.442L61.6717 292.418Z" fill="black"/>
<path d="M60.0314 273.131L61.7916 273.203C62.4805 271.323 63.161 269.402 61.7916 266.213L60.0117 266.213L60.0314 273.131Z" fill="#CCCCCC"/>
<path d="M61.6717 273.199L62.3674 273.281C62.6396 271.383 62.9087 269.444 62.3674 266.224L61.6641 266.224L61.6717 273.199Z" fill="black"/>
<path d="M60.0353 253.741L61.7955 253.812C62.4844 251.933 63.1649 250.012 61.7955 246.822L60.0156 246.822L60.0353 253.741Z" fill="#CCCCCC"/>
<path d="M61.6795 253.809L62.3753 253.891C62.6474 251.993 62.9165 250.053 62.3753 246.833L61.6719 246.833L61.6795 253.809Z" fill="black"/>
<path d="M60.0353 234.866L61.7955 234.937C62.4844 233.058 63.1649 231.137 61.7955 227.947L60.0156 227.947L60.0353 234.866Z" fill="#CCCCCC"/>
<path d="M61.6795 234.934L62.3753 235.016C62.6474 233.118 62.9165 231.178 62.3753 227.958L61.6719 227.958L61.6795 234.934Z" fill="black"/>
<path d="M60.0314 215.717L61.7916 215.789C62.4805 213.909 63.161 211.988 61.7916 208.798L60.0117 208.798L60.0314 215.717Z" fill="#CCCCCC"/>
<path d="M61.6717 215.785L62.3674 215.867C62.6396 213.969 62.9087 212.03 62.3674 208.809L61.6641 208.809L61.6717 215.785Z" fill="black"/>
<path d="M60.0314 196.202L61.7916 196.273C62.4805 194.394 63.161 192.473 61.7916 189.283L60.0117 189.283L60.0314 196.202Z" fill="#CCCCCC"/>
<path d="M61.6717 196.27L62.3674 196.352C62.6396 194.454 62.9087 192.514 62.3674 189.294L61.6641 189.294L61.6717 196.27Z" fill="black"/>
<path d="M60.0313 176.975L61.7916 177.047C62.4805 175.167 63.161 173.246 61.7916 170.056L60.0117 170.056L60.0313 176.975Z" fill="#CCCCCC"/>
<path d="M61.6717 177.043L62.3673 177.125C62.6395 175.227 62.9086 173.288 62.3673 170.067L61.6641 170.067L61.6717 177.043Z" fill="black"/>
<path d="M60.0314 157.584L61.7916 157.656C62.4805 155.776 63.161 153.856 61.7916 150.666L60.0117 150.666L60.0314 157.584Z" fill="#CCCCCC"/>
<path d="M61.6717 157.66L62.3674 157.742C62.6396 155.844 62.9087 153.905 62.3674 150.684L61.6641 150.684L61.6717 157.66Z" fill="black"/>
<path d="M60.0314 138.717L61.7916 138.789C62.4805 136.909 63.161 134.988 61.7916 131.798L60.0117 131.798L60.0314 138.717Z" fill="#CCCCCC"/>
<path d="M61.6717 138.785L62.3674 138.867C62.6396 136.969 62.9087 135.03 62.3674 131.809L61.6641 131.809L61.6717 138.785Z" fill="black"/>
<path d="M60.0314 118.663L61.7916 118.734C62.4805 116.854 63.161 114.934 61.7916 111.744L60.0117 111.744L60.0314 118.663Z" fill="#CCCCCC"/>
<path d="M61.6717 118.731L62.3674 118.812C62.6396 116.914 62.9087 114.975 62.3674 111.755L61.6641 111.755L61.6717 118.731Z" fill="black"/>
<path d="M60.0353 99.272L61.7955 99.3437C62.4844 97.4639 63.1649 95.543 61.7955 92.3532L60.0156 92.3532L60.0353 99.272Z" fill="#CCCCCC"/>
<path d="M61.6795 99.3401L62.3753 99.4219C62.6474 97.5239 62.9165 95.5847 62.3753 92.3642L61.6719 92.3642L61.6795 99.3401Z" fill="black"/>
<path d="M60.0314 80.3891L61.7916 80.4609C62.4805 78.581 63.161 76.6602 61.7916 73.4704L60.0117 73.4704L60.0314 80.3891Z" fill="#CCCCCC"/>
<path d="M61.6717 80.4573L62.3674 80.5391C62.6396 78.6411 62.9087 76.7019 62.3674 73.4814L61.6641 73.4814L61.6717 80.4573Z" fill="black"/>
<path d="M60.0314 22.522L61.7916 22.5937C62.4805 20.7139 63.161 18.793 61.7916 15.6032L60.0117 15.6032L60.0314 22.522Z" fill="#CCCCCC"/>
<path d="M61.6717 22.5901L62.3674 22.6719C62.6396 20.7739 62.9087 18.8347 62.3674 15.6142L61.6641 15.6142L61.6717 22.5901Z" fill="black"/>
<path d="M60.008 61.4595L61.7682 61.5312C62.457 59.6514 63.1376 57.7305 61.7682 54.5407L59.9883 54.5407L60.008 61.4595Z" fill="#CCCCCC"/>
<path d="M61.6443 61.5276L62.3401 61.6094C62.6122 59.7114 62.8814 57.7722 62.3401 54.5517L61.6367 54.5517L61.6443 61.5276Z" fill="black"/>
<path d="M59.9884 41.7563L61.7486 41.8281C62.4375 39.9482 63.118 38.0274 61.7486 34.8375L59.9687 34.8375L59.9884 41.7563Z" fill="#CCCCCC"/>
<path d="M61.6248 41.8245L62.3206 41.9062C62.5927 40.0082 62.8618 38.0691 62.3206 34.8486L61.6172 34.8486L61.6248 41.8245Z" fill="black"/>
<path d="M243.215 1.01886L243.215 452.938L239.32 452.938L239.32 1.01886L243.215 1.01886Z" fill="#606060" stroke="#C0C0C0" stroke-opacity="0.99"/>
<path d="M239.367 1.00134L239.367 452.969L231.822 452.969L231.822 1.00134L239.367 1.00134Z" fill="#B2B2B2" stroke="#C0C0C0" stroke-width="0.659414"/>
<path d="M238.988 369.334L237.228 369.406C236.539 367.526 235.859 365.606 237.228 362.416L239.008 362.416L238.988 369.334Z" fill="#C0C0C0"/>
<path d="M237.352 369.403L236.656 369.484C236.384 367.586 236.115 365.647 236.656 362.427L237.359 362.427L237.352 369.403Z" fill="black"/>
<path d="M238.988 350.116L237.228 350.188C236.539 348.308 235.859 346.387 237.228 343.197L239.008 343.197L238.988 350.116Z" fill="#CCCCCC"/>
<path d="M237.352 350.184L236.656 350.266C236.384 348.368 236.115 346.428 236.656 343.208L237.359 343.208L237.352 350.184Z" fill="black"/>
<path d="M238.988 330.733L237.228 330.805C236.539 328.925 235.859 327.004 237.228 323.814L239.008 323.814L238.988 330.733Z" fill="#CCCCCC"/>
<path d="M237.352 330.801L236.656 330.883C236.384 328.985 236.115 327.046 236.656 323.825L237.359 323.825L237.352 330.801Z" fill="black"/>
<path d="M238.988 311.85L237.228 311.922C236.539 310.042 235.859 308.121 237.228 304.931L239.008 304.931L238.988 311.85Z" fill="#CCCCCC"/>
<path d="M237.352 311.918L236.656 312C236.384 310.102 236.115 308.163 236.656 304.942L237.359 304.942L237.352 311.918Z" fill="black"/>
<path d="M238.988 292.334L237.228 292.406C236.539 290.526 235.859 288.606 237.228 285.416L239.008 285.416L238.988 292.334Z" fill="#CCCCCC"/>
<path d="M237.352 292.403L236.656 292.484C236.384 290.586 236.115 288.647 236.656 285.427L237.359 285.427L237.352 292.403Z" fill="black"/>
<path d="M238.988 273.108L237.228 273.18C236.539 271.3 235.859 269.379 237.228 266.189L239.008 266.189L238.988 273.108Z" fill="#CCCCCC"/>
<path d="M237.352 273.176L236.656 273.258C236.384 271.36 236.115 269.421 236.656 266.2L237.359 266.2L237.352 273.176Z" fill="black"/>
<path d="M238.988 253.717L237.228 253.789C236.539 251.909 235.859 249.988 237.228 246.798L239.008 246.798L238.988 253.717Z" fill="#CCCCCC"/>
<path d="M237.352 253.785L236.656 253.867C236.384 251.969 236.115 250.03 236.656 246.809L237.359 246.809L237.352 253.785Z" fill="black"/>
<path d="M238.988 234.842L237.228 234.914C236.539 233.034 235.859 231.113 237.228 227.923L239.008 227.923L238.988 234.842Z" fill="#CCCCCC"/>
<path d="M237.352 234.91L236.656 234.992C236.384 233.094 236.115 231.155 236.656 227.934L237.359 227.934L237.352 234.91Z" fill="black"/>
<path d="M238.988 215.694L237.228 215.766C236.539 213.886 235.859 211.965 237.228 208.775L239.008 208.775L238.988 215.694Z" fill="#CCCCCC"/>
<path d="M237.352 215.762L236.656 215.844C236.384 213.946 236.115 212.007 236.656 208.786L237.359 208.786L237.352 215.762Z" fill="black"/>
<path d="M238.988 196.17L237.228 196.242C236.539 194.362 235.859 192.441 237.228 189.252L239.008 189.252L238.988 196.17Z" fill="#CCCCCC"/>
<path d="M237.352 196.239L236.656 196.32C236.384 194.422 236.115 192.483 236.656 189.263L237.359 189.263L237.352 196.239Z" fill="black"/>
<path d="M238.988 176.952L237.228 177.023C236.539 175.144 235.859 173.223 237.228 170.033L239.008 170.033L238.988 176.952Z" fill="#CCCCCC"/>
<path d="M237.352 177.02L236.656 177.102C236.384 175.204 236.115 173.264 236.656 170.044L237.359 170.044L237.352 177.02Z" fill="black"/>
<path d="M238.988 157.561L237.228 157.633C236.539 155.753 235.859 153.832 237.228 150.642L239.008 150.642L238.988 157.561Z" fill="#CCCCCC"/>
<path d="M237.352 157.629L236.656 157.711C236.384 155.813 236.115 153.874 236.656 150.653L237.359 150.653L237.352 157.629Z" fill="black"/>
<path d="M238.988 138.686L237.228 138.758C236.539 136.878 235.859 134.957 237.228 131.767L239.008 131.767L238.988 138.686Z" fill="#CCCCCC"/>
<path d="M237.352 138.754L236.656 138.836C236.384 136.938 236.115 134.999 236.656 131.778L237.359 131.778L237.352 138.754Z" fill="black"/>
<path d="M238.988 118.639L237.228 118.711C236.539 116.831 235.859 114.91 237.228 111.72L239.008 111.72L238.988 118.639Z" fill="#CCCCCC"/>
<path d="M237.352 118.707L236.656 118.789C236.384 116.891 236.115 114.952 236.656 111.731L237.359 111.731L237.352 118.707Z" fill="black"/>
<path d="M238.988 99.2407L237.228 99.3125C236.539 97.4326 235.859 95.5118 237.228 92.3219L239.008 92.3219L238.988 99.2407Z" fill="#CCCCCC"/>
<path d="M237.352 99.3088L236.656 99.3906C236.384 97.4926 236.115 95.5535 236.656 92.3329L237.359 92.3329L237.352 99.3088Z" fill="black"/>
<path d="M238.988 80.3735L237.228 80.4453C236.539 78.5654 235.859 76.6446 237.228 73.4547L239.008 73.4547L238.988 80.3735Z" fill="#CCCCCC"/>
<path d="M237.352 80.4417L236.656 80.5234C236.384 78.6254 236.115 76.6863 236.656 73.4657L237.359 73.4657L237.352 80.4417Z" fill="black"/>
<path d="M238.988 22.4985L237.228 22.5703C236.539 20.6904 235.859 18.7696 237.228 15.5797L239.008 15.5797L238.988 22.4985Z" fill="#CCCCCC"/>
<path d="M237.352 22.5667L236.656 22.6484C236.384 20.7504 236.115 18.8113 236.656 15.5907L237.359 15.5907L237.352 22.5667Z" fill="black"/>
<path d="M239.043 61.3423L237.283 61.4141C236.594 59.5342 235.913 57.6133 237.283 54.4235L239.062 54.4235L239.043 61.3423Z" fill="#CCCCCC"/>
<path d="M237.406 61.4104L236.711 61.4922C236.439 59.5942 236.169 57.655 236.711 54.4345L237.414 54.4345L237.406 61.4104Z" fill="black"/>
<path d="M239.066 41.5298L237.306 41.6016C236.617 39.7217 235.937 37.8008 237.306 34.611L239.086 34.611L239.066 41.5298Z" fill="#CCCCCC"/>
<path d="M237.43 41.5979L236.734 41.6797C236.462 39.7817 236.193 37.8425 236.734 34.622L237.437 34.622L237.43 41.5979Z" fill="black"/>
<path d="M243.23 1.05011L243.23 452.969L247.126 452.969L247.126 1.05011L243.23 1.05011Z" fill="#606060" stroke="#C0C0C0" stroke-opacity="0.99"/>
<path d="M247.078 1.02478L247.078 452.992L254.623 452.992L254.623 1.02478L247.078 1.02478Z" fill="#B2B2B2" stroke="#C0C0C0" stroke-width="0.659414"/>
<path d="M247.465 369.366L249.225 369.437C249.914 367.558 250.595 365.637 249.225 362.447L247.445 362.447L247.465 369.366Z" fill="#CCCCCC"/>
<path d="M249.105 369.434L249.801 369.516C250.073 367.618 250.342 365.678 249.801 362.458L249.098 362.458L249.105 369.434Z" fill="black"/>
<path d="M247.465 350.139L249.225 350.211C249.914 348.331 250.595 346.41 249.225 343.22L247.445 343.22L247.465 350.139Z" fill="#CCCCCC"/>
<path d="M249.105 350.207L249.801 350.289C250.073 348.391 250.342 346.452 249.801 343.231L249.098 343.231L249.105 350.207Z" fill="black"/>
<path d="M247.465 330.749L249.225 330.82C249.914 328.94 250.595 327.02 249.225 323.83L247.445 323.83L247.465 330.749Z" fill="#CCCCCC"/>
<path d="M249.105 330.817L249.801 330.898C250.073 329 250.342 327.061 249.801 323.841L249.098 323.841L249.105 330.817Z" fill="black"/>
<path d="M247.465 311.874L249.225 311.945C249.914 310.065 250.595 308.145 249.225 304.955L247.445 304.955L247.465 311.874Z" fill="#CCCCCC"/>
<path d="M249.105 311.942L249.801 312.023C250.073 310.125 250.342 308.186 249.801 304.966L249.098 304.966L249.105 311.942Z" fill="black"/>
<path d="M247.465 292.35L249.225 292.422C249.914 290.542 250.595 288.621 249.225 285.431L247.445 285.431L247.465 292.35Z" fill="#CCCCCC"/>
<path d="M249.101 292.418L249.797 292.5C250.069 290.602 250.338 288.663 249.797 285.442L249.094 285.442L249.101 292.418Z" fill="black"/>
<path d="M247.465 273.131L249.225 273.203C249.914 271.323 250.595 269.402 249.225 266.213L247.445 266.213L247.465 273.131Z" fill="#CCCCCC"/>
<path d="M249.105 273.199L249.801 273.281C250.073 271.383 250.342 269.444 249.801 266.224L249.098 266.224L249.105 273.199Z" fill="black"/>
<path d="M247.457 253.741L249.217 253.812C249.906 251.933 250.587 250.012 249.217 246.822L247.437 246.822L247.457 253.741Z" fill="#CCCCCC"/>
<path d="M249.101 253.809L249.797 253.891C250.069 251.993 250.338 250.053 249.797 246.833L249.094 246.833L249.101 253.809Z" fill="black"/>
<path d="M247.465 234.866L249.225 234.937C249.914 233.058 250.595 231.137 249.225 227.947L247.445 227.947L247.465 234.866Z" fill="#CCCCCC"/>
<path d="M249.105 234.934L249.801 235.016C250.073 233.118 250.342 231.178 249.801 227.958L249.098 227.958L249.105 234.934Z" fill="black"/>
<path d="M247.457 215.717L249.217 215.789C249.906 213.909 250.587 211.988 249.217 208.798L247.437 208.798L247.457 215.717Z" fill="#CCCCCC"/>
<path d="M249.101 215.785L249.797 215.867C250.069 213.969 250.338 212.03 249.797 208.809L249.094 208.809L249.101 215.785Z" fill="black"/>
<path d="M247.465 196.202L249.225 196.273C249.914 194.394 250.595 192.473 249.225 189.283L247.445 189.283L247.465 196.202Z" fill="#CCCCCC"/>
<path d="M249.105 196.27L249.801 196.352C250.073 194.454 250.342 192.514 249.801 189.294L249.098 189.294L249.105 196.27Z" fill="black"/>
<path d="M247.457 176.975L249.217 177.047C249.906 175.167 250.587 173.246 249.217 170.056L247.437 170.056L247.457 176.975Z" fill="#CCCCCC"/>
<path d="M249.101 177.043L249.797 177.125C250.069 175.227 250.338 173.288 249.797 170.067L249.094 170.067L249.101 177.043Z" fill="black"/>
<path d="M247.465 157.584L249.225 157.656C249.914 155.776 250.595 153.856 249.225 150.666L247.445 150.666L247.465 157.584Z" fill="#CCCCCC"/>
<path d="M249.105 157.66L249.801 157.742C250.073 155.844 250.342 153.905 249.801 150.684L249.098 150.684L249.105 157.66Z" fill="black"/>
<path d="M247.465 138.717L249.225 138.789C249.914 136.909 250.595 134.988 249.225 131.798L247.445 131.798L247.465 138.717Z" fill="#CCCCCC"/>
<path d="M249.101 138.785L249.797 138.867C250.069 136.969 250.338 135.03 249.797 131.809L249.094 131.809L249.101 138.785Z" fill="black"/>
<path d="M247.465 118.663L249.225 118.734C249.914 116.854 250.595 114.934 249.225 111.744L247.445 111.744L247.465 118.663Z" fill="#CCCCCC"/>
<path d="M249.105 118.731L249.801 118.812C250.073 116.914 250.342 114.975 249.801 111.755L249.098 111.755L249.105 118.731Z" fill="black"/>
<path d="M247.457 99.272L249.217 99.3437C249.906 97.4639 250.587 95.543 249.217 92.3532L247.437 92.3532L247.457 99.272Z" fill="#CCCCCC"/>
<path d="M249.101 99.3401L249.797 99.4219C250.069 97.5239 250.338 95.5847 249.797 92.3642L249.094 92.3642L249.101 99.3401Z" fill="black"/>
<path d="M247.465 80.3891L249.225 80.4609C249.914 78.581 250.595 76.6602 249.225 73.4704L247.445 73.4704L247.465 80.3891Z" fill="#CCCCCC"/>
<path d="M249.105 80.4573L249.801 80.5391C250.073 78.6411 250.342 76.7019 249.801 73.4814L249.098 73.4814L249.105 80.4573Z" fill="black"/>
<path d="M247.465 22.522L249.225 22.5937C249.914 20.7139 250.595 18.793 249.225 15.6032L247.445 15.6032L247.465 22.522Z" fill="#CCCCCC"/>
<path d="M249.105 22.5901L249.801 22.6719C250.073 20.7739 250.342 18.8347 249.801 15.6142L249.098 15.6142L249.105 22.5901Z" fill="black"/>
<path d="M247.434 61.4595L249.194 61.5312C249.883 59.6514 250.563 57.7305 249.194 54.5407L247.414 54.5407L247.434 61.4595Z" fill="#CCCCCC"/>
<path d="M249.07 61.5276L249.766 61.6094C250.038 59.7114 250.307 57.7722 249.766 54.5517L249.062 54.5517L249.07 61.5276Z" fill="black"/>
<path d="M247.414 41.7563L249.174 41.8281C249.863 39.9482 250.544 38.0274 249.174 34.8375L247.395 34.8375L247.414 41.7563Z" fill="#CCCCCC"/>
<path d="M249.051 41.8245L249.746 41.9062C250.018 40.0082 250.288 38.0691 249.746 34.8486L249.043 34.8486L249.051 41.8245Z" fill="black"/>
<path d="M11.0497 440.43L287.812 440.43L287.812 464.071L11.0497 464.071L11.0497 440.43Z" fill="#646464" stroke="#808080" stroke-width="1.50232"/>
<defs>
<linearGradient id="paint0_linear_3822_1206" x1="1" y1="466.263" x2="297" y2="466.263" gradientUnits="userSpaceOnUse">
<stop stop-color="#575757"/>
<stop offset="0.1" stop-color="#8C8C91"/>
<stop offset="0.2377" stop-color="#7F7F83"/>
<stop offset="0.5197" stop-color="#69696B"/>
<stop offset="0.7811" stop-color="#5C5C5C"/>
<stop offset="1" stop-color="#575757"/>
</linearGradient>
</defs>
</svg>
