<svg width="174" height="754" viewBox="0 0 174 754" fill="none" xmlns="http://www.w3.org/2000/svg">
<path d="M171.356 505.262H2.64412C1.75882 505.262 1 501.299 1 496.676V487.43C1 482.806 1.75882 478.844 2.64412 478.844H171.356C172.241 478.844 173 482.806 173 487.43V496.676C173 501.519 172.241 505.262 171.356 505.262Z" fill="url(#paint0_linear_3832_2453)" stroke="#8C8C91" stroke-width="0.75" stroke-miterlimit="10" stroke-linecap="round" stroke-linejoin="round"/>
<path d="M172.157 469H1.84375V476.136H172.157V469Z" fill="url(#paint1_linear_3832_2453)" stroke="#8C8C91" stroke-width="0.75" stroke-miterlimit="10" stroke-linecap="round" stroke-linejoin="round"/>
<path d="M171.356 469.586H2.64412C1.75882 469.586 1 468.783 1 467.847V465.974C1 465.037 1.75882 464.234 2.64412 464.234H171.356C172.241 464.234 173 465.037 173 465.974V467.847C173 468.783 172.241 469.586 171.356 469.586Z" fill="url(#paint2_linear_3832_2453)" stroke="#8C8C91" stroke-width="0.75" stroke-miterlimit="10" stroke-linecap="round" stroke-linejoin="round"/>
<path d="M171.356 479.125H2.64412C1.75882 479.125 1 478.322 1 477.386V475.513C1 474.576 1.75882 473.773 2.64412 473.773H171.356C172.241 473.773 173 474.576 173 475.513V477.386C173 478.367 172.241 479.125 171.356 479.125Z" fill="url(#paint3_linear_3832_2453)" stroke="#8C8C91" stroke-width="0.75" stroke-miterlimit="10" stroke-linecap="round" stroke-linejoin="round"/>
<path d="M172.157 556.641H1.84375V576.297H172.157V556.641Z" fill="url(#paint4_linear_3832_2453)" stroke="#8C8C91" stroke-width="0.75" stroke-miterlimit="10" stroke-linecap="round" stroke-linejoin="round"/>
<path d="M171.356 561.891H2.64412C1.75882 561.891 1 559.679 1 557.099V551.94C1 549.36 1.75882 547.148 2.64412 547.148H171.356C172.241 547.148 173 549.36 173 551.94V557.099C173 559.679 172.241 561.891 171.356 561.891Z" fill="url(#paint5_linear_3832_2453)" stroke="#8C8C91" stroke-width="0.75" stroke-miterlimit="10" stroke-linecap="round" stroke-linejoin="round"/>
<path d="M171.356 588.172H2.64412C1.75882 588.172 1 585.961 1 583.381V578.221C1 575.641 1.75882 573.43 2.64412 573.43H171.356C172.241 573.43 173 575.641 173 578.221V583.381C173 586.083 172.241 588.172 171.356 588.172Z" fill="url(#paint6_linear_3832_2453)" stroke="#8C8C91" stroke-width="0.75" stroke-miterlimit="10" stroke-linecap="round" stroke-linejoin="round"/>
<path d="M172.157 598.227H1.84375V617.883H172.157V598.227Z" fill="url(#paint7_linear_3832_2453)" stroke="#8C8C91" stroke-width="0.75" stroke-miterlimit="10" stroke-linecap="round" stroke-linejoin="round"/>
<path d="M171.356 603.469H2.64412C1.75882 603.469 1 601.257 1 598.678V593.518C1 590.938 1.75882 588.727 2.64412 588.727H171.356C172.241 588.727 173 590.938 173 593.518V598.678C173 601.257 172.241 603.469 171.356 603.469Z" fill="url(#paint8_linear_3832_2453)" stroke="#8C8C91" stroke-width="0.75" stroke-miterlimit="10" stroke-linecap="round" stroke-linejoin="round"/>
<path d="M171.356 629.766H2.64412C1.75882 629.766 1 627.554 1 624.974V619.815C1 617.235 1.75882 615.023 2.64412 615.023H171.356C172.241 615.023 173 617.235 173 619.815V624.974C173 627.677 172.241 629.766 171.356 629.766Z" fill="url(#paint9_linear_3832_2453)" stroke="#8C8C91" stroke-width="0.75" stroke-miterlimit="10" stroke-linecap="round" stroke-linejoin="round"/>
<path d="M172.157 639.828H1.84375V659.484H172.157V639.828Z" fill="url(#paint10_linear_3832_2453)" stroke="#8C8C91" stroke-width="0.75" stroke-miterlimit="10" stroke-linecap="round" stroke-linejoin="round"/>
<path d="M171.356 645.07H2.64412C1.75882 645.07 1 642.859 1 640.279V635.119C1 632.539 1.75882 630.328 2.64412 630.328H171.356C172.241 630.328 173 632.539 173 635.119V640.279C173 642.859 172.241 645.07 171.356 645.07Z" fill="url(#paint11_linear_3832_2453)" stroke="#8C8C91" stroke-width="0.75" stroke-miterlimit="10" stroke-linecap="round" stroke-linejoin="round"/>
<path d="M171.356 671.359H2.64412C1.75882 671.359 1 669.148 1 666.568V661.408C1 658.829 1.75882 656.617 2.64412 656.617H171.356C172.241 656.617 173 658.829 173 661.408V666.568C173 669.271 172.241 671.359 171.356 671.359Z" fill="url(#paint12_linear_3832_2453)" stroke="#8C8C91" stroke-width="0.75" stroke-miterlimit="10" stroke-linecap="round" stroke-linejoin="round"/>
<path d="M172.157 680.859H1.84375V700.516H172.157V680.859Z" fill="url(#paint13_linear_3832_2453)" stroke="#8C8C91" stroke-width="0.75" stroke-miterlimit="10" stroke-linecap="round" stroke-linejoin="round"/>
<path d="M171.356 686.109H2.64412C1.75882 686.109 1 683.898 1 681.318V676.158C1 673.579 1.75882 671.367 2.64412 671.367H171.356C172.241 671.367 173 673.579 173 676.158V681.318C173 683.898 172.241 686.109 171.356 686.109Z" fill="url(#paint14_linear_3832_2453)" stroke="#8C8C91" stroke-width="0.75" stroke-miterlimit="10" stroke-linecap="round" stroke-linejoin="round"/>
<path d="M171.356 712.391H2.64412C1.75882 712.391 1 710.179 1 707.599V702.44C1 699.86 1.75882 697.648 2.64412 697.648H171.356C172.241 697.648 173 699.86 173 702.44V707.599C173 710.302 172.241 712.391 171.356 712.391Z" fill="url(#paint15_linear_3832_2453)" stroke="#8C8C91" stroke-width="0.75" stroke-miterlimit="10" stroke-linecap="round" stroke-linejoin="round"/>
<path d="M172.157 721.891H1.84375V741.547H172.157V721.891Z" fill="url(#paint16_linear_3832_2453)" stroke="#8C8C91" stroke-width="0.75" stroke-miterlimit="10" stroke-linecap="round" stroke-linejoin="round"/>
<path d="M171.356 727.141H2.64412C1.75882 727.141 1 724.929 1 722.349V717.19C1 714.61 1.75882 712.398 2.64412 712.398H171.356C172.241 712.398 173 714.61 173 717.19V722.349C173 724.929 172.241 727.141 171.356 727.141Z" fill="url(#paint17_linear_3832_2453)" stroke="#8C8C91" stroke-width="0.75" stroke-miterlimit="10" stroke-linecap="round" stroke-linejoin="round"/>
<path d="M171.356 753.422H2.64412C1.75882 753.422 1 751.211 1 748.631V743.471C1 740.891 1.75882 738.68 2.64412 738.68H171.356C172.241 738.68 173 740.891 173 743.471V748.631C173 751.333 172.241 753.422 171.356 753.422Z" fill="url(#paint18_linear_3832_2453)" stroke="#8C8C91" stroke-width="0.75" stroke-miterlimit="10" stroke-linecap="round" stroke-linejoin="round"/>
<path d="M172.157 515.039H1.84375V534.695H172.157V515.039Z" fill="url(#paint19_linear_3832_2453)" stroke="#8C8C91" stroke-width="0.75" stroke-miterlimit="10" stroke-linecap="round" stroke-linejoin="round"/>
<path d="M171.356 520.289H2.64412C1.75882 520.289 1 518.078 1 515.498V510.338C1 507.758 1.75882 505.547 2.64412 505.547H171.356C172.241 505.547 173 507.758 173 510.338V515.498C173 518.078 172.241 520.289 171.356 520.289Z" fill="url(#paint20_linear_3832_2453)" stroke="#8C8C91" stroke-width="0.75" stroke-miterlimit="10" stroke-linecap="round" stroke-linejoin="round"/>
<path d="M171.356 546.586H2.64412C1.75882 546.586 1 544.375 1 541.795V536.635C1 534.055 1.75882 531.844 2.64412 531.844H171.356C172.241 531.844 173 534.055 173 536.635V541.795C173 544.497 172.241 546.586 171.356 546.586Z" fill="url(#paint21_linear_3832_2453)" stroke="#8C8C91" stroke-width="0.75" stroke-miterlimit="10" stroke-linecap="round" stroke-linejoin="round"/>
<path d="M103.866 478.57H69.5781V504.427H103.866V478.57Z" fill="url(#paint22_linear_3832_2453)" stroke="#C0C0C0" stroke-width="0.75" stroke-miterlimit="10" stroke-linecap="round" stroke-linejoin="round"/>
<circle cx="98.9442" cy="500.624" r="1.04575" stroke="#C0C0C0"/>
<circle cx="75.0575" cy="500.624" r="1.04575" stroke="#C0C0C0"/>
<circle cx="98.9442" cy="483.21" r="1.04575" stroke="#C0C0C0"/>
<circle cx="75.0575" cy="483.21" r="1.04575" stroke="#C0C0C0"/>
<path d="M90.0822 504.426H84.046C82.6423 504.426 81.3789 502.362 81.3789 499.525V26.6484H92.6089V499.525C92.7493 502.104 91.6263 504.426 90.0822 504.426Z" fill="url(#paint23_linear_3832_2453)" stroke="#4D4D4D" stroke-width="0.75" stroke-miterlimit="10"/>
<path d="M76.375 27.3027C82.394 27.6541 91.0439 27.6763 97.3848 27.3291L97.3838 27.3281C105.384 26.8999 112.403 25.9938 117.552 24.7197L118.354 24.5078C120.244 23.9827 122.232 23.2514 123.262 22.6797L123.264 22.6787C123.646 22.4635 124.05 22.1774 124.392 21.8896C124.728 21.6068 125.025 21.3036 125.176 21.0527L125.178 21.0498L125.39 20.6875L125.424 20.6299V20.5625L125.441 14.6895C125.45 11.7816 125.454 10.3074 125.436 9.60547C125.431 9.42981 125.425 9.29738 125.416 9.20117C125.412 9.15331 125.407 9.11025 125.4 9.07324C125.394 9.04089 125.384 8.9935 125.362 8.94922C125.347 8.91758 125.268 8.7812 125.098 8.7959C125.029 8.80185 124.98 8.83296 124.955 8.85254C124.929 8.87278 124.91 8.89414 124.899 8.9082C124.863 8.95488 124.832 9.02175 124.816 9.05469L124.815 9.05566C124.501 9.71242 123.617 10.3974 122.148 11.0625C120.695 11.7208 118.721 12.3368 116.309 12.8877C111.485 13.9892 104.938 14.8239 97.3574 15.2295C90.6129 15.5988 81.2434 15.5477 75.2432 15.1279C68.3804 14.6426 63.9893 14.0995 59.3799 13.167C56.6314 12.6107 54.3391 11.9428 52.6504 11.2266C51.806 10.8684 51.1187 10.5009 50.6025 10.1338C50.0829 9.76416 49.7554 9.40728 49.6025 9.0791L49.6016 9.07715L49.4248 8.70703L48.9492 8.81641L48.9844 20.5625V20.6299L49.0186 20.6875L49.2314 21.0498V21.0508C49.4706 21.4554 49.9076 21.8607 50.4619 22.2393C51.0206 22.6208 51.7172 22.988 52.499 23.3086L52.9395 23.4854C57.5775 25.2886 64.7569 26.4898 75.208 27.2275L76.375 27.3027Z" fill="url(#paint24_linear_3832_2453)"/>
<path d="M76.375 27.3027C82.394 27.6541 91.0439 27.6763 97.3848 27.3291L97.3838 27.3281C105.384 26.8999 112.403 25.9938 117.552 24.7197L118.354 24.5078C120.244 23.9827 122.232 23.2514 123.262 22.6797L123.264 22.6787C123.646 22.4635 124.05 22.1774 124.392 21.8896C124.728 21.6068 125.025 21.3036 125.176 21.0527L125.178 21.0498L125.39 20.6875L125.424 20.6299V20.5625L125.441 14.6895C125.45 11.7816 125.454 10.3074 125.436 9.60547C125.431 9.42981 125.425 9.29738 125.416 9.20117C125.412 9.15331 125.407 9.11025 125.4 9.07324C125.394 9.04089 125.384 8.9935 125.362 8.94922C125.347 8.91758 125.268 8.7812 125.098 8.7959C125.029 8.80185 124.98 8.83296 124.955 8.85254C124.929 8.87278 124.91 8.89414 124.899 8.9082C124.863 8.95488 124.832 9.02175 124.816 9.05469L124.815 9.05566C124.501 9.71242 123.617 10.3974 122.148 11.0625C120.695 11.7208 118.721 12.3368 116.309 12.8877C111.485 13.9892 104.938 14.8239 97.3574 15.2295C90.6129 15.5988 81.2434 15.5477 75.2432 15.1279C68.3804 14.6426 63.9893 14.0995 59.3799 13.167C56.6314 12.6107 54.3391 11.9428 52.6504 11.2266C51.806 10.8684 51.1187 10.5009 50.6025 10.1338C50.0829 9.76416 49.7554 9.40728 49.6025 9.0791L49.6016 9.07715L49.4248 8.70703L48.9492 8.81641L48.9844 20.5625V20.6299L49.0186 20.6875L49.2314 21.0498V21.0508C49.4706 21.4554 49.9076 21.8607 50.4619 22.2393C51.0206 22.6208 51.7172 22.988 52.499 23.3086L52.9395 23.4854C57.5775 25.2886 64.7569 26.4898 75.208 27.2275L76.375 27.3027Z" fill="black" fill-opacity="0.2"/>
<path d="M76.375 27.3027C82.394 27.6541 91.0439 27.6763 97.3848 27.3291L97.3838 27.3281C105.384 26.8999 112.403 25.9938 117.552 24.7197L118.354 24.5078C120.244 23.9827 122.232 23.2514 123.262 22.6797L123.264 22.6787C123.646 22.4635 124.05 22.1774 124.392 21.8896C124.728 21.6068 125.025 21.3036 125.176 21.0527L125.178 21.0498L125.39 20.6875L125.424 20.6299V20.5625L125.441 14.6895C125.45 11.7816 125.454 10.3074 125.436 9.60547C125.431 9.42981 125.425 9.29738 125.416 9.20117C125.412 9.15331 125.407 9.11025 125.4 9.07324C125.394 9.04089 125.384 8.9935 125.362 8.94922C125.347 8.91758 125.268 8.7812 125.098 8.7959C125.029 8.80185 124.98 8.83296 124.955 8.85254C124.929 8.87278 124.91 8.89414 124.899 8.9082C124.863 8.95488 124.832 9.02175 124.816 9.05469L124.815 9.05566C124.501 9.71242 123.617 10.3974 122.148 11.0625C120.695 11.7208 118.721 12.3368 116.309 12.8877C111.485 13.9892 104.938 14.8239 97.3574 15.2295C90.6129 15.5988 81.2434 15.5477 75.2432 15.1279C68.3804 14.6426 63.9893 14.0995 59.3799 13.167C56.6314 12.6107 54.3391 11.9428 52.6504 11.2266C51.806 10.8684 51.1187 10.5009 50.6025 10.1338C50.0829 9.76416 49.7554 9.40728 49.6025 9.0791L49.6016 9.07715L49.4248 8.70703L48.9492 8.81641L48.9844 20.5625V20.6299L49.0186 20.6875L49.2314 21.0498V21.0508C49.4706 21.4554 49.9076 21.8607 50.4619 22.2393C51.0206 22.6208 51.7172 22.988 52.499 23.3086L52.9395 23.4854C57.5775 25.2886 64.7569 26.4898 75.208 27.2275L76.375 27.3027Z" stroke="#808080" stroke-width="0.5"/>
<path d="M81.3611 1.0224C78.5946 1.10727 74.558 1.31235 71.9655 1.51037C61.1778 2.3378 52.0083 3.97591 49.7029 5.98438C47.9739 7.49062 49.6099 9.24118 52.6983 10.5C57.1699 12.3175 59.4295 13.1857 71.1218 14.1568C74.0449 14.6569 92.4272 14.7717 94.9936 14.6514C109.331 13.9798 117.021 12.3495 121.703 10.4766C124.203 9.47656 125.2 8.24663 125.2 7.33433C125.182 5.36123 118.126 3.53298 109.331 2.33073C105.19 1.75789 101.04 1.41136 94.8457 1.11434C93.4189 1.04362 82.9706 0.972897 81.3611 1.0224Z" fill="url(#paint25_linear_3832_2453)"/>
<path d="M81.3611 1.0224C78.5946 1.10727 74.558 1.31235 71.9655 1.51037C61.1778 2.3378 52.0083 3.97591 49.7029 5.98438C47.9739 7.49062 49.6099 9.24118 52.6983 10.5C57.1699 12.3175 59.4295 13.1857 71.1218 14.1568C74.0449 14.6569 92.4272 14.7717 94.9936 14.6514C109.331 13.9798 117.021 12.3495 121.703 10.4766C124.203 9.47656 125.2 8.24663 125.2 7.33433C125.182 5.36123 118.126 3.53298 109.331 2.33073C105.19 1.75789 101.04 1.41136 94.8457 1.11434C93.4189 1.04362 82.9706 0.972897 81.3611 1.0224Z" fill="black" fill-opacity="0.2"/>
<path d="M81.3611 1.0224C78.5946 1.10727 74.558 1.31235 71.9655 1.51037C61.1778 2.3378 52.0083 3.97591 49.7029 5.98438C47.9739 7.49062 49.6099 9.24118 52.6983 10.5C57.1699 12.3175 59.4295 13.1857 71.1218 14.1568C74.0449 14.6569 92.4272 14.7717 94.9936 14.6514C109.331 13.9798 117.021 12.3495 121.703 10.4766C124.203 9.47656 125.2 8.24663 125.2 7.33433C125.182 5.36123 118.126 3.53298 109.331 2.33073C105.19 1.75789 101.04 1.41136 94.8457 1.11434C93.4189 1.04362 82.9706 0.972897 81.3611 1.0224Z" stroke="#808080" stroke-width="0.5"/>
<defs>
<linearGradient id="paint0_linear_3832_2453" x1="1" y1="492.059" x2="173" y2="492.059" gradientUnits="userSpaceOnUse">
<stop stop-color="#B3B3B3"/>
<stop offset="0.24" stop-color="#E6E6E6"/>
<stop offset="0.42" stop-color="#E6E6E6"/>
<stop offset="0.4904" stop-color="#DBDBDB"/>
<stop offset="0.6155" stop-color="#BCBCBC"/>
<stop offset="0.7808" stop-color="#8B8B8B"/>
<stop offset="0.978" stop-color="#484848"/>
<stop offset="1" stop-color="#404040"/>
</linearGradient>
<linearGradient id="paint1_linear_3832_2453" x1="1.84375" y1="472.548" x2="172.157" y2="472.548" gradientUnits="userSpaceOnUse">
<stop stop-color="#575757"/>
<stop offset="0.42" stop-color="#AFAFAE"/>
<stop offset="1" stop-color="#575757"/>
</linearGradient>
<linearGradient id="paint2_linear_3832_2453" x1="1" y1="466.902" x2="173" y2="466.902" gradientUnits="userSpaceOnUse">
<stop stop-color="#B3B3B3"/>
<stop offset="0.24" stop-color="#E6E6E6"/>
<stop offset="0.42" stop-color="#E6E6E6"/>
<stop offset="0.4904" stop-color="#DBDBDB"/>
<stop offset="0.6155" stop-color="#BCBCBC"/>
<stop offset="0.7808" stop-color="#8B8B8B"/>
<stop offset="0.978" stop-color="#484848"/>
<stop offset="1" stop-color="#404040"/>
</linearGradient>
<linearGradient id="paint3_linear_3832_2453" x1="1" y1="476.451" x2="173" y2="476.451" gradientUnits="userSpaceOnUse">
<stop stop-color="#B3B3B3"/>
<stop offset="0.24" stop-color="#E6E6E6"/>
<stop offset="0.42" stop-color="#E6E6E6"/>
<stop offset="0.4904" stop-color="#DBDBDB"/>
<stop offset="0.6155" stop-color="#BCBCBC"/>
<stop offset="0.7808" stop-color="#8B8B8B"/>
<stop offset="0.978" stop-color="#484848"/>
<stop offset="1" stop-color="#404040"/>
</linearGradient>
<linearGradient id="paint4_linear_3832_2453" x1="1.84375" y1="566.414" x2="172.157" y2="566.414" gradientUnits="userSpaceOnUse">
<stop stop-color="#575757"/>
<stop offset="0.42" stop-color="#AFAFAE"/>
<stop offset="1" stop-color="#575757"/>
</linearGradient>
<linearGradient id="paint5_linear_3832_2453" x1="1" y1="554.497" x2="173" y2="554.497" gradientUnits="userSpaceOnUse">
<stop stop-color="#B3B3B3"/>
<stop offset="0.24" stop-color="#E6E6E6"/>
<stop offset="0.42" stop-color="#E6E6E6"/>
<stop offset="0.4904" stop-color="#DBDBDB"/>
<stop offset="0.6155" stop-color="#BCBCBC"/>
<stop offset="0.7808" stop-color="#8B8B8B"/>
<stop offset="0.978" stop-color="#484848"/>
<stop offset="1" stop-color="#404040"/>
</linearGradient>
<linearGradient id="paint6_linear_3832_2453" x1="1" y1="580.804" x2="173" y2="580.804" gradientUnits="userSpaceOnUse">
<stop stop-color="#B3B3B3"/>
<stop offset="0.24" stop-color="#E6E6E6"/>
<stop offset="0.42" stop-color="#E6E6E6"/>
<stop offset="0.4904" stop-color="#DBDBDB"/>
<stop offset="0.6155" stop-color="#BCBCBC"/>
<stop offset="0.7808" stop-color="#8B8B8B"/>
<stop offset="0.978" stop-color="#484848"/>
<stop offset="1" stop-color="#404040"/>
</linearGradient>
<linearGradient id="paint7_linear_3832_2453" x1="1.84375" y1="608" x2="172.157" y2="608" gradientUnits="userSpaceOnUse">
<stop stop-color="#575757"/>
<stop offset="0.42" stop-color="#AFAFAE"/>
<stop offset="1" stop-color="#575757"/>
</linearGradient>
<linearGradient id="paint8_linear_3832_2453" x1="1" y1="596.075" x2="173" y2="596.075" gradientUnits="userSpaceOnUse">
<stop stop-color="#B3B3B3"/>
<stop offset="0.24" stop-color="#E6E6E6"/>
<stop offset="0.42" stop-color="#E6E6E6"/>
<stop offset="0.4904" stop-color="#DBDBDB"/>
<stop offset="0.6155" stop-color="#BCBCBC"/>
<stop offset="0.7808" stop-color="#8B8B8B"/>
<stop offset="0.978" stop-color="#484848"/>
<stop offset="1" stop-color="#404040"/>
</linearGradient>
<linearGradient id="paint9_linear_3832_2453" x1="1" y1="622.398" x2="173" y2="622.398" gradientUnits="userSpaceOnUse">
<stop stop-color="#B3B3B3"/>
<stop offset="0.24" stop-color="#E6E6E6"/>
<stop offset="0.42" stop-color="#E6E6E6"/>
<stop offset="0.4904" stop-color="#DBDBDB"/>
<stop offset="0.6155" stop-color="#BCBCBC"/>
<stop offset="0.7808" stop-color="#8B8B8B"/>
<stop offset="0.978" stop-color="#484848"/>
<stop offset="1" stop-color="#404040"/>
</linearGradient>
<linearGradient id="paint10_linear_3832_2453" x1="1.84375" y1="649.601" x2="172.157" y2="649.601" gradientUnits="userSpaceOnUse">
<stop stop-color="#575757"/>
<stop offset="0.42" stop-color="#AFAFAE"/>
<stop offset="1" stop-color="#575757"/>
</linearGradient>
<linearGradient id="paint11_linear_3832_2453" x1="1" y1="637.677" x2="173" y2="637.677" gradientUnits="userSpaceOnUse">
<stop stop-color="#B3B3B3"/>
<stop offset="0.24" stop-color="#E6E6E6"/>
<stop offset="0.42" stop-color="#E6E6E6"/>
<stop offset="0.4904" stop-color="#DBDBDB"/>
<stop offset="0.6155" stop-color="#BCBCBC"/>
<stop offset="0.7808" stop-color="#8B8B8B"/>
<stop offset="0.978" stop-color="#484848"/>
<stop offset="1" stop-color="#404040"/>
</linearGradient>
<linearGradient id="paint12_linear_3832_2453" x1="1" y1="663.992" x2="173" y2="663.992" gradientUnits="userSpaceOnUse">
<stop stop-color="#B3B3B3"/>
<stop offset="0.24" stop-color="#E6E6E6"/>
<stop offset="0.42" stop-color="#E6E6E6"/>
<stop offset="0.4904" stop-color="#DBDBDB"/>
<stop offset="0.6155" stop-color="#BCBCBC"/>
<stop offset="0.7808" stop-color="#8B8B8B"/>
<stop offset="0.978" stop-color="#484848"/>
<stop offset="1" stop-color="#404040"/>
</linearGradient>
<linearGradient id="paint13_linear_3832_2453" x1="1.84375" y1="690.632" x2="172.157" y2="690.632" gradientUnits="userSpaceOnUse">
<stop stop-color="#575757"/>
<stop offset="0.42" stop-color="#AFAFAE"/>
<stop offset="1" stop-color="#575757"/>
</linearGradient>
<linearGradient id="paint14_linear_3832_2453" x1="1" y1="678.716" x2="173" y2="678.716" gradientUnits="userSpaceOnUse">
<stop stop-color="#B3B3B3"/>
<stop offset="0.24" stop-color="#E6E6E6"/>
<stop offset="0.42" stop-color="#E6E6E6"/>
<stop offset="0.4904" stop-color="#DBDBDB"/>
<stop offset="0.6155" stop-color="#BCBCBC"/>
<stop offset="0.7808" stop-color="#8B8B8B"/>
<stop offset="0.978" stop-color="#484848"/>
<stop offset="1" stop-color="#404040"/>
</linearGradient>
<linearGradient id="paint15_linear_3832_2453" x1="1" y1="705.023" x2="173" y2="705.023" gradientUnits="userSpaceOnUse">
<stop stop-color="#B3B3B3"/>
<stop offset="0.24" stop-color="#E6E6E6"/>
<stop offset="0.42" stop-color="#E6E6E6"/>
<stop offset="0.4904" stop-color="#DBDBDB"/>
<stop offset="0.6155" stop-color="#BCBCBC"/>
<stop offset="0.7808" stop-color="#8B8B8B"/>
<stop offset="0.978" stop-color="#484848"/>
<stop offset="1" stop-color="#404040"/>
</linearGradient>
<linearGradient id="paint16_linear_3832_2453" x1="1.84375" y1="731.664" x2="172.157" y2="731.664" gradientUnits="userSpaceOnUse">
<stop stop-color="#575757"/>
<stop offset="0.42" stop-color="#AFAFAE"/>
<stop offset="1" stop-color="#575757"/>
</linearGradient>
<linearGradient id="paint17_linear_3832_2453" x1="1" y1="719.747" x2="173" y2="719.747" gradientUnits="userSpaceOnUse">
<stop stop-color="#B3B3B3"/>
<stop offset="0.24" stop-color="#E6E6E6"/>
<stop offset="0.42" stop-color="#E6E6E6"/>
<stop offset="0.4904" stop-color="#DBDBDB"/>
<stop offset="0.6155" stop-color="#BCBCBC"/>
<stop offset="0.7808" stop-color="#8B8B8B"/>
<stop offset="0.978" stop-color="#484848"/>
<stop offset="1" stop-color="#404040"/>
</linearGradient>
<linearGradient id="paint18_linear_3832_2453" x1="1" y1="746.054" x2="173" y2="746.054" gradientUnits="userSpaceOnUse">
<stop stop-color="#B3B3B3"/>
<stop offset="0.24" stop-color="#E6E6E6"/>
<stop offset="0.42" stop-color="#E6E6E6"/>
<stop offset="0.4904" stop-color="#DBDBDB"/>
<stop offset="0.6155" stop-color="#BCBCBC"/>
<stop offset="0.7808" stop-color="#8B8B8B"/>
<stop offset="0.978" stop-color="#484848"/>
<stop offset="1" stop-color="#404040"/>
</linearGradient>
<linearGradient id="paint19_linear_3832_2453" x1="1.84375" y1="524.812" x2="172.157" y2="524.812" gradientUnits="userSpaceOnUse">
<stop stop-color="#575757"/>
<stop offset="0.42" stop-color="#AFAFAE"/>
<stop offset="1" stop-color="#575757"/>
</linearGradient>
<linearGradient id="paint20_linear_3832_2453" x1="1" y1="512.896" x2="173" y2="512.896" gradientUnits="userSpaceOnUse">
<stop stop-color="#B3B3B3"/>
<stop offset="0.24" stop-color="#E6E6E6"/>
<stop offset="0.42" stop-color="#E6E6E6"/>
<stop offset="0.4904" stop-color="#DBDBDB"/>
<stop offset="0.6155" stop-color="#BCBCBC"/>
<stop offset="0.7808" stop-color="#8B8B8B"/>
<stop offset="0.978" stop-color="#484848"/>
<stop offset="1" stop-color="#404040"/>
</linearGradient>
<linearGradient id="paint21_linear_3832_2453" x1="1" y1="539.219" x2="173" y2="539.219" gradientUnits="userSpaceOnUse">
<stop stop-color="#B3B3B3"/>
<stop offset="0.24" stop-color="#E6E6E6"/>
<stop offset="0.42" stop-color="#E6E6E6"/>
<stop offset="0.4904" stop-color="#DBDBDB"/>
<stop offset="0.6155" stop-color="#BCBCBC"/>
<stop offset="0.7808" stop-color="#8B8B8B"/>
<stop offset="0.978" stop-color="#484848"/>
<stop offset="1" stop-color="#404040"/>
</linearGradient>
<linearGradient id="paint22_linear_3832_2453" x1="69.5781" y1="491.426" x2="103.866" y2="491.426" gradientUnits="userSpaceOnUse">
<stop stop-color="#575757"/>
<stop offset="0.42" stop-color="#AFAFAE"/>
<stop offset="1" stop-color="#575757"/>
</linearGradient>
<linearGradient id="paint23_linear_3832_2453" x1="81.5193" y1="265.425" x2="92.7493" y2="265.425" gradientUnits="userSpaceOnUse">
<stop stop-color="#333333"/>
<stop offset="0.5" stop-color="white"/>
<stop offset="1" stop-color="#333333"/>
</linearGradient>
<linearGradient id="paint24_linear_3832_2453" x1="125.199" y1="18.0717" x2="49.1992" y2="18.0717" gradientUnits="userSpaceOnUse">
<stop stop-color="#333333"/>
<stop offset="0.5" stop-color="white"/>
<stop offset="1" stop-color="#333333"/>
</linearGradient>
<linearGradient id="paint25_linear_3832_2453" x1="123.251" y1="7.34954" x2="50.1736" y2="7.34954" gradientUnits="userSpaceOnUse">
<stop stop-color="#333333"/>
<stop offset="0.5" stop-color="white"/>
<stop offset="1" stop-color="#333333"/>
</linearGradient>
</defs>
</svg>
