<svg width="487" height="304" viewBox="0 0 487 304" fill="none" xmlns="http://www.w3.org/2000/svg">
<path fill-rule="evenodd" clip-rule="evenodd" d="M133.773 176.552C131.871 188.093 117.492 213.609 81.7875 213.609C34.0851 213.609 23.9741 163.408 25.1584 154.581L150.491 154.535C148.766 113.099 119.634 80.096 77.8684 80.096C34.864 80.096 0 115.086 0 158.245C0 201.407 34.864 236.395 77.8684 236.395C114.592 236.395 143.009 210.882 150.53 176.552H133.773ZM73.8363 96.0396C99.8669 96.0396 118.686 111.92 125.372 137.587L26.5786 137.451C32.9622 108.567 55.634 96.0396 73.8363 96.0396ZM409.107 80.0015C366.088 80.0015 331.214 115 331.214 158.176V304H356.191V215.179C368.604 228.905 388.713 236.348 409.107 236.348C452.126 236.348 487 201.348 487 158.176C487 115 452.126 80.0015 409.107 80.0015ZM414.857 218.53C382.081 218.352 356.933 190.349 356.731 152.429C356.52 112.616 384.949 95.9363 403.994 96.0396C436.664 96.2176 462.665 127.16 462.856 163.472C463.036 197.25 439.703 218.665 414.857 218.53ZM292.787 0V101.296C279.993 87.2381 260.265 80.0013 239.871 80.0013C196.854 80.0013 161.98 115 161.98 158.176C161.98 201.348 196.854 236.348 239.871 236.348C282.89 236.348 317.764 201.348 317.764 158.176V0H292.787ZM244.746 218.54C212.042 218.362 186.323 188.401 186.121 151.554C185.913 115.769 210.892 95.9474 233.88 96.0497C266.624 96.228 292.057 125.21 292.249 162.597C292.429 200.403 265.646 218.675 244.746 218.54Z" fill="#131827"/>
</svg>
