<svg width="126" height="82" viewBox="0 0 126 82" fill="none" xmlns="http://www.w3.org/2000/svg">
<g filter="url(#filter0_d_3554_1213)">
<path fill-rule="evenodd" clip-rule="evenodd" d="M36.4131 42.9764C35.9523 45.7858 32.4683 51.9968 23.8171 51.9968C12.2588 51.9968 9.80891 39.7769 10.0959 37.6284L40.4639 37.617C40.046 27.5306 32.9874 19.497 22.8675 19.497C12.4475 19.497 4 28.0144 4 38.5202C4 49.0266 12.4475 57.5436 22.8675 57.5436C31.7657 57.5436 38.651 51.3331 40.4734 42.9764H36.4131ZM21.8905 23.3781C28.1977 23.3781 32.7576 27.2438 34.3776 33.4915L10.44 33.4584C11.9867 26.4275 17.4801 23.3781 21.8905 23.3781ZM103.127 19.4741C92.703 19.4741 84.2531 27.9934 84.2531 38.5034V74H90.3049V52.3792C93.3127 55.7203 98.1851 57.5321 103.127 57.5321C113.55 57.5321 122 49.0122 122 38.5034C122 27.9934 113.55 19.4741 103.127 19.4741ZM104.52 53.1948C96.5782 53.1516 90.4847 46.3349 90.4359 37.1044C90.3847 27.413 97.273 23.3529 101.888 23.3781C109.803 23.4214 116.104 30.9534 116.15 39.7926C116.193 48.0148 110.54 53.2278 104.52 53.1948ZM74.9423 0V24.6577C71.8423 21.2356 67.0621 19.474 62.1207 19.474C51.6977 19.474 43.2478 27.9934 43.2478 38.5034C43.2478 49.0122 51.6977 57.5321 62.1207 57.5321C72.5442 57.5321 80.9941 49.0122 80.9941 38.5034V0H74.9423ZM63.3019 53.1972C55.3776 53.154 49.146 45.8608 49.0972 36.8914C49.0466 28.1806 55.099 23.3556 60.6692 23.3805C68.6029 23.4239 74.7655 30.4786 74.8119 39.5795C74.8554 48.7824 68.366 53.2302 63.3019 53.1972Z" fill="white"/>
</g>
<defs>
<filter id="filter0_d_3554_1213" x="0" y="0" width="126" height="82" filterUnits="userSpaceOnUse" color-interpolation-filters="sRGB">
<feFlood flood-opacity="0" result="BackgroundImageFix"/>
<feColorMatrix in="SourceAlpha" type="matrix" values="0 0 0 0 0 0 0 0 0 0 0 0 0 0 0 0 0 0 127 0" result="hardAlpha"/>
<feOffset dy="4"/>
<feGaussianBlur stdDeviation="2"/>
<feComposite in2="hardAlpha" operator="out"/>
<feColorMatrix type="matrix" values="0 0 0 0 0 0 0 0 0 0 0 0 0 0 0 0 0 0 0.25 0"/>
<feBlend mode="normal" in2="BackgroundImageFix" result="effect1_dropShadow_3554_1213"/>
<feBlend mode="normal" in="SourceGraphic" in2="effect1_dropShadow_3554_1213" result="shape"/>
</filter>
</defs>
</svg>
